<?xml version="1.0" encoding="UTF-8" standalone="no"?>
<!DOCTYPE svg PUBLIC "-//W3C//DTD SVG 1.1//EN" "http://www.w3.org/Graphics/SVG/1.1/DTD/svg11.dtd">
<svg width="100%" height="100%" viewBox="0 0 222 286" version="1.1" xmlns="http://www.w3.org/2000/svg" xmlns:xlink="http://www.w3.org/1999/xlink" xml:space="preserve" xmlns:serif="http://www.serif.com/" style="fill-rule:evenodd;clip-rule:evenodd;stroke-linecap:round;stroke-linejoin:round;stroke-miterlimit:1.5;">
    <g transform="matrix(1,0,0,1,-10206.563137,-1901.927092)">
        <g transform="matrix(1.5,-0,0,1.5,-9629.715968,-432.032245)">
            <g id="ADN" transform="matrix(0.787382,-0,0,0.787382,7882.189149,-1042.85019)">
                <g transform="matrix(0.21029,0.177028,-0.181266,0.205373,5888.926037,1343.382689)">
                    <clipPath id="_clip1">
                        <path d="M7618.11,3527.501L7618.11,3095L7854.331,3094.209L7854.331,3631.926C7846.733,3633.165 7839.039,3634.82 7831.117,3636.778C7815.249,3596.731 7796.209,3566.69 7749.179,3540.694L7750.671,3541.59L7748.324,3540.2L7747.86,3539.971C7711.353,3520.172 7678.123,3520.284 7646.403,3525.624C7637.336,3527.151 7628.432,3529.146 7619.631,3531.02C7619.124,3529.85 7618.618,3528.677 7618.11,3527.501ZM7854.331,3794.196L7854.331,3867.582L7618.11,3873.869L7618.11,3661.221C7629.807,3675.79 7644.85,3688.844 7665.5,3699.152L7666.186,3699.58L7672.237,3702.056L7668.712,3700.713C7719.393,3725.825 7755.079,3724.235 7793.37,3711.265C7806.635,3744.74 7822.118,3771.225 7854.331,3794.196Z"/>
                    </clipPath>
                    <g clip-path="url(#_clip1)">
                        <g>
                            <path d="M7736.22,3956.693C7712.444,3923.01 7675.686,3894.732 7677.165,3838.583C7678.645,3782.434 7702.301,3756.416 7736.22,3720.472" style="fill:none;stroke:rgb(248,185,162);stroke-width:15.69px;"/>
                            <g transform="matrix(-1,0,0,-1,15472.39762,7440.944882)">
                                <path d="M7736.22,3956.693C7712.444,3923.01 7675.686,3894.732 7677.165,3838.583C7678.645,3782.434 7702.301,3756.416 7736.22,3720.472" style="fill:none;stroke:rgb(248,185,162);stroke-width:15.69px;"/>
                            </g>
                            <g transform="matrix(-1,0,0,-1,15472.375958,6968.503937)">
                                <path d="M7736.22,3956.693C7712.444,3923.01 7675.686,3894.732 7677.165,3838.583C7678.645,3782.434 7702.301,3756.416 7736.22,3720.472" style="fill:none;stroke:rgb(248,185,162);stroke-width:15.69px;"/>
                            </g>
                            <g transform="matrix(1,0,0,1,-0.021662,-472.440945)">
                                <path d="M7736.22,3956.693C7712.444,3923.01 7675.686,3894.732 7677.165,3838.583C7678.645,3782.434 7702.301,3756.416 7736.22,3720.472" style="fill:none;stroke:rgb(248,185,162);stroke-width:15.69px;"/>
                            </g>
                        </g>
                        <g transform="matrix(-1,0,0,1,15472.375958,0)">
                            <path d="M7736.22,3956.693C7712.444,3923.01 7675.686,3894.732 7677.165,3838.583C7678.645,3782.434 7702.301,3756.416 7736.22,3720.472" style="fill:none;stroke:rgb(248,185,162);stroke-width:15.33px;"/>
                            <g transform="matrix(-1,0,0,-1,15472.39762,7440.944882)">
                                <path d="M7736.22,3956.693C7712.444,3923.01 7675.686,3894.732 7677.165,3838.583C7678.645,3782.434 7702.301,3756.416 7736.22,3720.472" style="fill:none;stroke:rgb(248,185,162);stroke-width:15.33px;"/>
                            </g>
                            <g transform="matrix(-1,0,0,-1,15472.375958,6968.503937)">
                                <path d="M7736.22,3956.693C7712.444,3923.01 7675.686,3894.732 7677.165,3838.583C7678.645,3782.434 7702.301,3756.416 7736.22,3720.472" style="fill:none;stroke:rgb(248,185,162);stroke-width:15.33px;"/>
                            </g>
                            <g transform="matrix(1,0,0,1,-0.021662,-472.440945)">
                                <path d="M7736.22,3956.693C7712.444,3923.01 7675.686,3894.732 7677.165,3838.583C7678.645,3782.434 7702.301,3756.416 7736.22,3720.472" style="fill:none;stroke:rgb(248,185,162);stroke-width:15.33px;"/>
                            </g>
                        </g>
                        <g transform="matrix(0.924304,0,0,1,585.599695,0)">
                            <path d="M7736.22,3070.866L7691.497,3070.866" style="fill:none;stroke:rgb(248,185,162);stroke-width:16.3px;"/>
                        </g>
                        <g transform="matrix(0.924304,0,0,1,585.599695,472.440945)">
                            <path d="M7736.22,3070.866L7691.497,3070.866" style="fill:none;stroke:rgb(248,185,162);stroke-width:16.3px;"/>
                        </g>
                        <g transform="matrix(-0.924304,0,0,1,14886.754601,236.220472)">
                            <path d="M7736.22,3070.866L7691.497,3070.866" style="fill:none;stroke:rgb(248,185,162);stroke-width:15.92px;"/>
                        </g>
                        <g transform="matrix(-0.924304,0,0,1,14886.754601,708.661417)">
                            <path d="M7736.22,3070.866L7691.497,3070.866" style="fill:none;stroke:rgb(248,185,162);stroke-width:15.92px;"/>
                        </g>
                        <path d="M7713.858,3129.921L7677.165,3129.921" style="fill:none;stroke:rgb(248,185,162);stroke-width:15.69px;"/>
                        <g transform="matrix(1,0,0,1,0,472.440945)">
                            <path d="M7713.858,3129.921L7677.165,3129.921" style="fill:none;stroke:rgb(248,185,162);stroke-width:15.69px;"/>
                        </g>
                        <g transform="matrix(-1,0,0,1,15472.354295,236.220472)">
                            <path d="M7713.858,3129.921L7677.165,3129.921" style="fill:none;stroke:rgb(248,185,162);stroke-width:15.33px;"/>
                        </g>
                        <g transform="matrix(-1,0,0,1,15472.354295,708.661417)">
                            <path d="M7713.858,3129.921L7677.165,3129.921" style="fill:none;stroke:rgb(248,185,162);stroke-width:15.33px;"/>
                        </g>
                        <path d="M7736.155,3188.976L7691.497,3188.976" style="fill:none;stroke:rgb(248,185,162);stroke-width:15.69px;"/>
                        <g transform="matrix(1,0,0,1,0,472.440945)">
                            <path d="M7736.155,3188.976L7691.497,3188.976" style="fill:none;stroke:rgb(248,185,162);stroke-width:15.69px;"/>
                        </g>
                        <g transform="matrix(-1,0,0,1,15472.354295,236.220472)">
                            <path d="M7736.155,3188.976L7691.497,3188.976" style="fill:none;stroke:rgb(248,185,162);stroke-width:15.33px;"/>
                        </g>
                        <g transform="matrix(-1,0,0,1,15472.354295,708.661417)">
                            <path d="M7736.155,3188.976L7691.497,3188.976" style="fill:none;stroke:rgb(248,185,162);stroke-width:15.33px;"/>
                        </g>
                        <path d="M7758.829,3070.866L7779.72,3070.866" style="fill:none;stroke:rgb(248,185,162);stroke-width:15.69px;"/>
                        <g transform="matrix(1,0,0,1,0,472.440945)">
                            <path d="M7758.829,3070.866L7779.72,3070.866" style="fill:none;stroke:rgb(248,185,162);stroke-width:15.69px;"/>
                        </g>
                        <g transform="matrix(-1,0,0,1,15472.354295,236.220472)">
                            <path d="M7758.829,3070.866L7779.72,3070.866" style="fill:none;stroke:rgb(248,185,162);stroke-width:15.33px;"/>
                        </g>
                        <g transform="matrix(-1,0,0,1,15472.354295,708.661417)">
                            <path d="M7758.829,3070.866L7779.72,3070.866" style="fill:none;stroke:rgb(248,185,162);stroke-width:15.33px;"/>
                        </g>
                        <path d="M7736.155,3129.921L7795.254,3129.921" style="fill:none;stroke:rgb(248,185,162);stroke-width:15.69px;"/>
                        <g transform="matrix(1,0,0,1,0,472.440945)">
                            <path d="M7736.155,3129.921L7795.254,3129.921" style="fill:none;stroke:rgb(248,185,162);stroke-width:15.69px;"/>
                        </g>
                        <g transform="matrix(-1,0,0,1,15472.354295,236.220472)">
                            <path d="M7736.155,3129.921L7795.254,3129.921" style="fill:none;stroke:rgb(248,185,162);stroke-width:15.33px;"/>
                        </g>
                        <g transform="matrix(-1,0,0,1,15472.354295,708.661417)">
                            <path d="M7736.155,3129.921L7795.254,3129.921" style="fill:none;stroke:rgb(248,185,162);stroke-width:15.33px;"/>
                        </g>
                        <path d="M7758.829,3188.976L7779.72,3188.976" style="fill:none;stroke:rgb(248,185,162);stroke-width:15.69px;"/>
                        <g transform="matrix(1,0,0,1,0,472.440945)">
                            <path d="M7758.829,3188.976L7779.72,3188.976" style="fill:none;stroke:rgb(248,185,162);stroke-width:15.69px;"/>
                        </g>
                        <g transform="matrix(-1,0,0,1,15472.354295,236.220472)">
                            <path d="M7758.829,3188.976L7779.72,3188.976" style="fill:none;stroke:rgb(248,185,162);stroke-width:15.33px;"/>
                        </g>
                        <g transform="matrix(-1,0,0,1,15472.354295,708.661417)">
                            <path d="M7758.829,3188.976L7779.72,3188.976" style="fill:none;stroke:rgb(248,185,162);stroke-width:15.33px;"/>
                        </g>
                    </g>
                </g>
                <g transform="matrix(0.257461,-0.101459,0.103888,0.251441,4487.502475,3330.332568)">
                    <clipPath id="_clip2">
                        <path d="M7618.11,3095L7854.331,3094.209L7854.331,3867.582L7618.11,3873.869L7618.11,3095Z"/>
                    </clipPath>
                    <g clip-path="url(#_clip2)">
                        <g>
                            <path d="M7736.22,3956.693C7712.444,3923.01 7675.686,3894.732 7677.165,3838.583C7678.645,3782.434 7702.301,3756.416 7736.22,3720.472" style="fill:none;stroke:rgb(248,185,162);stroke-width:15.38px;"/>
                            <g transform="matrix(-1,0,0,-1,15472.39762,7440.944882)">
                                <path d="M7736.22,3956.693C7712.444,3923.01 7675.686,3894.732 7677.165,3838.583C7678.645,3782.434 7702.301,3756.416 7736.22,3720.472" style="fill:none;stroke:rgb(248,185,162);stroke-width:15.38px;"/>
                            </g>
                            <g transform="matrix(-1,0,0,-1,15472.375958,6968.503937)">
                                <path d="M7736.22,3956.693C7712.444,3923.01 7675.686,3894.732 7677.165,3838.583C7678.645,3782.434 7702.301,3756.416 7736.22,3720.472" style="fill:none;stroke:rgb(248,185,162);stroke-width:15.38px;"/>
                            </g>
                            <g transform="matrix(1,0,0,1,-0.021662,-472.440945)">
                                <path d="M7736.22,3956.693C7712.444,3923.01 7675.686,3894.732 7677.165,3838.583C7678.645,3782.434 7702.301,3756.416 7736.22,3720.472" style="fill:none;stroke:rgb(248,185,162);stroke-width:15.38px;"/>
                            </g>
                        </g>
                        <g transform="matrix(-1,0,0,1,15472.375958,0)">
                            <path d="M7736.22,3956.693C7712.444,3923.01 7675.686,3894.732 7677.165,3838.583C7678.645,3782.434 7702.301,3756.416 7736.22,3720.472" style="fill:none;stroke:rgb(248,185,162);stroke-width:15.63px;"/>
                            <g transform="matrix(-1,0,0,-1,15472.39762,7440.944882)">
                                <path d="M7736.22,3956.693C7712.444,3923.01 7675.686,3894.732 7677.165,3838.583C7678.645,3782.434 7702.301,3756.416 7736.22,3720.472" style="fill:none;stroke:rgb(248,185,162);stroke-width:15.63px;"/>
                            </g>
                            <g transform="matrix(-1,0,0,-1,15472.375958,6968.503937)">
                                <path d="M7736.22,3956.693C7712.444,3923.01 7675.686,3894.732 7677.165,3838.583C7678.645,3782.434 7702.301,3756.416 7736.22,3720.472" style="fill:none;stroke:rgb(248,185,162);stroke-width:15.63px;"/>
                            </g>
                            <g transform="matrix(1,0,0,1,-0.021662,-472.440945)">
                                <path d="M7736.22,3956.693C7712.444,3923.01 7675.686,3894.732 7677.165,3838.583C7678.645,3782.434 7702.301,3756.416 7736.22,3720.472" style="fill:none;stroke:rgb(248,185,162);stroke-width:15.63px;"/>
                            </g>
                        </g>
                        <g transform="matrix(0.924304,0,0,1,585.599695,0)">
                            <path d="M7736.22,3070.866L7691.497,3070.866" style="fill:none;stroke:rgb(248,185,162);stroke-width:15.98px;"/>
                        </g>
                        <g transform="matrix(0.924304,0,0,1,585.599695,472.440945)">
                            <path d="M7736.22,3070.866L7691.497,3070.866" style="fill:none;stroke:rgb(248,185,162);stroke-width:15.98px;"/>
                        </g>
                        <g transform="matrix(-0.924304,0,0,1,14886.754601,236.220472)">
                            <path d="M7736.22,3070.866L7691.497,3070.866" style="fill:none;stroke:rgb(248,185,162);stroke-width:16.25px;"/>
                        </g>
                        <g transform="matrix(-0.924304,0,0,1,14886.754601,708.661417)">
                            <path d="M7736.22,3070.866L7691.497,3070.866" style="fill:none;stroke:rgb(248,185,162);stroke-width:16.25px;"/>
                        </g>
                        <path d="M7713.858,3129.921L7677.165,3129.921" style="fill:none;stroke:rgb(248,185,162);stroke-width:15.38px;"/>
                        <g transform="matrix(1,0,0,1,0,472.440945)">
                            <path d="M7713.858,3129.921L7677.165,3129.921" style="fill:none;stroke:rgb(248,185,162);stroke-width:15.38px;"/>
                        </g>
                        <g transform="matrix(-1,0,0,1,15472.354295,236.220472)">
                            <path d="M7713.858,3129.921L7677.165,3129.921" style="fill:none;stroke:rgb(248,185,162);stroke-width:15.63px;"/>
                        </g>
                        <g transform="matrix(-1,0,0,1,15472.354295,708.661417)">
                            <path d="M7713.858,3129.921L7677.165,3129.921" style="fill:none;stroke:rgb(248,185,162);stroke-width:15.63px;"/>
                        </g>
                        <path d="M7736.155,3188.976L7691.497,3188.976" style="fill:none;stroke:rgb(248,185,162);stroke-width:15.38px;"/>
                        <g transform="matrix(1,0,0,1,0,472.440945)">
                            <path d="M7736.155,3188.976L7691.497,3188.976" style="fill:none;stroke:rgb(248,185,162);stroke-width:15.38px;"/>
                        </g>
                        <g transform="matrix(-1,0,0,1,15472.354295,236.220472)">
                            <path d="M7736.155,3188.976L7691.497,3188.976" style="fill:none;stroke:rgb(248,185,162);stroke-width:15.63px;"/>
                        </g>
                        <g transform="matrix(-1,0,0,1,15472.354295,708.661417)">
                            <path d="M7736.155,3188.976L7691.497,3188.976" style="fill:none;stroke:rgb(248,185,162);stroke-width:15.63px;"/>
                        </g>
                        <path d="M7758.829,3070.866L7779.72,3070.866" style="fill:none;stroke:rgb(248,185,162);stroke-width:15.38px;"/>
                        <g transform="matrix(1,0,0,1,0,472.440945)">
                            <path d="M7758.829,3070.866L7779.72,3070.866" style="fill:none;stroke:rgb(248,185,162);stroke-width:15.38px;"/>
                        </g>
                        <g transform="matrix(-1,0,0,1,15472.354295,236.220472)">
                            <path d="M7758.829,3070.866L7779.72,3070.866" style="fill:none;stroke:rgb(248,185,162);stroke-width:15.63px;"/>
                        </g>
                        <g transform="matrix(-1,0,0,1,15472.354295,708.661417)">
                            <path d="M7758.829,3070.866L7779.72,3070.866" style="fill:none;stroke:rgb(248,185,162);stroke-width:15.63px;"/>
                        </g>
                        <path d="M7736.155,3129.921L7795.254,3129.921" style="fill:none;stroke:rgb(248,185,162);stroke-width:15.38px;"/>
                        <g transform="matrix(1,0,0,1,0,472.440945)">
                            <path d="M7736.155,3129.921L7795.254,3129.921" style="fill:none;stroke:rgb(248,185,162);stroke-width:15.38px;"/>
                        </g>
                        <g transform="matrix(-1,0,0,1,15472.354295,236.220472)">
                            <path d="M7736.155,3129.921L7795.254,3129.921" style="fill:none;stroke:rgb(248,185,162);stroke-width:15.63px;"/>
                        </g>
                        <g transform="matrix(-1,0,0,1,15472.354295,708.661417)">
                            <path d="M7736.155,3129.921L7795.254,3129.921" style="fill:none;stroke:rgb(248,185,162);stroke-width:15.63px;"/>
                        </g>
                        <path d="M7758.829,3188.976L7779.72,3188.976" style="fill:none;stroke:rgb(248,185,162);stroke-width:15.38px;"/>
                        <g transform="matrix(1,0,0,1,0,472.440945)">
                            <path d="M7758.829,3188.976L7779.72,3188.976" style="fill:none;stroke:rgb(248,185,162);stroke-width:15.38px;"/>
                        </g>
                        <g transform="matrix(-1,0,0,1,15472.354295,236.220472)">
                            <path d="M7758.829,3188.976L7779.72,3188.976" style="fill:none;stroke:rgb(248,185,162);stroke-width:15.63px;"/>
                        </g>
                        <g transform="matrix(-1,0,0,1,15472.354295,708.661417)">
                            <path d="M7758.829,3188.976L7779.72,3188.976" style="fill:none;stroke:rgb(248,185,162);stroke-width:15.63px;"/>
                        </g>
                    </g>
                </g>
            </g>
        </g>
    </g>
</svg>
