<?xml version="1.0" encoding="UTF-8" standalone="no"?>
<!DOCTYPE svg PUBLIC "-//W3C//DTD SVG 1.1//EN" "http://www.w3.org/Graphics/SVG/1.1/DTD/svg11.dtd">
<svg width="100%" height="100%" viewBox="0 0 289 247" version="1.1" xmlns="http://www.w3.org/2000/svg" xmlns:xlink="http://www.w3.org/1999/xlink" xml:space="preserve" xmlns:serif="http://www.serif.com/" style="fill-rule:evenodd;clip-rule:evenodd;stroke-linejoin:round;stroke-miterlimit:2;">
    <g transform="matrix(1,0,0,1,-109.930579,-1418.105526)">
        <g id="BACTÉRIE" transform="matrix(0.367231,0.367231,-0.367231,0.367231,-1315.42,-2484.48)">
            <g transform="matrix(0.702332,0,0,0.702332,2305.27,1064.48)">
                <g transform="matrix(1,0,0,0.950027,1.52363,174)">
                    <path d="M7684.62,3303.83C7704.66,3309.22 7719.49,3328.37 7719.49,3351.13L7719.49,3510.22C7719.49,3537.17 7698.71,3559.04 7673.11,3559.04L7659.96,3559.04C7634.36,3559.04 7613.57,3537.17 7613.57,3510.22L7613.57,3351.13C7613.57,3330.63 7625.61,3313.06 7642.64,3305.83C7643.24,3307.29 7643.99,3308.7 7644.89,3310.03C7629.23,3316.41 7618.11,3332.41 7618.11,3351.13L7618.11,3510.22C7618.11,3534.53 7636.86,3554.27 7659.96,3554.27L7673.11,3554.27C7696.21,3554.27 7714.96,3534.53 7714.96,3510.22L7714.96,3351.13C7714.96,3330.31 7701.19,3312.83 7682.73,3308.26C7683.51,3306.84 7684.14,3305.35 7684.62,3303.83Z" style="fill:rgb(35,30,30);stroke:rgb(248,185,162);stroke-width:18.74px;"/>
                </g>
                <g transform="matrix(2.43944,-2.43944,2.43944,2.43944,-18323.4,11103.8)">
                    <path d="M6925.01,3721.79C6928.61,3721.79 6931.53,3724.71 6931.53,3728.31C6931.53,3731.91 6928.61,3734.83 6925.01,3734.83C6921.41,3734.83 6918.49,3731.91 6918.49,3728.31C6918.49,3724.71 6921.41,3721.79 6925.01,3721.79ZM6925.01,3723.87C6922.56,3723.87 6920.57,3725.86 6920.57,3728.31C6920.57,3730.76 6922.56,3732.75 6925.01,3732.75C6927.46,3732.75 6929.45,3730.76 6929.45,3728.31C6929.45,3725.86 6927.46,3723.87 6925.01,3723.87Z" style="fill:rgb(35,30,30);stroke:rgb(248,185,162);stroke-width:5.3px;"/>
                </g>
                <g transform="matrix(0.997505,0.070594,-0.070594,0.997505,249.907,-554.327)">
                    <path d="M7666.53,3307.09C7666.45,3282.31 7632.28,3282.21 7630.49,3248.03C7628.7,3213.85 7677.53,3195.56 7677.16,3150.93C7677.16,3150.93 7679.26,3112.82 7641.06,3084.86C7602.86,3056.89 7590.76,2990.9 7666.53,2926.21" style="fill:none;stroke:rgb(248,185,162);stroke-width:12.27px;stroke-linecap:round;stroke-miterlimit:1.5;"/>
                </g>
                <g>
                    <path d="M7693.29,3322.4L7722.55,3295.96" style="fill:none;stroke:rgb(248,185,162);stroke-width:8.59px;stroke-linecap:round;stroke-miterlimit:1.5;"/>
                    <g transform="matrix(0.878703,0.47737,-0.47737,0.878703,2526.74,-3241.86)">
                        <path d="M7693.29,3322.4L7722.55,3295.96" style="fill:none;stroke:rgb(248,185,162);stroke-width:8.59px;stroke-linecap:round;stroke-miterlimit:1.5;"/>
                    </g>
                    <g transform="matrix(0.741919,0.670489,-0.670489,0.741919,4222.43,-4237.83)">
                        <path d="M7693.29,3322.4L7722.55,3295.96" style="fill:none;stroke:rgb(248,185,162);stroke-width:8.59px;stroke-linecap:round;stroke-miterlimit:1.5;"/>
                    </g>
                    <g transform="matrix(1,0,0,-1,2.41728,6853.09)">
                        <path d="M7693.29,3322.4L7722.55,3295.96" style="fill:none;stroke:rgb(248,185,162);stroke-width:8.59px;stroke-linecap:round;stroke-miterlimit:1.5;"/>
                    </g>
                    <g transform="matrix(0.893011,0.450036,0.450036,-0.893011,-686.725,3043.96)">
                        <path d="M7693.29,3322.4L7722.55,3295.96" style="fill:none;stroke:rgb(248,185,162);stroke-width:8.59px;stroke-linecap:round;stroke-miterlimit:1.5;"/>
                    </g>
                    <g transform="matrix(-0.893011,0.450036,-0.450036,-0.893011,16024.3,3043.96)">
                        <path d="M7693.29,3322.4L7722.55,3295.96" style="fill:none;stroke:rgb(248,185,162);stroke-width:8.59px;stroke-linecap:round;stroke-miterlimit:1.5;"/>
                    </g>
                    <path d="M7717.34,3323.45L7687.33,3338.3" style="fill:none;stroke:rgb(248,185,162);stroke-width:8.59px;stroke-linecap:round;stroke-miterlimit:1.5;"/>
                    <g transform="matrix(0.928538,0.371236,-0.371236,0.928538,1795.73,-2586.4)">
                        <path d="M7717.34,3323.45L7687.33,3338.3" style="fill:none;stroke:rgb(248,185,162);stroke-width:8.59px;stroke-linecap:round;stroke-miterlimit:1.5;"/>
                    </g>
                    <g transform="matrix(0.896259,0.443531,-0.443531,0.896259,2286.96,-2998.07)">
                        <path d="M7717.34,3323.45L7687.33,3338.3" style="fill:none;stroke:rgb(248,185,162);stroke-width:8.59px;stroke-linecap:round;stroke-miterlimit:1.5;"/>
                    </g>
                    <g transform="matrix(1,0,0,-1,0,6848.71)">
                        <path d="M7717.34,3323.45L7687.33,3338.3" style="fill:none;stroke:rgb(248,185,162);stroke-width:8.59px;stroke-linecap:round;stroke-miterlimit:1.5;"/>
                    </g>
                    <g transform="matrix(0.917823,0.39699,0.39699,-0.917823,-699.692,3539.84)">
                        <path d="M7717.34,3323.45L7687.33,3338.3" style="fill:none;stroke:rgb(248,185,162);stroke-width:8.59px;stroke-linecap:round;stroke-miterlimit:1.5;"/>
                    </g>
                    <g transform="matrix(0.928538,-0.371236,-0.371236,-0.928538,1795.73,9435.11)">
                        <path d="M7717.34,3323.45L7687.33,3338.3" style="fill:none;stroke:rgb(248,185,162);stroke-width:8.59px;stroke-linecap:round;stroke-miterlimit:1.5;"/>
                    </g>
                    <g transform="matrix(0.896259,-0.443531,-0.443531,-0.896259,2286.96,9846.78)">
                        <path d="M7717.34,3323.45L7687.33,3338.3" style="fill:none;stroke:rgb(248,185,162);stroke-width:8.59px;stroke-linecap:round;stroke-miterlimit:1.5;"/>
                    </g>
                    <g transform="matrix(-1,0,0,1,15334.2,0)">
                        <path d="M7717.34,3323.45L7687.33,3338.3" style="fill:none;stroke:rgb(248,185,162);stroke-width:8.59px;stroke-linecap:round;stroke-miterlimit:1.5;"/>
                    </g>
                    <g transform="matrix(-0.928538,0.371236,0.371236,0.928538,13538.5,-2586.4)">
                        <path d="M7717.34,3323.45L7687.33,3338.3" style="fill:none;stroke:rgb(248,185,162);stroke-width:8.59px;stroke-linecap:round;stroke-miterlimit:1.5;"/>
                    </g>
                    <g transform="matrix(-0.896259,0.443531,0.443531,0.896259,13047.2,-2998.07)">
                        <path d="M7717.34,3323.45L7687.33,3338.3" style="fill:none;stroke:rgb(248,185,162);stroke-width:8.59px;stroke-linecap:round;stroke-miterlimit:1.5;"/>
                    </g>
                    <g transform="matrix(-1,0,0,-1,15334.2,6848.71)">
                        <path d="M7717.34,3323.45L7687.33,3338.3" style="fill:none;stroke:rgb(248,185,162);stroke-width:8.59px;stroke-linecap:round;stroke-miterlimit:1.5;"/>
                    </g>
                    <g transform="matrix(-0.917823,0.39699,-0.39699,-0.917823,16033.9,3539.84)">
                        <path d="M7717.34,3323.45L7687.33,3338.3" style="fill:none;stroke:rgb(248,185,162);stroke-width:8.59px;stroke-linecap:round;stroke-miterlimit:1.5;"/>
                    </g>
                    <g transform="matrix(-0.443531,0.896259,-0.896259,-0.443531,14070.5,-1876.4)">
                        <path d="M7717.34,3323.45L7687.33,3338.3" style="fill:none;stroke:rgb(248,185,162);stroke-width:8.59px;stroke-linecap:round;stroke-miterlimit:1.5;"/>
                    </g>
                    <g transform="matrix(-0.928538,-0.371236,0.371236,-0.928538,13538.5,9435.11)">
                        <path d="M7717.34,3323.45L7687.33,3338.3" style="fill:none;stroke:rgb(248,185,162);stroke-width:8.59px;stroke-linecap:round;stroke-miterlimit:1.5;"/>
                    </g>
                    <g transform="matrix(-0.896259,-0.443531,0.443531,-0.896259,13047.2,9846.78)">
                        <path d="M7717.34,3323.45L7687.33,3338.3" style="fill:none;stroke:rgb(248,185,162);stroke-width:8.59px;stroke-linecap:round;stroke-miterlimit:1.5;"/>
                    </g>
                    <g transform="matrix(0.878703,-0.47737,-0.47737,-0.878703,2529.16,10094.9)">
                        <path d="M7693.29,3322.4L7722.55,3295.96" style="fill:none;stroke:rgb(248,185,162);stroke-width:8.59px;stroke-linecap:round;stroke-miterlimit:1.5;"/>
                    </g>
                    <g transform="matrix(0.741919,-0.670489,-0.670489,-0.741919,4224.85,11090.9)">
                        <path d="M7693.29,3322.4L7722.55,3295.96" style="fill:none;stroke:rgb(248,185,162);stroke-width:8.59px;stroke-linecap:round;stroke-miterlimit:1.5;"/>
                    </g>
                    <g transform="matrix(0.741919,0.670489,-0.670489,0.741919,4223.62,-4198.66)">
                        <path d="M7693.29,3322.4L7722.55,3295.96" style="fill:none;stroke:rgb(248,185,162);stroke-width:8.59px;stroke-linecap:round;stroke-miterlimit:1.5;"/>
                    </g>
                    <g transform="matrix(-1,0,0,1,15334,0)">
                        <path d="M7693.29,3322.4L7722.55,3295.96" style="fill:none;stroke:rgb(248,185,162);stroke-width:8.59px;stroke-linecap:round;stroke-miterlimit:1.5;"/>
                    </g>
                    <g transform="matrix(-0.878703,0.47737,0.47737,0.878703,12807.2,-3241.86)">
                        <path d="M7693.29,3322.4L7722.55,3295.96" style="fill:none;stroke:rgb(248,185,162);stroke-width:8.59px;stroke-linecap:round;stroke-miterlimit:1.5;"/>
                    </g>
                    <g transform="matrix(-0.741919,0.670489,0.670489,0.741919,11111.5,-4237.83)">
                        <path d="M7693.29,3322.4L7722.55,3295.96" style="fill:none;stroke:rgb(248,185,162);stroke-width:8.59px;stroke-linecap:round;stroke-miterlimit:1.5;"/>
                    </g>
                    <g transform="matrix(-1,0,0,-1,15331.6,6853.09)">
                        <path d="M7693.29,3322.4L7722.55,3295.96" style="fill:none;stroke:rgb(248,185,162);stroke-width:8.59px;stroke-linecap:round;stroke-miterlimit:1.5;"/>
                    </g>
                    <g transform="matrix(-0.878703,-0.47737,0.47737,-0.878703,12804.8,10094.9)">
                        <path d="M7693.29,3322.4L7722.55,3295.96" style="fill:none;stroke:rgb(248,185,162);stroke-width:8.59px;stroke-linecap:round;stroke-miterlimit:1.5;"/>
                    </g>
                    <g transform="matrix(-0.741919,-0.670489,0.670489,-0.741919,11109.1,11090.9)">
                        <path d="M7693.29,3322.4L7722.55,3295.96" style="fill:none;stroke:rgb(248,185,162);stroke-width:8.59px;stroke-linecap:round;stroke-miterlimit:1.5;"/>
                    </g>
                    <g transform="matrix(-0.741919,0.670489,0.670489,0.741919,11110.4,-4198.66)">
                        <path d="M7693.29,3322.4L7722.55,3295.96" style="fill:none;stroke:rgb(248,185,162);stroke-width:8.59px;stroke-linecap:round;stroke-miterlimit:1.5;"/>
                    </g>
                </g>
            </g>
            <g transform="matrix(-0.31629,-0.627082,0.627082,-0.31629,7942.31,9042.97)">
                <g transform="matrix(1,0,0,0.950027,1.52363,174)">
                    <path d="M7684.62,3303.83C7704.66,3309.22 7719.49,3328.37 7719.49,3351.13L7719.49,3510.22C7719.49,3537.17 7698.71,3559.04 7673.11,3559.04L7659.96,3559.04C7634.36,3559.04 7613.57,3537.17 7613.57,3510.22L7613.57,3351.13C7613.57,3330.63 7625.61,3313.06 7642.64,3305.83C7643.24,3307.29 7643.99,3308.7 7644.89,3310.03C7629.23,3316.41 7618.11,3332.41 7618.11,3351.13L7618.11,3510.22C7618.11,3534.53 7636.86,3554.27 7659.96,3554.27L7673.11,3554.27C7696.21,3554.27 7714.96,3534.53 7714.96,3510.22L7714.96,3351.13C7714.96,3330.31 7701.19,3312.83 7682.73,3308.26C7683.51,3306.84 7684.14,3305.35 7684.62,3303.83Z" style="fill:rgb(35,30,30);stroke:rgb(248,185,162);stroke-width:18.74px;"/>
                </g>
                <g transform="matrix(2.43944,-2.43944,2.43944,2.43944,-18323.4,11103.8)">
                    <path d="M6925.01,3721.79C6928.61,3721.79 6931.53,3724.71 6931.53,3728.31C6931.53,3731.91 6928.61,3734.83 6925.01,3734.83C6921.41,3734.83 6918.49,3731.91 6918.49,3728.31C6918.49,3724.71 6921.41,3721.79 6925.01,3721.79ZM6925.01,3723.87C6922.56,3723.87 6920.57,3725.86 6920.57,3728.31C6920.57,3730.76 6922.56,3732.75 6925.01,3732.75C6927.46,3732.75 6929.45,3730.76 6929.45,3728.31C6929.45,3725.86 6927.46,3723.87 6925.01,3723.87Z" style="fill:rgb(35,30,30);stroke:rgb(248,185,162);stroke-width:5.3px;"/>
                </g>
                <g transform="matrix(0.997505,0.070594,-0.070594,0.997505,249.907,-554.327)">
                    <path d="M7666.53,3307.09C7666.45,3282.31 7632.28,3282.21 7630.49,3248.03C7628.7,3213.85 7677.53,3195.56 7677.16,3150.93C7677.16,3150.93 7679.26,3112.82 7641.06,3084.86C7602.86,3056.89 7590.76,2990.9 7666.53,2926.21" style="fill:none;stroke:rgb(248,185,162);stroke-width:12.27px;stroke-linecap:round;stroke-miterlimit:1.5;"/>
                </g>
                <g>
                    <path d="M7693.29,3322.4L7722.55,3295.96" style="fill:none;stroke:rgb(248,185,162);stroke-width:8.59px;stroke-linecap:round;stroke-miterlimit:1.5;"/>
                    <g transform="matrix(0.878703,0.47737,-0.47737,0.878703,2526.74,-3241.86)">
                        <path d="M7693.29,3322.4L7722.55,3295.96" style="fill:none;stroke:rgb(248,185,162);stroke-width:8.59px;stroke-linecap:round;stroke-miterlimit:1.5;"/>
                    </g>
                    <g transform="matrix(0.741919,0.670489,-0.670489,0.741919,4222.43,-4237.83)">
                        <path d="M7693.29,3322.4L7722.55,3295.96" style="fill:none;stroke:rgb(248,185,162);stroke-width:8.59px;stroke-linecap:round;stroke-miterlimit:1.5;"/>
                    </g>
                    <g transform="matrix(1,0,0,-1,2.41728,6853.09)">
                        <path d="M7693.29,3322.4L7722.55,3295.96" style="fill:none;stroke:rgb(248,185,162);stroke-width:8.59px;stroke-linecap:round;stroke-miterlimit:1.5;"/>
                    </g>
                    <g transform="matrix(0.893011,0.450036,0.450036,-0.893011,-686.725,3043.96)">
                        <path d="M7693.29,3322.4L7722.55,3295.96" style="fill:none;stroke:rgb(248,185,162);stroke-width:8.59px;stroke-linecap:round;stroke-miterlimit:1.5;"/>
                    </g>
                    <g transform="matrix(-0.893011,0.450036,-0.450036,-0.893011,16024.3,3043.96)">
                        <path d="M7693.29,3322.4L7722.55,3295.96" style="fill:none;stroke:rgb(248,185,162);stroke-width:8.59px;stroke-linecap:round;stroke-miterlimit:1.5;"/>
                    </g>
                    <path d="M7717.34,3323.45L7687.33,3338.3" style="fill:none;stroke:rgb(248,185,162);stroke-width:8.59px;stroke-linecap:round;stroke-miterlimit:1.5;"/>
                    <g transform="matrix(0.928538,0.371236,-0.371236,0.928538,1795.73,-2586.4)">
                        <path d="M7717.34,3323.45L7687.33,3338.3" style="fill:none;stroke:rgb(248,185,162);stroke-width:8.59px;stroke-linecap:round;stroke-miterlimit:1.5;"/>
                    </g>
                    <g transform="matrix(0.896259,0.443531,-0.443531,0.896259,2286.96,-2998.07)">
                        <path d="M7717.34,3323.45L7687.33,3338.3" style="fill:none;stroke:rgb(248,185,162);stroke-width:8.59px;stroke-linecap:round;stroke-miterlimit:1.5;"/>
                    </g>
                    <g transform="matrix(1,0,0,-1,0,6848.71)">
                        <path d="M7717.34,3323.45L7687.33,3338.3" style="fill:none;stroke:rgb(248,185,162);stroke-width:8.59px;stroke-linecap:round;stroke-miterlimit:1.5;"/>
                    </g>
                    <g transform="matrix(0.917823,0.39699,0.39699,-0.917823,-699.692,3539.84)">
                        <path d="M7717.34,3323.45L7687.33,3338.3" style="fill:none;stroke:rgb(248,185,162);stroke-width:8.59px;stroke-linecap:round;stroke-miterlimit:1.5;"/>
                    </g>
                    <g transform="matrix(0.928538,-0.371236,-0.371236,-0.928538,1795.73,9435.11)">
                        <path d="M7717.34,3323.45L7687.33,3338.3" style="fill:none;stroke:rgb(248,185,162);stroke-width:8.59px;stroke-linecap:round;stroke-miterlimit:1.5;"/>
                    </g>
                    <g transform="matrix(0.896259,-0.443531,-0.443531,-0.896259,2286.96,9846.78)">
                        <path d="M7717.34,3323.45L7687.33,3338.3" style="fill:none;stroke:rgb(248,185,162);stroke-width:8.59px;stroke-linecap:round;stroke-miterlimit:1.5;"/>
                    </g>
                    <g transform="matrix(-1,0,0,1,15334.2,0)">
                        <path d="M7717.34,3323.45L7687.33,3338.3" style="fill:none;stroke:rgb(248,185,162);stroke-width:8.59px;stroke-linecap:round;stroke-miterlimit:1.5;"/>
                    </g>
                    <g transform="matrix(-0.928538,0.371236,0.371236,0.928538,13538.5,-2586.4)">
                        <path d="M7717.34,3323.45L7687.33,3338.3" style="fill:none;stroke:rgb(248,185,162);stroke-width:8.59px;stroke-linecap:round;stroke-miterlimit:1.5;"/>
                    </g>
                    <g transform="matrix(-0.896259,0.443531,0.443531,0.896259,13047.2,-2998.07)">
                        <path d="M7717.34,3323.45L7687.33,3338.3" style="fill:none;stroke:rgb(248,185,162);stroke-width:8.59px;stroke-linecap:round;stroke-miterlimit:1.5;"/>
                    </g>
                    <g transform="matrix(-1,0,0,-1,15334.2,6848.71)">
                        <path d="M7717.34,3323.45L7687.33,3338.3" style="fill:none;stroke:rgb(248,185,162);stroke-width:8.59px;stroke-linecap:round;stroke-miterlimit:1.5;"/>
                    </g>
                    <g transform="matrix(-0.917823,0.39699,-0.39699,-0.917823,16033.9,3539.84)">
                        <path d="M7717.34,3323.45L7687.33,3338.3" style="fill:none;stroke:rgb(248,185,162);stroke-width:8.59px;stroke-linecap:round;stroke-miterlimit:1.5;"/>
                    </g>
                    <g transform="matrix(-0.443531,0.896259,-0.896259,-0.443531,14070.5,-1876.4)">
                        <path d="M7717.34,3323.45L7687.33,3338.3" style="fill:none;stroke:rgb(248,185,162);stroke-width:8.59px;stroke-linecap:round;stroke-miterlimit:1.5;"/>
                    </g>
                    <g transform="matrix(-0.928538,-0.371236,0.371236,-0.928538,13538.5,9435.11)">
                        <path d="M7717.34,3323.45L7687.33,3338.3" style="fill:none;stroke:rgb(248,185,162);stroke-width:8.59px;stroke-linecap:round;stroke-miterlimit:1.5;"/>
                    </g>
                    <g transform="matrix(-0.896259,-0.443531,0.443531,-0.896259,13047.2,9846.78)">
                        <path d="M7717.34,3323.45L7687.33,3338.3" style="fill:none;stroke:rgb(248,185,162);stroke-width:8.59px;stroke-linecap:round;stroke-miterlimit:1.5;"/>
                    </g>
                    <g transform="matrix(0.878703,-0.47737,-0.47737,-0.878703,2529.16,10094.9)">
                        <path d="M7693.29,3322.4L7722.55,3295.96" style="fill:none;stroke:rgb(248,185,162);stroke-width:8.59px;stroke-linecap:round;stroke-miterlimit:1.5;"/>
                    </g>
                    <g transform="matrix(0.741919,-0.670489,-0.670489,-0.741919,4224.85,11090.9)">
                        <path d="M7693.29,3322.4L7722.55,3295.96" style="fill:none;stroke:rgb(248,185,162);stroke-width:8.59px;stroke-linecap:round;stroke-miterlimit:1.5;"/>
                    </g>
                    <g transform="matrix(0.741919,0.670489,-0.670489,0.741919,4223.62,-4198.66)">
                        <path d="M7693.29,3322.4L7722.55,3295.96" style="fill:none;stroke:rgb(248,185,162);stroke-width:8.59px;stroke-linecap:round;stroke-miterlimit:1.5;"/>
                    </g>
                    <g transform="matrix(-1,0,0,1,15334,0)">
                        <path d="M7693.29,3322.4L7722.55,3295.96" style="fill:none;stroke:rgb(248,185,162);stroke-width:8.59px;stroke-linecap:round;stroke-miterlimit:1.5;"/>
                    </g>
                    <g transform="matrix(-0.878703,0.47737,0.47737,0.878703,12807.2,-3241.86)">
                        <path d="M7693.29,3322.4L7722.55,3295.96" style="fill:none;stroke:rgb(248,185,162);stroke-width:8.59px;stroke-linecap:round;stroke-miterlimit:1.5;"/>
                    </g>
                    <g transform="matrix(-0.741919,0.670489,0.670489,0.741919,11111.5,-4237.83)">
                        <path d="M7693.29,3322.4L7722.55,3295.96" style="fill:none;stroke:rgb(248,185,162);stroke-width:8.59px;stroke-linecap:round;stroke-miterlimit:1.5;"/>
                    </g>
                    <g transform="matrix(-1,0,0,-1,15331.6,6853.09)">
                        <path d="M7693.29,3322.4L7722.55,3295.96" style="fill:none;stroke:rgb(248,185,162);stroke-width:8.59px;stroke-linecap:round;stroke-miterlimit:1.5;"/>
                    </g>
                    <g transform="matrix(-0.878703,-0.47737,0.47737,-0.878703,12804.8,10094.9)">
                        <path d="M7693.29,3322.4L7722.55,3295.96" style="fill:none;stroke:rgb(248,185,162);stroke-width:8.59px;stroke-linecap:round;stroke-miterlimit:1.5;"/>
                    </g>
                    <g transform="matrix(-0.741919,-0.670489,0.670489,-0.741919,11109.1,11090.9)">
                        <path d="M7693.29,3322.4L7722.55,3295.96" style="fill:none;stroke:rgb(248,185,162);stroke-width:8.59px;stroke-linecap:round;stroke-miterlimit:1.5;"/>
                    </g>
                    <g transform="matrix(-0.741919,0.670489,0.670489,0.741919,11110.4,-4198.66)">
                        <path d="M7693.29,3322.4L7722.55,3295.96" style="fill:none;stroke:rgb(248,185,162);stroke-width:8.59px;stroke-linecap:round;stroke-miterlimit:1.5;"/>
                    </g>
                </g>
            </g>
            <g transform="matrix(0.62842,0.313623,-0.313623,0.62842,3806.24,-1041.65)">
                <g transform="matrix(1,0,-0,0.950027,1.52363,174)">
                    <path d="M7684.62,3303.83C7704.66,3309.22 7719.49,3328.37 7719.49,3351.13L7719.49,3510.22C7719.49,3537.17 7698.71,3559.04 7673.11,3559.04L7659.96,3559.04C7634.36,3559.04 7613.57,3537.17 7613.57,3510.22L7613.57,3351.13C7613.57,3330.63 7625.61,3313.06 7642.64,3305.83C7643.24,3307.29 7643.99,3308.7 7644.89,3310.03C7629.23,3316.41 7618.11,3332.41 7618.11,3351.13L7618.11,3510.22C7618.11,3534.53 7636.86,3554.27 7659.96,3554.27L7673.11,3554.27C7696.21,3554.27 7714.96,3534.53 7714.96,3510.22L7714.96,3351.13C7714.96,3330.31 7701.19,3312.83 7682.73,3308.26C7683.51,3306.84 7684.14,3305.35 7684.62,3303.83Z" style="fill:rgb(35,30,30);stroke:rgb(248,185,162);stroke-width:18.74px;"/>
                </g>
                <g transform="matrix(2.43944,-2.43944,2.43944,2.43944,-18323.4,11103.8)">
                    <path d="M6925.01,3721.79C6928.61,3721.79 6931.53,3724.71 6931.53,3728.31C6931.53,3731.91 6928.61,3734.83 6925.01,3734.83C6921.41,3734.83 6918.49,3731.91 6918.49,3728.31C6918.49,3724.71 6921.41,3721.79 6925.01,3721.79ZM6925.01,3723.87C6922.56,3723.87 6920.57,3725.86 6920.57,3728.31C6920.57,3730.76 6922.56,3732.75 6925.01,3732.75C6927.46,3732.75 6929.45,3730.76 6929.45,3728.31C6929.45,3725.86 6927.46,3723.87 6925.01,3723.87Z" style="fill:rgb(35,30,30);stroke:rgb(248,185,162);stroke-width:5.3px;"/>
                </g>
                <g transform="matrix(0.997505,0.070594,-0.070594,0.997505,249.907,-554.327)">
                    <path d="M7666.53,3307.09C7666.45,3282.31 7632.28,3282.21 7630.49,3248.03C7628.7,3213.85 7677.53,3195.56 7677.16,3150.93C7677.16,3150.93 7679.26,3112.82 7641.06,3084.86C7602.86,3056.89 7590.76,2990.9 7666.53,2926.21" style="fill:none;stroke:rgb(248,185,162);stroke-width:12.27px;stroke-linecap:round;stroke-miterlimit:1.5;"/>
                </g>
                <g>
                    <path d="M7693.29,3322.4L7722.55,3295.96" style="fill:none;stroke:rgb(248,185,162);stroke-width:8.59px;stroke-linecap:round;stroke-miterlimit:1.5;"/>
                    <g transform="matrix(0.878703,0.47737,-0.47737,0.878703,2526.74,-3241.86)">
                        <path d="M7693.29,3322.4L7722.55,3295.96" style="fill:none;stroke:rgb(248,185,162);stroke-width:8.59px;stroke-linecap:round;stroke-miterlimit:1.5;"/>
                    </g>
                    <g transform="matrix(0.741919,0.670489,-0.670489,0.741919,4222.43,-4237.83)">
                        <path d="M7693.29,3322.4L7722.55,3295.96" style="fill:none;stroke:rgb(248,185,162);stroke-width:8.59px;stroke-linecap:round;stroke-miterlimit:1.5;"/>
                    </g>
                    <g transform="matrix(1,0,0,-1,2.41728,6853.09)">
                        <path d="M7693.29,3322.4L7722.55,3295.96" style="fill:none;stroke:rgb(248,185,162);stroke-width:8.59px;stroke-linecap:round;stroke-miterlimit:1.5;"/>
                    </g>
                    <g transform="matrix(0.893011,0.450036,0.450036,-0.893011,-686.725,3043.96)">
                        <path d="M7693.29,3322.4L7722.55,3295.96" style="fill:none;stroke:rgb(248,185,162);stroke-width:8.59px;stroke-linecap:round;stroke-miterlimit:1.5;"/>
                    </g>
                    <g transform="matrix(-0.893011,0.450036,-0.450036,-0.893011,16024.3,3043.96)">
                        <path d="M7693.29,3322.4L7722.55,3295.96" style="fill:none;stroke:rgb(248,185,162);stroke-width:8.59px;stroke-linecap:round;stroke-miterlimit:1.5;"/>
                    </g>
                    <path d="M7717.34,3323.45L7687.33,3338.3" style="fill:none;stroke:rgb(248,185,162);stroke-width:8.59px;stroke-linecap:round;stroke-miterlimit:1.5;"/>
                    <g transform="matrix(0.928538,0.371236,-0.371236,0.928538,1795.73,-2586.4)">
                        <path d="M7717.34,3323.45L7687.33,3338.3" style="fill:none;stroke:rgb(248,185,162);stroke-width:8.59px;stroke-linecap:round;stroke-miterlimit:1.5;"/>
                    </g>
                    <g transform="matrix(0.896259,0.443531,-0.443531,0.896259,2286.96,-2998.07)">
                        <path d="M7717.34,3323.45L7687.33,3338.3" style="fill:none;stroke:rgb(248,185,162);stroke-width:8.59px;stroke-linecap:round;stroke-miterlimit:1.5;"/>
                    </g>
                    <g transform="matrix(1,0,0,-1,0,6848.71)">
                        <path d="M7717.34,3323.45L7687.33,3338.3" style="fill:none;stroke:rgb(248,185,162);stroke-width:8.59px;stroke-linecap:round;stroke-miterlimit:1.5;"/>
                    </g>
                    <g transform="matrix(0.917823,0.39699,0.39699,-0.917823,-699.692,3539.84)">
                        <path d="M7717.34,3323.45L7687.33,3338.3" style="fill:none;stroke:rgb(248,185,162);stroke-width:8.59px;stroke-linecap:round;stroke-miterlimit:1.5;"/>
                    </g>
                    <g transform="matrix(0.928538,-0.371236,-0.371236,-0.928538,1795.73,9435.11)">
                        <path d="M7717.34,3323.45L7687.33,3338.3" style="fill:none;stroke:rgb(248,185,162);stroke-width:8.59px;stroke-linecap:round;stroke-miterlimit:1.5;"/>
                    </g>
                    <g transform="matrix(0.896259,-0.443531,-0.443531,-0.896259,2286.96,9846.78)">
                        <path d="M7717.34,3323.45L7687.33,3338.3" style="fill:none;stroke:rgb(248,185,162);stroke-width:8.59px;stroke-linecap:round;stroke-miterlimit:1.5;"/>
                    </g>
                    <g transform="matrix(-1,0,0,1,15334.2,0)">
                        <path d="M7717.34,3323.45L7687.33,3338.3" style="fill:none;stroke:rgb(248,185,162);stroke-width:8.59px;stroke-linecap:round;stroke-miterlimit:1.5;"/>
                    </g>
                    <g transform="matrix(-0.928538,0.371236,0.371236,0.928538,13538.5,-2586.4)">
                        <path d="M7717.34,3323.45L7687.33,3338.3" style="fill:none;stroke:rgb(248,185,162);stroke-width:8.59px;stroke-linecap:round;stroke-miterlimit:1.5;"/>
                    </g>
                    <g transform="matrix(-0.896259,0.443531,0.443531,0.896259,13047.2,-2998.07)">
                        <path d="M7717.34,3323.45L7687.33,3338.3" style="fill:none;stroke:rgb(248,185,162);stroke-width:8.59px;stroke-linecap:round;stroke-miterlimit:1.5;"/>
                    </g>
                    <g transform="matrix(-1,0,0,-1,15334.2,6848.71)">
                        <path d="M7717.34,3323.45L7687.33,3338.3" style="fill:none;stroke:rgb(248,185,162);stroke-width:8.59px;stroke-linecap:round;stroke-miterlimit:1.5;"/>
                    </g>
                    <g transform="matrix(-0.917823,0.39699,-0.39699,-0.917823,16033.9,3539.84)">
                        <path d="M7717.34,3323.45L7687.33,3338.3" style="fill:none;stroke:rgb(248,185,162);stroke-width:8.59px;stroke-linecap:round;stroke-miterlimit:1.5;"/>
                    </g>
                    <g transform="matrix(-0.443531,0.896259,-0.896259,-0.443531,14070.5,-1876.4)">
                        <path d="M7717.34,3323.45L7687.33,3338.3" style="fill:none;stroke:rgb(248,185,162);stroke-width:8.59px;stroke-linecap:round;stroke-miterlimit:1.5;"/>
                    </g>
                    <g transform="matrix(-0.928538,-0.371236,0.371236,-0.928538,13538.5,9435.11)">
                        <path d="M7717.34,3323.45L7687.33,3338.3" style="fill:none;stroke:rgb(248,185,162);stroke-width:8.59px;stroke-linecap:round;stroke-miterlimit:1.5;"/>
                    </g>
                    <g transform="matrix(-0.896259,-0.443531,0.443531,-0.896259,13047.2,9846.78)">
                        <path d="M7717.34,3323.45L7687.33,3338.3" style="fill:none;stroke:rgb(248,185,162);stroke-width:8.59px;stroke-linecap:round;stroke-miterlimit:1.5;"/>
                    </g>
                    <g transform="matrix(0.878703,-0.47737,-0.47737,-0.878703,2529.16,10094.9)">
                        <path d="M7693.29,3322.4L7722.55,3295.96" style="fill:none;stroke:rgb(248,185,162);stroke-width:8.59px;stroke-linecap:round;stroke-miterlimit:1.5;"/>
                    </g>
                    <g transform="matrix(0.741919,-0.670489,-0.670489,-0.741919,4224.85,11090.9)">
                        <path d="M7693.29,3322.4L7722.55,3295.96" style="fill:none;stroke:rgb(248,185,162);stroke-width:8.59px;stroke-linecap:round;stroke-miterlimit:1.5;"/>
                    </g>
                    <g transform="matrix(0.741919,0.670489,-0.670489,0.741919,4223.62,-4198.66)">
                        <path d="M7693.29,3322.4L7722.55,3295.96" style="fill:none;stroke:rgb(248,185,162);stroke-width:8.59px;stroke-linecap:round;stroke-miterlimit:1.5;"/>
                    </g>
                    <g transform="matrix(-1,0,0,1,15334,0)">
                        <path d="M7693.29,3322.4L7722.55,3295.96" style="fill:none;stroke:rgb(248,185,162);stroke-width:8.59px;stroke-linecap:round;stroke-miterlimit:1.5;"/>
                    </g>
                    <g transform="matrix(-0.878703,0.47737,0.47737,0.878703,12807.2,-3241.86)">
                        <path d="M7693.29,3322.4L7722.55,3295.96" style="fill:none;stroke:rgb(248,185,162);stroke-width:8.59px;stroke-linecap:round;stroke-miterlimit:1.5;"/>
                    </g>
                    <g transform="matrix(-0.741919,0.670489,0.670489,0.741919,11111.5,-4237.83)">
                        <path d="M7693.29,3322.4L7722.55,3295.96" style="fill:none;stroke:rgb(248,185,162);stroke-width:8.59px;stroke-linecap:round;stroke-miterlimit:1.5;"/>
                    </g>
                    <g transform="matrix(-1,0,0,-1,15331.6,6853.09)">
                        <path d="M7693.29,3322.4L7722.55,3295.96" style="fill:none;stroke:rgb(248,185,162);stroke-width:8.59px;stroke-linecap:round;stroke-miterlimit:1.5;"/>
                    </g>
                    <g transform="matrix(-0.878703,-0.47737,0.47737,-0.878703,12804.8,10094.9)">
                        <path d="M7693.29,3322.4L7722.55,3295.96" style="fill:none;stroke:rgb(248,185,162);stroke-width:8.59px;stroke-linecap:round;stroke-miterlimit:1.5;"/>
                    </g>
                    <g transform="matrix(-0.741919,-0.670489,0.670489,-0.741919,11109.1,11090.9)">
                        <path d="M7693.29,3322.4L7722.55,3295.96" style="fill:none;stroke:rgb(248,185,162);stroke-width:8.59px;stroke-linecap:round;stroke-miterlimit:1.5;"/>
                    </g>
                    <g transform="matrix(-0.741919,0.670489,0.670489,0.741919,11110.4,-4198.66)">
                        <path d="M7693.29,3322.4L7722.55,3295.96" style="fill:none;stroke:rgb(248,185,162);stroke-width:8.59px;stroke-linecap:round;stroke-miterlimit:1.5;"/>
                    </g>
                </g>
            </g>
            <g transform="matrix(0.002984,0.702326,-0.702326,0.002984,9918.39,-2023.68)">
                <g transform="matrix(1,0,-0,0.950027,1.52363,174)">
                    <path d="M7684.62,3303.83C7704.66,3309.22 7719.49,3328.37 7719.49,3351.13L7719.49,3510.22C7719.49,3537.17 7698.71,3559.04 7673.11,3559.04L7659.96,3559.04C7634.36,3559.04 7613.57,3537.17 7613.57,3510.22L7613.57,3351.13C7613.57,3330.63 7625.61,3313.06 7642.64,3305.83C7643.24,3307.29 7643.99,3308.7 7644.89,3310.03C7629.23,3316.41 7618.11,3332.41 7618.11,3351.13L7618.11,3510.22C7618.11,3534.53 7636.86,3554.27 7659.96,3554.27L7673.11,3554.27C7696.21,3554.27 7714.96,3534.53 7714.96,3510.22L7714.96,3351.13C7714.96,3330.31 7701.19,3312.83 7682.73,3308.26C7683.51,3306.84 7684.14,3305.35 7684.62,3303.83Z" style="fill:rgb(35,30,30);stroke:rgb(248,185,162);stroke-width:18.74px;"/>
                </g>
                <g transform="matrix(2.43944,-2.43944,2.43944,2.43944,-18323.4,11103.8)">
                    <path d="M6925.01,3721.79C6928.61,3721.79 6931.53,3724.71 6931.53,3728.31C6931.53,3731.91 6928.61,3734.83 6925.01,3734.83C6921.41,3734.83 6918.49,3731.91 6918.49,3728.31C6918.49,3724.71 6921.41,3721.79 6925.01,3721.79ZM6925.01,3723.87C6922.56,3723.87 6920.57,3725.86 6920.57,3728.31C6920.57,3730.76 6922.56,3732.75 6925.01,3732.75C6927.46,3732.75 6929.45,3730.76 6929.45,3728.31C6929.45,3725.86 6927.46,3723.87 6925.01,3723.87Z" style="fill:rgb(35,30,30);stroke:rgb(248,185,162);stroke-width:5.3px;"/>
                </g>
                <g transform="matrix(0.997505,0.070594,-0.070594,0.997505,249.907,-554.327)">
                    <path d="M7666.53,3307.09C7666.45,3282.31 7632.28,3282.21 7630.49,3248.03C7628.7,3213.85 7677.53,3195.56 7677.16,3150.93C7677.16,3150.93 7679.26,3112.82 7641.06,3084.86C7602.86,3056.89 7590.76,2990.9 7666.53,2926.21" style="fill:none;stroke:rgb(248,185,162);stroke-width:12.27px;stroke-linecap:round;stroke-miterlimit:1.5;"/>
                </g>
                <g>
                    <path d="M7693.29,3322.4L7722.55,3295.96" style="fill:none;stroke:rgb(248,185,162);stroke-width:8.59px;stroke-linecap:round;stroke-miterlimit:1.5;"/>
                    <g transform="matrix(0.878703,0.47737,-0.47737,0.878703,2526.74,-3241.86)">
                        <path d="M7693.29,3322.4L7722.55,3295.96" style="fill:none;stroke:rgb(248,185,162);stroke-width:8.59px;stroke-linecap:round;stroke-miterlimit:1.5;"/>
                    </g>
                    <g transform="matrix(0.741919,0.670489,-0.670489,0.741919,4222.43,-4237.83)">
                        <path d="M7693.29,3322.4L7722.55,3295.96" style="fill:none;stroke:rgb(248,185,162);stroke-width:8.59px;stroke-linecap:round;stroke-miterlimit:1.5;"/>
                    </g>
                    <g transform="matrix(1,0,0,-1,2.41728,6853.09)">
                        <path d="M7693.29,3322.4L7722.55,3295.96" style="fill:none;stroke:rgb(248,185,162);stroke-width:8.59px;stroke-linecap:round;stroke-miterlimit:1.5;"/>
                    </g>
                    <g transform="matrix(0.893011,0.450036,0.450036,-0.893011,-686.725,3043.96)">
                        <path d="M7693.29,3322.4L7722.55,3295.96" style="fill:none;stroke:rgb(248,185,162);stroke-width:8.59px;stroke-linecap:round;stroke-miterlimit:1.5;"/>
                    </g>
                    <g transform="matrix(-0.893011,0.450036,-0.450036,-0.893011,16024.3,3043.96)">
                        <path d="M7693.29,3322.4L7722.55,3295.96" style="fill:none;stroke:rgb(248,185,162);stroke-width:8.59px;stroke-linecap:round;stroke-miterlimit:1.5;"/>
                    </g>
                    <path d="M7717.34,3323.45L7687.33,3338.3" style="fill:none;stroke:rgb(248,185,162);stroke-width:8.59px;stroke-linecap:round;stroke-miterlimit:1.5;"/>
                    <g transform="matrix(0.928538,0.371236,-0.371236,0.928538,1795.73,-2586.4)">
                        <path d="M7717.34,3323.45L7687.33,3338.3" style="fill:none;stroke:rgb(248,185,162);stroke-width:8.59px;stroke-linecap:round;stroke-miterlimit:1.5;"/>
                    </g>
                    <g transform="matrix(0.896259,0.443531,-0.443531,0.896259,2286.96,-2998.07)">
                        <path d="M7717.34,3323.45L7687.33,3338.3" style="fill:none;stroke:rgb(248,185,162);stroke-width:8.59px;stroke-linecap:round;stroke-miterlimit:1.5;"/>
                    </g>
                    <g transform="matrix(1,0,0,-1,0,6848.71)">
                        <path d="M7717.34,3323.45L7687.33,3338.3" style="fill:none;stroke:rgb(248,185,162);stroke-width:8.59px;stroke-linecap:round;stroke-miterlimit:1.5;"/>
                    </g>
                    <g transform="matrix(0.917823,0.39699,0.39699,-0.917823,-699.692,3539.84)">
                        <path d="M7717.34,3323.45L7687.33,3338.3" style="fill:none;stroke:rgb(248,185,162);stroke-width:8.59px;stroke-linecap:round;stroke-miterlimit:1.5;"/>
                    </g>
                    <g transform="matrix(0.928538,-0.371236,-0.371236,-0.928538,1795.73,9435.11)">
                        <path d="M7717.34,3323.45L7687.33,3338.3" style="fill:none;stroke:rgb(248,185,162);stroke-width:8.59px;stroke-linecap:round;stroke-miterlimit:1.5;"/>
                    </g>
                    <g transform="matrix(0.896259,-0.443531,-0.443531,-0.896259,2286.96,9846.78)">
                        <path d="M7717.34,3323.45L7687.33,3338.3" style="fill:none;stroke:rgb(248,185,162);stroke-width:8.59px;stroke-linecap:round;stroke-miterlimit:1.5;"/>
                    </g>
                    <g transform="matrix(-1,0,0,1,15334.2,0)">
                        <path d="M7717.34,3323.45L7687.33,3338.3" style="fill:none;stroke:rgb(248,185,162);stroke-width:8.59px;stroke-linecap:round;stroke-miterlimit:1.5;"/>
                    </g>
                    <g transform="matrix(-0.928538,0.371236,0.371236,0.928538,13538.5,-2586.4)">
                        <path d="M7717.34,3323.45L7687.33,3338.3" style="fill:none;stroke:rgb(248,185,162);stroke-width:8.59px;stroke-linecap:round;stroke-miterlimit:1.5;"/>
                    </g>
                    <g transform="matrix(-0.896259,0.443531,0.443531,0.896259,13047.2,-2998.07)">
                        <path d="M7717.34,3323.45L7687.33,3338.3" style="fill:none;stroke:rgb(248,185,162);stroke-width:8.59px;stroke-linecap:round;stroke-miterlimit:1.5;"/>
                    </g>
                    <g transform="matrix(-1,0,0,-1,15334.2,6848.71)">
                        <path d="M7717.34,3323.45L7687.33,3338.3" style="fill:none;stroke:rgb(248,185,162);stroke-width:8.59px;stroke-linecap:round;stroke-miterlimit:1.5;"/>
                    </g>
                    <g transform="matrix(-0.917823,0.39699,-0.39699,-0.917823,16033.9,3539.84)">
                        <path d="M7717.34,3323.45L7687.33,3338.3" style="fill:none;stroke:rgb(248,185,162);stroke-width:8.59px;stroke-linecap:round;stroke-miterlimit:1.5;"/>
                    </g>
                    <g transform="matrix(-0.443531,0.896259,-0.896259,-0.443531,14070.5,-1876.4)">
                        <path d="M7717.34,3323.45L7687.33,3338.3" style="fill:none;stroke:rgb(248,185,162);stroke-width:8.59px;stroke-linecap:round;stroke-miterlimit:1.5;"/>
                    </g>
                    <g transform="matrix(-0.928538,-0.371236,0.371236,-0.928538,13538.5,9435.11)">
                        <path d="M7717.34,3323.45L7687.33,3338.3" style="fill:none;stroke:rgb(248,185,162);stroke-width:8.59px;stroke-linecap:round;stroke-miterlimit:1.5;"/>
                    </g>
                    <g transform="matrix(-0.896259,-0.443531,0.443531,-0.896259,13047.2,9846.78)">
                        <path d="M7717.34,3323.45L7687.33,3338.3" style="fill:none;stroke:rgb(248,185,162);stroke-width:8.59px;stroke-linecap:round;stroke-miterlimit:1.5;"/>
                    </g>
                    <g transform="matrix(0.878703,-0.47737,-0.47737,-0.878703,2529.16,10094.9)">
                        <path d="M7693.29,3322.4L7722.55,3295.96" style="fill:none;stroke:rgb(248,185,162);stroke-width:8.59px;stroke-linecap:round;stroke-miterlimit:1.5;"/>
                    </g>
                    <g transform="matrix(0.741919,-0.670489,-0.670489,-0.741919,4224.85,11090.9)">
                        <path d="M7693.29,3322.4L7722.55,3295.96" style="fill:none;stroke:rgb(248,185,162);stroke-width:8.59px;stroke-linecap:round;stroke-miterlimit:1.5;"/>
                    </g>
                    <g transform="matrix(0.741919,0.670489,-0.670489,0.741919,4223.62,-4198.66)">
                        <path d="M7693.29,3322.4L7722.55,3295.96" style="fill:none;stroke:rgb(248,185,162);stroke-width:8.59px;stroke-linecap:round;stroke-miterlimit:1.5;"/>
                    </g>
                    <g transform="matrix(-1,0,0,1,15334,0)">
                        <path d="M7693.29,3322.4L7722.55,3295.96" style="fill:none;stroke:rgb(248,185,162);stroke-width:8.59px;stroke-linecap:round;stroke-miterlimit:1.5;"/>
                    </g>
                    <g transform="matrix(-0.878703,0.47737,0.47737,0.878703,12807.2,-3241.86)">
                        <path d="M7693.29,3322.4L7722.55,3295.96" style="fill:none;stroke:rgb(248,185,162);stroke-width:8.59px;stroke-linecap:round;stroke-miterlimit:1.5;"/>
                    </g>
                    <g transform="matrix(-0.741919,0.670489,0.670489,0.741919,11111.5,-4237.83)">
                        <path d="M7693.29,3322.4L7722.55,3295.96" style="fill:none;stroke:rgb(248,185,162);stroke-width:8.59px;stroke-linecap:round;stroke-miterlimit:1.5;"/>
                    </g>
                    <g transform="matrix(-1,0,0,-1,15331.6,6853.09)">
                        <path d="M7693.29,3322.4L7722.55,3295.96" style="fill:none;stroke:rgb(248,185,162);stroke-width:8.59px;stroke-linecap:round;stroke-miterlimit:1.5;"/>
                    </g>
                    <g transform="matrix(-0.878703,-0.47737,0.47737,-0.878703,12804.8,10094.9)">
                        <path d="M7693.29,3322.4L7722.55,3295.96" style="fill:none;stroke:rgb(248,185,162);stroke-width:8.59px;stroke-linecap:round;stroke-miterlimit:1.5;"/>
                    </g>
                    <g transform="matrix(-0.741919,-0.670489,0.670489,-0.741919,11109.1,11090.9)">
                        <path d="M7693.29,3322.4L7722.55,3295.96" style="fill:none;stroke:rgb(248,185,162);stroke-width:8.59px;stroke-linecap:round;stroke-miterlimit:1.5;"/>
                    </g>
                    <g transform="matrix(-0.741919,0.670489,0.670489,0.741919,11110.4,-4198.66)">
                        <path d="M7693.29,3322.4L7722.55,3295.96" style="fill:none;stroke:rgb(248,185,162);stroke-width:8.59px;stroke-linecap:round;stroke-miterlimit:1.5;"/>
                    </g>
                </g>
            </g>
        </g>
    </g>
</svg>
