<?xml version="1.0" encoding="UTF-8" standalone="no"?>
<!DOCTYPE svg PUBLIC "-//W3C//DTD SVG 1.1//EN" "http://www.w3.org/Graphics/SVG/1.1/DTD/svg11.dtd">
<svg width="100%" height="100%" viewBox="0 0 314 290" version="1.1" xmlns="http://www.w3.org/2000/svg" xmlns:xlink="http://www.w3.org/1999/xlink" xml:space="preserve" xmlns:serif="http://www.serif.com/" style="fill-rule:evenodd;clip-rule:evenodd;stroke-linecap:round;stroke-linejoin:round;stroke-miterlimit:1.5;">
    <g transform="matrix(1,0,0,1,-10160.787836,-1003.711141)">
        <g transform="matrix(1.5,-0,0,1.5,-9629.715968,-432.032245)">
            <g id="CHARNIA" transform="matrix(0.953748,0,0,0.761567,6727.897746,-1992.691376)">
                <g>
                    <clipPath id="_clip1">
                        <path d="M6849.726,4107.493L6749.086,4107.493L6749.086,3886.43L6839.962,3886.43L6839.838,3886.899C6839.806,3887.114 6839.797,3887.353 6839.817,3887.614C6839.851,3888.053 6839.991,3888.595 6840.199,3889.182C6840.096,3889.185 6839.999,3889.197 6839.908,3889.217C6839.771,3889.247 6839.643,3889.292 6839.524,3889.351L6839.151,3889.609L6838.829,3890.002L6838.605,3890.498C6838.466,3890.939 6838.418,3891.537 6838.587,3892.302C6838.732,3892.958 6838.935,3893.688 6839.187,3894.44C6838.986,3894.314 6838.799,3894.225 6838.626,3894.168C6838.048,3893.974 6837.563,3894.07 6837.162,3894.333C6836.782,3894.583 6836.465,3895.003 6836.242,3895.585C6836.004,3896.206 6835.87,3897.048 6835.863,3898.001C6835.855,3899.174 6836.214,3900.619 6836.864,3902.068C6836.913,3902.177 6836.963,3902.285 6837.015,3902.394C6836.317,3901.892 6835.83,3901.483 6835.497,3901.245C6835.167,3901.01 6834.909,3900.901 6834.727,3900.872L6834.393,3900.875L6834.127,3900.969L6833.82,3901.216L6833.613,3901.531L6833.466,3901.982C6833.438,3902.12 6833.418,3902.294 6833.412,3902.508C6833.398,3902.982 6833.46,3903.794 6833.536,3905.042C6833.64,3906.769 6834.108,3908.466 6834.829,3910.067C6834.306,3909.843 6833.868,3909.877 6833.513,3910.078L6833.234,3910.283L6833.004,3910.547C6832.845,3910.767 6832.699,3911.066 6832.586,3911.471C6832.407,3912.112 6832.295,3913.138 6832.267,3914.655C6832.212,3917.62 6833.071,3920.467 6834.179,3922.833C6833.734,3922.613 6833.323,3922.474 6832.955,3922.416C6832.116,3922.284 6831.438,3922.532 6830.94,3923.072C6830.253,3923.816 6829.832,3925.328 6830.182,3927.795C6830.58,3930.602 6831.479,3934.805 6833.177,3938.739C6833.004,3938.625 6832.839,3938.526 6832.683,3938.444C6831.917,3938.038 6831.289,3937.994 6830.815,3938.178C6830.227,3938.406 6829.763,3938.956 6829.539,3939.98C6829.339,3940.893 6829.348,3942.359 6829.635,3944.439C6830.072,3947.597 6831.136,3952.823 6833.268,3957.355C6832.744,3957.017 6832.293,3956.767 6831.913,3956.63C6831.07,3956.327 6830.437,3956.493 6829.974,3956.97C6829.677,3957.276 6829.424,3957.747 6829.278,3958.46C6829.136,3959.153 6829.086,3960.164 6829.146,3961.559C6829.288,3964.829 6830.204,3969.912 6832.239,3974.389C6832.13,3974.35 6832.024,3974.316 6831.92,3974.288C6831.224,3974.101 6830.618,3974.16 6830.123,3974.413C6828.998,3974.988 6828.208,3976.747 6828.655,3980.118C6829.118,3983.604 6830.051,3988.871 6832.131,3993.386C6831.599,3993.31 6831.128,3993.395 6830.728,3993.613C6830.176,3993.913 6829.73,3994.463 6829.451,3995.321C6829.147,3996.256 6829.047,3997.658 6829.289,3999.577C6829.777,4003.433 6830.778,4009.342 6833.05,4014.262C6832.618,4014.262 6832.223,4014.38 6831.872,4014.599C6831.291,4014.962 6830.808,4015.614 6830.504,4016.602C6830.152,4017.741 6830.036,4019.418 6830.308,4021.633C6830.851,4026.054 6832.801,4032.447 6835.968,4037.988L6835.8,4038.065L6835.53,4038.288C6834.678,4039.192 6834.238,4040.818 6834.278,4042.896C6834.355,4046.92 6836.165,4052.824 6838.532,4056.929C6841.565,4062.19 6847.931,4073.061 6855.78,4082.887C6857.979,4085.64 6859.195,4088.814 6859.753,4092.01L6858.322,4104.976C6856.777,4104.949 6854.631,4105.063 6852.749,4105.69C6851.591,4106.077 6850.535,4106.666 6849.726,4107.493ZM6872.876,3886.43L6955.534,3886.43L6955.534,3895.554C6955.258,3895.564 6955.04,3895.639 6954.873,3895.74L6954.589,3895.967L6954.358,3896.282L6954.184,3896.707L6954.097,3897.304C6954.089,3897.578 6954.135,3897.921 6954.219,3898.312C6953.787,3898.2 6953.441,3898.157 6953.168,3898.167C6952.928,3898.175 6952.727,3898.22 6952.559,3898.286L6952.257,3898.446L6951.977,3898.694L6951.767,3898.988L6951.619,3899.319L6951.506,3899.817C6951.489,3899.96 6951.483,3900.112 6951.488,3900.273C6951.497,3900.575 6951.562,3900.933 6951.66,3901.325C6950.806,3901.036 6950.184,3900.999 6949.751,3901.096C6949.5,3901.153 6949.291,3901.254 6949.117,3901.38L6948.835,3901.639L6948.604,3901.967C6948.366,3902.392 6948.255,3902.948 6948.308,3903.607C6948.331,3903.891 6948.389,3904.204 6948.474,3904.534C6948.397,3904.528 6948.321,3904.524 6948.247,3904.525C6947.471,3904.53 6946.854,3904.907 6946.497,3905.533C6946.249,3905.968 6946.102,3906.547 6946.172,3907.301C6946.236,3907.996 6946.372,3908.781 6946.574,3909.583C6945.6,3908.838 6944.754,3908.817 6944.095,3909.136C6943.196,3909.572 6942.505,3910.772 6942.21,3912.333C6941.996,3913.46 6942.167,3914.846 6942.688,3916.239C6942.755,3916.417 6942.828,3916.596 6942.906,3916.775C6941.592,3915.981 6940.88,3915.365 6940.472,3915.185L6940.071,3915.074L6939.709,3915.102L6939.383,3915.256L6939.115,3915.515L6938.896,3915.892C6938.84,3916.024 6938.787,3916.189 6938.742,3916.394C6938.648,3916.828 6938.584,3917.57 6938.463,3918.714C6938.285,3920.393 6938.566,3922.047 6939.175,3923.603C6938.495,3923.213 6937.924,3923.15 6937.438,3923.355C6937.054,3923.518 6936.688,3923.849 6936.368,3924.458C6936.06,3925.043 6935.769,3925.973 6935.487,3927.359C6934.914,3930.174 6935.456,3932.876 6936.364,3935.103C6935.739,3934.777 6935.152,3934.578 6934.622,3934.509C6933.816,3934.404 6933.117,3934.584 6932.55,3935.013C6931.656,3935.69 6931.019,3937.043 6931.007,3939.286C6930.993,3941.98 6930.94,3945.695 6932.024,3949.149C6931.697,3948.966 6931.394,3948.834 6931.117,3948.752C6930.214,3948.487 6929.496,3948.687 6928.936,3949.251C6928.218,3949.974 6927.713,3951.574 6927.687,3954.304C6927.66,3957.205 6928.138,3961.726 6929.898,3965.696C6929.644,3965.567 6929.409,3965.465 6929.192,3965.396C6928.433,3965.152 6927.818,3965.247 6927.308,3965.631C6926.638,3966.135 6926.067,3967.339 6925.764,3969.708C6925.468,3972.029 6925.167,3975.34 6925.568,3978.592C6925.77,3980.227 6926.148,3981.845 6926.778,3983.329C6925.954,3983.239 6925.235,3983.454 6924.675,3983.952C6923.85,3984.685 6923.252,3986.082 6923.209,3988.329C6923.166,3990.553 6922.811,3993.512 6923.046,3996.393C6923.18,3998.044 6923.501,3999.667 6924.142,4001.141C6923.867,4001.158 6923.608,4001.217 6923.368,4001.317C6922.148,4001.824 6921.2,4003.366 6921.12,4006.344C6921.022,4009.979 6921.673,4016.235 6923.658,4021.205C6923.149,4021.143 6922.669,4021.222 6922.235,4021.428C6920.928,4022.051 6919.854,4023.923 6919.749,4027.22C6919.635,4030.779 6921.656,4038.316 6924.359,4043.95C6923.697,4043.769 6923.147,4043.877 6922.724,4044.191C6921.563,4045.053 6921.063,4046.587 6921.138,4048.555C6921.275,4052.156 6923.491,4057.446 6925.461,4061.147C6927.998,4065.915 6930.503,4070.877 6937.689,4079.782C6940.343,4083.071 6941.097,4086.704 6940.831,4090.08L6938.131,4097.496C6936.667,4097.488 6934.716,4097.608 6932.947,4098.143C6931.367,4098.621 6929.936,4099.442 6929.015,4100.699C6928.037,4102.033 6928.438,4103.854 6930.599,4105.238C6931.893,4106.067 6933.881,4106.857 6936.188,4107.493L6925.3,4107.493C6924.966,4107.241 6924.546,4107.244 6924.216,4107.493L6884.731,4107.493C6883.989,4106.683 6883.052,4106.108 6882.038,4105.725C6880.492,4105.139 6878.773,4104.994 6877.455,4104.996L6875.351,4096.93C6875.184,4093.033 6875.987,4088.806 6878.605,4084.992C6885.371,4075.138 6887.799,4069.647 6890.249,4064.371C6892.131,4060.316 6894.301,4054.53 6894.556,4050.584C6894.692,4048.474 6894.276,4046.826 6893.3,4045.902C6892.911,4045.534 6892.404,4045.382 6891.785,4045.547C6894.44,4039.341 6896.569,4030.927 6896.6,4026.974C6896.616,4024.964 6896.347,4023.445 6895.922,4022.411C6895.565,4021.542 6895.089,4020.968 6894.557,4020.65C6894.172,4020.418 6893.735,4020.318 6893.266,4020.369C6895.271,4014.882 6896.102,4007.881 6896.15,4003.84C6896.189,4000.598 6895.338,3998.912 6894.282,3998.359C6894.06,3998.243 6893.817,3998.172 6893.556,3998.149C6894.236,3996.489 6894.605,3994.643 6894.793,3992.764C6895.109,3989.588 6894.901,3986.326 6894.945,3983.874C6895.002,3980.741 6894.146,3979.117 6893.063,3978.583C6892.715,3978.412 6892.315,3978.346 6891.875,3978.393C6892.276,3977.376 6892.588,3976.297 6892.826,3975.188C6893.731,3970.981 6893.566,3966.351 6893.353,3963.287C6893.257,3961.909 6893.101,3960.913 6892.89,3960.229C6892.688,3959.571 6892.42,3959.136 6892.126,3958.854C6891.628,3958.376 6891.013,3958.248 6890.237,3958.551C6890.085,3958.61 6889.923,3958.691 6889.75,3958.789C6891.506,3954.407 6892.116,3949.379 6892.199,3946.168C6892.253,3944.099 6892.103,3942.645 6891.802,3941.738C6891.492,3940.799 6891.014,3940.29 6890.451,3940.081C6889.953,3939.895 6889.335,3939.952 6888.608,3940.361L6888.481,3940.435C6889.603,3936.621 6889.697,3932.501 6889.785,3929.524C6889.856,3927.121 6889.32,3925.66 6888.57,3924.934C6888.032,3924.415 6887.354,3924.196 6886.56,3924.324C6886.124,3924.394 6885.64,3924.579 6885.123,3924.88C6886.028,3922.449 6886.629,3919.483 6886.224,3916.388C6886.028,3914.887 6885.807,3913.875 6885.559,3913.242C6885.283,3912.537 6884.936,3912.163 6884.583,3911.975C6884.156,3911.748 6883.66,3911.755 6883.083,3912.085L6883.049,3912.105C6883.654,3910.412 6883.971,3908.609 6883.876,3906.771C6883.811,3905.525 6883.783,3904.715 6883.716,3904.242C6883.687,3904.036 6883.649,3903.87 6883.608,3903.737L6883.434,3903.339L6883.232,3903.076L6882.948,3902.868L6882.639,3902.774L6882.369,3902.781C6882.18,3902.812 6881.922,3902.925 6881.602,3903.174C6881.256,3903.443 6880.739,3903.929 6879.954,3904.52C6880.045,3904.293 6880.129,3904.064 6880.205,3903.836C6880.698,3902.372 6880.9,3900.917 6880.758,3899.733C6880.621,3898.587 6880.316,3897.608 6879.9,3896.975C6879.508,3896.38 6879.016,3896.039 6878.451,3895.984C6878.03,3895.943 6877.521,3896.08 6876.955,3896.518C6877.163,3895.647 6877.312,3894.793 6877.394,3894.038C6877.526,3892.824 6877.194,3892.046 6876.728,3891.587C6876.385,3891.249 6875.922,3891.065 6875.392,3891.087C6875.559,3890.433 6875.655,3889.827 6875.638,3889.342C6875.622,3888.882 6875.523,3888.49 6875.362,3888.174L6875.127,3887.814L6874.824,3887.53C6874.419,3887.237 6873.73,3887.097 6872.681,3887.479C6872.775,3887.094 6872.845,3886.739 6872.876,3886.43Z"/>
                    </clipPath>
                    <g clip-path="url(#_clip1)">
                        <g transform="matrix(0.264169,0,-0.017962,0.243133,5057.681099,2971.609064)">
                            <g transform="matrix(1,0,0,1,-2.883852,0.076179)">
                                <path d="M7355.935,4561.082C7362.8,4560.728 7376.807,4561.255 7381.991,4571.004C7387.175,4580.754 7354.379,4593.623 7330.361,4592.891C7286.372,4591.551 7262.793,4580.678 7268.794,4570.928C7274.795,4561.179 7291.008,4560.652 7298.955,4561.006" style="fill:none;stroke:rgb(248,185,162);stroke-width:12.61px;"/>
                            </g>
                            <g transform="matrix(1.291099,0,0,1.928704,-2134.937794,-4235.444203)">
                                <path d="M7378.948,4579.13C7370.352,4586.637 7347.991,4593.428 7330.361,4592.891C7296.426,4591.857 7274.638,4585.15 7269.206,4577.662" style="fill:none;stroke:rgb(248,185,162);stroke-width:8.51px;"/>
                            </g>
                            <path d="M7291.765,4574.792C7300.856,4562.403 7314.51,4514.749 7290.198,4483.219C7265.885,4451.689 7246.429,4416.803 7237.165,4399.922C7227.262,4381.88 7221.033,4352.611 7228.499,4344.921C7234.095,4339.157 7269.222,4393.281 7285.829,4414.518C7291.893,4422.273 7301.06,4436.124 7308.972,4450.168" style="fill:none;stroke:rgb(248,185,162);stroke-width:12.61px;"/>
                            <path d="M7321.198,4414.856C7319.732,4402.381 7312.784,4381.865 7306.967,4369.501C7301.15,4357.136 7239.622,4286.718 7231.271,4275.921C7221.032,4262.683 7212.285,4266.736 7214.277,4287.68C7215.948,4305.255 7224.478,4332.791 7239.107,4352.147" style="fill:none;stroke:rgb(248,185,162);stroke-width:12.61px;"/>
                            <g transform="matrix(1,0,0,1,-3.026472,-69.52793)">
                                <path d="M7321.471,4411.619C7319.797,4397.874 7314.558,4381.736 7306.967,4369.501C7299.377,4357.265 7241.213,4285.274 7231.271,4275.921C7221.329,4266.568 7214.253,4268.449 7215.987,4286.019C7217.72,4303.588 7222.297,4335.047 7238.438,4350.161" style="fill:none;stroke:rgb(248,185,162);stroke-width:12.61px;"/>
                            </g>
                            <g transform="matrix(0.998697,0,0,0.938799,6.086435,129.956181)">
                                <path d="M7321.243,4416.912C7318.699,4406.652 7311.48,4374.143 7296.963,4352.972C7278.289,4325.739 7239.037,4283.227 7231.271,4275.921C7221.329,4266.568 7214.253,4268.449 7215.987,4286.019C7217.72,4303.588 7222.297,4335.047 7238.438,4350.161" style="fill:none;stroke:rgb(248,185,162);stroke-width:12.88px;"/>
                            </g>
                            <g transform="matrix(0.992784,0.074732,0,0.852007,55.105355,-152.475818)">
                                <path d="M7312.86,4397.246C7310.739,4376.484 7303.676,4359.702 7292.287,4340.863C7280.898,4322.024 7247.114,4293.344 7231.271,4275.921C7218.815,4262.223 7213.784,4263.001 7215.987,4286.019C7217.668,4303.593 7223.414,4338.9 7239.555,4354.014" style="fill:none;stroke:rgb(248,185,162);stroke-width:12.98px;"/>
                            </g>
                            <g transform="matrix(0.998697,0,0,0.938799,9.354994,70.489517)">
                                <path d="M7317.408,4393.912C7315.35,4382.893 7309.087,4369.508 7297.001,4349.86C7284.915,4330.211 7240.668,4287.654 7230.379,4279.453C7219.705,4270.945 7215.728,4268.366 7215.987,4286.019C7216.235,4302.975 7221.962,4334.909 7238.438,4350.161" style="fill:none;stroke:rgb(248,185,162);stroke-width:12.88px;"/>
                            </g>
                            <g transform="matrix(0.992784,0.074732,0,0.852007,58.354563,-206.200191)">
                                <path d="M7307.708,4381.338C7304.834,4365.772 7296.296,4348.573 7285.982,4334.011C7275.668,4319.448 7237.826,4282.088 7231.271,4275.921C7221.329,4266.568 7214.253,4268.449 7215.987,4286.019C7217.72,4303.588 7223.681,4336.267 7239.823,4351.381" style="fill:none;stroke:rgb(248,185,162);stroke-width:12.98px;"/>
                            </g>
                            <path d="M7245.362,3983.845C7239.919,3977.742 7229.342,3961.201 7230.178,3943.141C7231.013,3925.08 7234.406,3931.304 7245.191,3940.563C7255.976,3949.823 7273.471,3960.598 7284.203,3972.967C7294.935,3985.335 7308.774,4000.795 7310.933,4016.734" style="fill:none;stroke:rgb(248,185,162);stroke-width:12.61px;"/>
                            <path d="M7253.371,3947.07C7243.769,3938.227 7235.579,3925.373 7235.135,3911.744C7234.69,3898.114 7234.073,3901.501 7243.966,3908.23C7253.858,3914.96 7266.039,3921.746 7281.664,3935.45C7294.772,3946.946 7312.411,3961.961 7314.039,3975.875" style="fill:none;stroke:rgb(248,185,162);stroke-width:12.61px;"/>
                            <path d="M7257.204,3916.537C7249.384,3910.091 7242.991,3897.452 7243.274,3889.345C7243.558,3881.239 7246.859,3876.141 7254.012,3885.385C7261.164,3894.63 7269.722,3898.427 7274.839,3902.268C7279.956,3906.108 7300.684,3921.091 7304.344,3928.047" style="fill:none;stroke:rgb(248,185,162);stroke-width:12.61px;"/>
                            <path d="M7262.163,3892.662C7257.524,3887.434 7253.884,3877.118 7252.492,3869.903C7251.1,3862.688 7257.754,3863.395 7262.502,3869.07C7267.251,3874.744 7278.045,3878.442 7285.302,3885.758C7292.559,3893.074 7303.354,3899.519 7306.503,3904.589" style="fill:none;stroke:rgb(248,185,162);stroke-width:12.61px;"/>
                            <path d="M7260.979,3866.744C7256.879,3858.586 7253.367,3848.673 7263.899,3853.461C7274.43,3858.25 7292.272,3873.126 7298.904,3879.055" style="fill:none;stroke:rgb(248,185,162);stroke-width:12.61px;"/>
                            <path d="M7268.02,3854.242C7264.824,3845.973 7261.352,3838.402 7272.518,3843.644C7283.685,3848.886 7288.217,3854.792 7295.767,3860.643" style="fill:none;stroke:rgb(248,185,162);stroke-width:12.61px;"/>
                            <path d="M7274.424,3844.399C7270.753,3835.152 7267.915,3827.827 7279.979,3836.305C7292.044,3844.783 7295.304,3845.869 7299,3850.988" style="fill:none;stroke:rgb(248,185,162);stroke-width:12.61px;"/>
                            <path d="M7283.368,3836.967C7279.984,3828.739 7281.801,3820.464 7292.773,3833.678C7303.745,3846.892 7302.903,3846.929 7302.903,3846.929" style="fill:none;stroke:rgb(248,185,162);stroke-width:12.61px;"/>
                            <g transform="matrix(-1,0,0.056848,1,14394.553164,7.037297)">
                                <path d="M7294.352,4566.902C7303.443,4554.513 7314.51,4514.749 7290.198,4483.219C7265.885,4451.689 7256.631,4434.12 7247.367,4417.239C7237.464,4399.197 7224.642,4370.236 7232.108,4362.546C7237.704,4356.782 7265.217,4394.245 7281.825,4415.483C7287.889,4423.237 7302.764,4441.287 7313.756,4456.847" style="fill:none;stroke:rgb(248,185,162);stroke-width:11.97px;"/>
                            </g>
                            <g transform="matrix(-0.882469,0,0.051633,0.90826,13566.677436,411.131989)">
                                <path d="M7317.693,4388.322C7314.017,4381.434 7309.481,4374.845 7306.967,4369.501C7301.15,4357.136 7239.622,4286.718 7231.271,4275.921C7221.032,4262.683 7212.285,4266.736 7214.277,4287.68C7215.948,4305.255 7232.294,4348.425 7246.922,4367.781" style="fill:none;stroke:rgb(248,185,162);stroke-width:13.43px;"/>
                            </g>
                            <g transform="matrix(-0.914459,0,0.053143,0.934836,13793.253479,224.060044)">
                                <path d="M7319.539,4390.189C7315.872,4382.826 7310.59,4375.341 7306.967,4369.501C7299.377,4357.265 7241.213,4285.274 7231.271,4275.921C7221.329,4266.568 7214.253,4268.449 7215.987,4286.019C7217.72,4303.588 7225.319,4337.999 7239.135,4356.012" style="fill:none;stroke:rgb(248,185,162);stroke-width:12.99px;"/>
                            </g>
                            <g transform="matrix(-0.924847,0,0.050523,0.888738,13877.317017,357.180018)">
                                <path d="M7322.656,4393.639C7320.112,4383.378 7299.877,4359.829 7285.36,4338.658C7266.686,4311.425 7239.037,4283.227 7231.271,4275.921C7221.329,4266.568 7214.253,4268.449 7215.987,4286.019C7217.72,4303.588 7216.84,4332.754 7232.982,4347.869" style="fill:none;stroke:rgb(248,185,162);stroke-width:13.12px;"/>
                            </g>
                            <g transform="matrix(-0.988536,0.074732,0.048435,0.852007,14340.347077,-146.364511)">
                                <path d="M7310.473,4369.461C7305.534,4357.045 7297.113,4346.583 7288.998,4333.16C7277.609,4314.321 7247.114,4293.344 7231.271,4275.921C7218.815,4262.223 7213.784,4263.001 7215.987,4286.019C7217.668,4303.593 7224.107,4336.224 7240.248,4351.338" style="fill:none;stroke:rgb(248,185,162);stroke-width:12.34px;"/>
                            </g>
                            <g transform="matrix(-0.958833,0,0.053369,0.938799,14107.072572,76.600823)">
                                <path d="M7308.374,4369.816C7305.37,4363.93 7301.609,4357.35 7297.001,4349.86C7284.915,4330.211 7240.668,4287.654 7230.379,4279.453C7219.705,4270.945 7215.728,4268.366 7215.987,4286.019C7216.235,4302.975 7218.018,4334.372 7234.494,4349.624" style="fill:none;stroke:rgb(248,185,162);stroke-width:12.58px;"/>
                            </g>
                            <g transform="matrix(-0.988536,0.074732,0.048435,0.852007,14334.043753,-200.088884)">
                                <path d="M7298.416,4352.102C7294.514,4345.954 7290.155,4339.902 7285.982,4334.011C7275.668,4319.448 7237.826,4282.088 7231.271,4275.921C7221.329,4266.568 7214.253,4268.449 7215.987,4286.019C7217.72,4303.588 7220.024,4332.571 7236.166,4347.685" style="fill:none;stroke:rgb(248,185,162);stroke-width:12.34px;"/>
                            </g>
                            <g transform="matrix(-1,0,0.056848,1,14404.120358,6.111307)">
                                <path d="M7245.362,3983.845C7239.919,3977.742 7229.342,3961.201 7230.178,3943.141C7231.013,3925.08 7234.406,3931.304 7245.191,3940.563C7255.976,3949.823 7273.471,3960.598 7284.203,3972.967C7294.935,3985.335 7308.774,4000.795 7310.933,4016.734" style="fill:none;stroke:rgb(248,185,162);stroke-width:11.97px;"/>
                            </g>
                            <g transform="matrix(-1,0,0.056848,1,14404.120358,6.111307)">
                                <path d="M7253.371,3947.07C7243.769,3938.227 7235.579,3925.373 7235.135,3911.744C7234.69,3898.114 7234.073,3901.501 7243.966,3908.23C7253.858,3914.96 7266.039,3921.746 7281.664,3935.45C7288.659,3941.585 7296.945,3948.722 7303.399,3956.159" style="fill:none;stroke:rgb(248,185,162);stroke-width:11.97px;"/>
                            </g>
                            <g transform="matrix(-1,0,0.056848,1,14404.120358,6.111307)">
                                <path d="M7257.204,3916.537C7249.384,3910.091 7242.991,3897.452 7243.274,3889.345C7243.558,3881.239 7246.859,3876.141 7254.012,3885.385C7261.164,3894.63 7269.722,3898.427 7274.839,3902.268C7279.956,3906.108 7300.684,3921.091 7304.344,3928.047" style="fill:none;stroke:rgb(248,185,162);stroke-width:11.97px;"/>
                            </g>
                            <g transform="matrix(-1,0,0.056848,1,14404.120358,6.111307)">
                                <path d="M7262.163,3892.662C7257.524,3887.434 7253.884,3877.118 7252.492,3869.903C7251.1,3862.688 7257.754,3863.395 7262.502,3869.07C7267.251,3874.744 7278.045,3878.442 7285.302,3885.758C7292.559,3893.074 7303.354,3899.519 7306.503,3904.589" style="fill:none;stroke:rgb(248,185,162);stroke-width:11.97px;"/>
                            </g>
                            <g transform="matrix(-1,0,0.056848,1,14404.120358,6.111307)">
                                <path d="M7260.979,3866.744C7256.879,3858.586 7253.367,3848.673 7263.899,3853.461C7274.43,3858.25 7296.467,3880.722 7303.099,3886.651" style="fill:none;stroke:rgb(248,185,162);stroke-width:11.97px;"/>
                            </g>
                            <g transform="matrix(-1,0,0.056848,1,14404.120358,6.111307)">
                                <path d="M7268.02,3854.242C7264.824,3845.973 7261.352,3838.402 7272.518,3843.644C7283.685,3848.886 7302.025,3868.275 7306.031,3873.437" style="fill:none;stroke:rgb(248,185,162);stroke-width:11.97px;"/>
                            </g>
                            <g transform="matrix(-1,0,0.056848,1,14404.120358,6.111307)">
                                <path d="M7274.424,3844.399C7270.753,3835.152 7267.915,3827.827 7279.979,3836.305C7292.044,3844.783 7306.613,3854.851 7310.309,3859.97" style="fill:none;stroke:rgb(248,185,162);stroke-width:11.97px;"/>
                            </g>
                            <g transform="matrix(-1,0,0.056848,1,14404.120358,6.111307)">
                                <path d="M7287.388,3841.367C7279.573,3831.558 7276.18,3812.206 7294.928,3830.444C7288.862,3817.393 7291.607,3809.232 7303.265,3825.51C7297.739,3810.37 7307.6,3804.782 7316.315,3834.263" style="fill:none;stroke:rgb(248,185,162);stroke-width:11.97px;"/>
                            </g>
                            <path d="M7291.801,3830.997C7288.03,3820.191 7291.908,3809.071 7302.173,3832.803C7299.343,3817.835 7305.719,3806.814 7308.539,3825.159" style="fill:none;stroke:rgb(248,185,162);stroke-width:12.61px;"/>
                            <path d="M7312.621,3850.807L7326.764,3837.494" style="fill:none;stroke:rgb(248,185,162);stroke-width:12.61px;"/>
                            <path d="M7312.025,3840.484L7318.925,3831.315" style="fill:none;stroke:rgb(248,185,162);stroke-width:12.61px;"/>
                        </g>
                        <g transform="matrix(-0.231537,0,0.025398,0.202341,8394.992999,3143.347639)">
                            <g transform="matrix(1,0,0,1,-2.883852,0.076179)">
                                <path d="M7355.935,4561.082C7362.8,4560.728 7376.807,4561.255 7381.991,4571.004C7387.175,4580.754 7354.379,4593.623 7330.361,4592.891C7286.372,4591.551 7262.793,4580.678 7268.794,4570.928C7274.795,4561.179 7291.008,4560.652 7298.955,4561.006" style="fill:none;stroke:rgb(248,185,162);stroke-width:15.09px;"/>
                            </g>
                            <g transform="matrix(1.291099,0,0,1.928704,-2134.937794,-4235.444203)">
                                <path d="M7378.948,4579.13C7370.352,4586.637 7347.991,4593.428 7330.361,4592.891C7296.426,4591.857 7274.638,4585.15 7269.206,4577.662" style="fill:none;stroke:rgb(248,185,162);stroke-width:10.31px;"/>
                            </g>
                            <path d="M7291.765,4574.792C7300.856,4562.403 7314.51,4514.749 7290.198,4483.219C7265.885,4451.689 7246.429,4416.803 7237.165,4399.922C7227.262,4381.88 7221.033,4352.611 7228.499,4344.921C7234.095,4339.157 7269.222,4393.281 7285.829,4414.518C7291.893,4422.273 7301.06,4436.124 7308.972,4450.168" style="fill:none;stroke:rgb(248,185,162);stroke-width:15.09px;"/>
                            <path d="M7321.198,4414.856C7319.732,4402.381 7312.784,4381.865 7306.967,4369.501C7301.15,4357.136 7239.622,4286.718 7231.271,4275.921C7221.032,4262.683 7212.285,4266.736 7214.277,4287.68C7215.948,4305.255 7224.478,4332.791 7239.107,4352.147" style="fill:none;stroke:rgb(248,185,162);stroke-width:15.09px;"/>
                            <g transform="matrix(1,0,0,1,-3.026472,-69.52793)">
                                <path d="M7321.471,4411.619C7319.797,4397.874 7314.558,4381.736 7306.967,4369.501C7299.377,4357.265 7241.213,4285.274 7231.271,4275.921C7221.329,4266.568 7214.253,4268.449 7215.987,4286.019C7217.72,4303.588 7222.297,4335.047 7238.438,4350.161" style="fill:none;stroke:rgb(248,185,162);stroke-width:15.09px;"/>
                            </g>
                            <g transform="matrix(0.998697,0,0,0.938799,6.086435,129.956181)">
                                <path d="M7321.243,4416.912C7318.699,4406.652 7311.48,4374.143 7296.963,4352.972C7278.289,4325.739 7239.037,4283.227 7231.271,4275.921C7221.329,4266.568 7214.253,4268.449 7215.987,4286.019C7217.72,4303.588 7222.297,4335.047 7238.438,4350.161" style="fill:none;stroke:rgb(248,185,162);stroke-width:15.38px;"/>
                            </g>
                            <g transform="matrix(0.992784,0.074732,0,0.852007,55.105355,-152.475818)">
                                <path d="M7312.86,4397.246C7310.739,4376.484 7303.676,4359.702 7292.287,4340.863C7280.898,4322.024 7247.114,4293.344 7231.271,4275.921C7218.815,4262.223 7213.784,4263.001 7215.987,4286.019C7217.668,4303.593 7223.414,4338.9 7239.555,4354.014" style="fill:none;stroke:rgb(248,185,162);stroke-width:15.51px;"/>
                            </g>
                            <g transform="matrix(0.998697,0,0,0.938799,9.354994,70.489517)">
                                <path d="M7317.408,4393.912C7315.35,4382.893 7309.087,4369.508 7297.001,4349.86C7284.915,4330.211 7240.668,4287.654 7230.379,4279.453C7219.705,4270.945 7215.728,4268.366 7215.987,4286.019C7216.235,4302.975 7221.962,4334.909 7238.438,4350.161" style="fill:none;stroke:rgb(248,185,162);stroke-width:15.38px;"/>
                            </g>
                            <g transform="matrix(0.992784,0.074732,0,0.852007,58.354563,-206.200191)">
                                <path d="M7307.708,4381.338C7304.834,4365.772 7296.296,4348.573 7285.982,4334.011C7275.668,4319.448 7237.826,4282.088 7231.271,4275.921C7221.329,4266.568 7214.253,4268.449 7215.987,4286.019C7217.72,4303.588 7223.681,4336.267 7239.823,4351.381" style="fill:none;stroke:rgb(248,185,162);stroke-width:15.51px;"/>
                            </g>
                            <path d="M7245.362,3983.845C7239.919,3977.742 7229.342,3961.201 7230.178,3943.141C7231.013,3925.08 7234.406,3931.304 7245.191,3940.563C7255.976,3949.823 7273.471,3960.598 7284.203,3972.967C7294.935,3985.335 7308.774,4000.795 7310.933,4016.734" style="fill:none;stroke:rgb(248,185,162);stroke-width:15.09px;"/>
                            <path d="M7253.371,3947.07C7243.769,3938.227 7235.579,3925.373 7235.135,3911.744C7234.69,3898.114 7234.073,3901.501 7243.966,3908.23C7253.858,3914.96 7266.039,3921.746 7281.664,3935.45C7294.772,3946.946 7312.411,3961.961 7314.039,3975.875" style="fill:none;stroke:rgb(248,185,162);stroke-width:15.09px;"/>
                            <path d="M7257.204,3916.537C7249.384,3910.091 7242.991,3897.452 7243.274,3889.345C7243.558,3881.239 7246.859,3876.141 7254.012,3885.385C7261.164,3894.63 7269.722,3898.427 7274.839,3902.268C7279.956,3906.108 7300.684,3921.091 7304.344,3928.047" style="fill:none;stroke:rgb(248,185,162);stroke-width:15.09px;"/>
                            <path d="M7262.163,3892.662C7257.524,3887.434 7253.884,3877.118 7252.492,3869.903C7251.1,3862.688 7257.754,3863.395 7262.502,3869.07C7267.251,3874.744 7278.045,3878.442 7285.302,3885.758C7292.559,3893.074 7303.354,3899.519 7306.503,3904.589" style="fill:none;stroke:rgb(248,185,162);stroke-width:15.09px;"/>
                            <path d="M7260.979,3866.744C7256.879,3858.586 7253.367,3848.673 7263.899,3853.461C7274.43,3858.25 7292.272,3873.126 7298.904,3879.055" style="fill:none;stroke:rgb(248,185,162);stroke-width:15.09px;"/>
                            <path d="M7268.02,3854.242C7264.824,3845.973 7261.352,3838.402 7272.518,3843.644C7283.685,3848.886 7288.217,3854.792 7295.767,3860.643" style="fill:none;stroke:rgb(248,185,162);stroke-width:15.09px;"/>
                            <path d="M7274.424,3844.399C7270.753,3835.152 7267.915,3827.827 7279.979,3836.305C7292.044,3844.783 7295.304,3845.869 7299,3850.988" style="fill:none;stroke:rgb(248,185,162);stroke-width:15.09px;"/>
                            <path d="M7283.368,3836.967C7279.984,3828.739 7281.801,3820.464 7292.773,3833.678C7303.745,3846.892 7302.903,3846.929 7302.903,3846.929" style="fill:none;stroke:rgb(248,185,162);stroke-width:15.09px;"/>
                            <g transform="matrix(-1,0,0.056848,1,14394.553164,7.037297)">
                                <path d="M7294.352,4566.902C7303.443,4554.513 7314.51,4514.749 7290.198,4483.219C7265.885,4451.689 7256.631,4434.12 7247.367,4417.239C7237.464,4399.197 7224.642,4370.236 7232.108,4362.546C7237.704,4356.782 7265.217,4394.245 7281.825,4415.483C7287.889,4423.237 7302.764,4441.287 7313.756,4456.847" style="fill:none;stroke:rgb(248,185,162);stroke-width:13.52px;"/>
                            </g>
                            <g transform="matrix(-0.882469,0,0.051633,0.90826,13566.677436,411.131989)">
                                <path d="M7317.693,4388.322C7314.017,4381.434 7309.481,4374.845 7306.967,4369.501C7301.15,4357.136 7239.622,4286.718 7231.271,4275.921C7221.032,4262.683 7212.285,4266.736 7214.277,4287.68C7215.948,4305.255 7232.294,4348.425 7246.922,4367.781" style="fill:none;stroke:rgb(248,185,162);stroke-width:15.16px;"/>
                            </g>
                            <g transform="matrix(-0.914459,0,0.053143,0.934836,13793.253479,224.060044)">
                                <path d="M7319.539,4390.189C7315.872,4382.826 7310.59,4375.341 7306.967,4369.501C7299.377,4357.265 7241.213,4285.274 7231.271,4275.921C7221.329,4266.568 7214.253,4268.449 7215.987,4286.019C7217.72,4303.588 7225.319,4337.999 7239.135,4356.012" style="fill:none;stroke:rgb(248,185,162);stroke-width:14.67px;"/>
                            </g>
                            <g transform="matrix(-0.924847,0,0.050523,0.888738,13877.317017,357.180018)">
                                <path d="M7322.656,4393.639C7320.112,4383.378 7299.877,4359.829 7285.36,4338.658C7266.686,4311.425 7239.037,4283.227 7231.271,4275.921C7221.329,4266.568 7214.253,4268.449 7215.987,4286.019C7217.72,4303.588 7216.84,4332.754 7232.982,4347.869" style="fill:none;stroke:rgb(248,185,162);stroke-width:14.81px;"/>
                            </g>
                            <g transform="matrix(-0.988536,0.074732,0.048435,0.852007,14340.347077,-146.364511)">
                                <path d="M7310.473,4369.461C7305.534,4357.045 7297.113,4346.583 7288.998,4333.16C7277.609,4314.321 7247.114,4293.344 7231.271,4275.921C7218.815,4262.223 7213.784,4263.001 7215.987,4286.019C7217.668,4303.593 7224.107,4336.224 7240.248,4351.338" style="fill:none;stroke:rgb(248,185,162);stroke-width:13.92px;"/>
                            </g>
                            <g transform="matrix(-0.958833,0,0.053369,0.938799,14107.072572,76.600823)">
                                <path d="M7308.374,4369.816C7305.37,4363.93 7301.609,4357.35 7297.001,4349.86C7284.915,4330.211 7240.668,4287.654 7230.379,4279.453C7219.705,4270.945 7215.728,4268.366 7215.987,4286.019C7216.235,4302.975 7218.018,4334.372 7234.494,4349.624" style="fill:none;stroke:rgb(248,185,162);stroke-width:14.2px;"/>
                            </g>
                            <g transform="matrix(-0.988536,0.074732,0.048435,0.852007,14334.043753,-200.088884)">
                                <path d="M7298.416,4352.102C7294.514,4345.954 7290.155,4339.902 7285.982,4334.011C7275.668,4319.448 7237.826,4282.088 7231.271,4275.921C7221.329,4266.568 7214.253,4268.449 7215.987,4286.019C7217.72,4303.588 7220.024,4332.571 7236.166,4347.685" style="fill:none;stroke:rgb(248,185,162);stroke-width:13.92px;"/>
                            </g>
                            <g transform="matrix(-1,0,0.056848,1,14404.120358,6.111307)">
                                <path d="M7245.362,3983.845C7239.919,3977.742 7229.342,3961.201 7230.178,3943.141C7231.013,3925.08 7234.406,3931.304 7245.191,3940.563C7255.976,3949.823 7273.471,3960.598 7284.203,3972.967C7294.935,3985.335 7308.774,4000.795 7310.933,4016.734" style="fill:none;stroke:rgb(248,185,162);stroke-width:13.52px;"/>
                            </g>
                            <g transform="matrix(-1,0,0.056848,1,14404.120358,6.111307)">
                                <path d="M7253.371,3947.07C7243.769,3938.227 7235.579,3925.373 7235.135,3911.744C7234.69,3898.114 7234.073,3901.501 7243.966,3908.23C7253.858,3914.96 7266.039,3921.746 7281.664,3935.45C7288.659,3941.585 7296.945,3948.722 7303.399,3956.159" style="fill:none;stroke:rgb(248,185,162);stroke-width:13.52px;"/>
                            </g>
                            <g transform="matrix(-1,0,0.056848,1,14404.120358,6.111307)">
                                <path d="M7257.204,3916.537C7249.384,3910.091 7242.991,3897.452 7243.274,3889.345C7243.558,3881.239 7246.859,3876.141 7254.012,3885.385C7261.164,3894.63 7269.722,3898.427 7274.839,3902.268C7279.956,3906.108 7300.684,3921.091 7304.344,3928.047" style="fill:none;stroke:rgb(248,185,162);stroke-width:13.52px;"/>
                            </g>
                            <g transform="matrix(-1,0,0.056848,1,14404.120358,6.111307)">
                                <path d="M7262.163,3892.662C7257.524,3887.434 7253.884,3877.118 7252.492,3869.903C7251.1,3862.688 7257.754,3863.395 7262.502,3869.07C7267.251,3874.744 7278.045,3878.442 7285.302,3885.758C7292.559,3893.074 7303.354,3899.519 7306.503,3904.589" style="fill:none;stroke:rgb(248,185,162);stroke-width:13.52px;"/>
                            </g>
                            <g transform="matrix(-1,0,0.056848,1,14404.120358,6.111307)">
                                <path d="M7260.979,3866.744C7256.879,3858.586 7253.367,3848.673 7263.899,3853.461C7274.43,3858.25 7296.467,3880.722 7303.099,3886.651" style="fill:none;stroke:rgb(248,185,162);stroke-width:13.52px;"/>
                            </g>
                            <g transform="matrix(-1,0,0.056848,1,14404.120358,6.111307)">
                                <path d="M7268.02,3854.242C7264.824,3845.973 7261.352,3838.402 7272.518,3843.644C7283.685,3848.886 7302.025,3868.275 7306.031,3873.437" style="fill:none;stroke:rgb(248,185,162);stroke-width:13.52px;"/>
                            </g>
                            <g transform="matrix(-1,0,0.056848,1,14404.120358,6.111307)">
                                <path d="M7274.424,3844.399C7270.753,3835.152 7267.915,3827.827 7279.979,3836.305C7292.044,3844.783 7306.613,3854.851 7310.309,3859.97" style="fill:none;stroke:rgb(248,185,162);stroke-width:13.52px;"/>
                            </g>
                            <g transform="matrix(-1,0,0.056848,1,14404.120358,6.111307)">
                                <path d="M7287.388,3841.367C7279.573,3831.558 7276.18,3812.206 7294.928,3830.444C7288.862,3817.393 7291.607,3809.232 7303.265,3825.51C7297.739,3810.37 7307.6,3804.782 7316.315,3834.263" style="fill:none;stroke:rgb(248,185,162);stroke-width:13.52px;"/>
                            </g>
                            <path d="M7291.801,3830.997C7288.03,3820.191 7291.908,3809.071 7302.173,3832.803C7299.343,3817.835 7305.719,3806.814 7308.539,3825.159" style="fill:none;stroke:rgb(248,185,162);stroke-width:15.09px;"/>
                            <path d="M7312.621,3850.807L7326.764,3837.494" style="fill:none;stroke:rgb(248,185,162);stroke-width:15.09px;"/>
                            <path d="M7312.025,3840.484L7318.925,3831.315" style="fill:none;stroke:rgb(248,185,162);stroke-width:15.09px;"/>
                        </g>
                    </g>
                </g>
                <g transform="matrix(0.309894,0,0.008585,0.309894,4558.771937,2692.727948)">
                    <g transform="matrix(1,0,0,1,-2.883852,0.076179)">
                        <path d="M7355.935,4561.082C7362.8,4560.728 7376.807,4561.255 7381.991,4571.004C7387.175,4580.754 7354.379,4593.623 7330.361,4592.891C7286.372,4591.551 7262.793,4580.678 7268.794,4570.928C7274.795,4561.179 7291.008,4560.652 7298.955,4561.006" style="fill:none;stroke:rgb(248,185,162);stroke-width:9.8px;"/>
                    </g>
                    <g transform="matrix(1.291099,0,0,1.928704,-2134.937794,-4235.444203)">
                        <path d="M7378.948,4579.13C7370.352,4586.637 7347.991,4593.428 7330.361,4592.891C7296.426,4591.857 7274.638,4585.15 7269.206,4577.662" style="fill:none;stroke:rgb(248,185,162);stroke-width:6.5px;"/>
                    </g>
                    <path d="M7291.765,4574.792C7300.856,4562.403 7314.51,4514.749 7290.198,4483.219C7265.885,4451.689 7246.429,4416.803 7237.165,4399.922C7227.262,4381.88 7221.033,4352.611 7228.499,4344.921C7234.095,4339.157 7269.222,4393.281 7285.829,4414.518C7291.893,4422.273 7301.06,4436.124 7308.972,4450.168" style="fill:none;stroke:rgb(248,185,162);stroke-width:9.8px;"/>
                    <path d="M7321.198,4414.856C7319.732,4402.381 7312.784,4381.865 7306.967,4369.501C7301.15,4357.136 7239.622,4286.718 7231.271,4275.921C7221.032,4262.683 7212.285,4266.736 7214.277,4287.68C7215.948,4305.255 7224.478,4332.791 7239.107,4352.147" style="fill:none;stroke:rgb(248,185,162);stroke-width:9.8px;"/>
                    <g transform="matrix(1,0,0,1,-3.026472,-69.52793)">
                        <path d="M7321.471,4411.619C7319.797,4397.874 7314.558,4381.736 7306.967,4369.501C7299.377,4357.265 7241.213,4285.274 7231.271,4275.921C7221.329,4266.568 7214.253,4268.449 7215.987,4286.019C7217.72,4303.588 7222.297,4335.047 7238.438,4350.161" style="fill:none;stroke:rgb(248,185,162);stroke-width:9.8px;"/>
                    </g>
                    <g transform="matrix(0.998697,0,0,0.938799,6.086435,129.956181)">
                        <path d="M7321.243,4416.912C7318.699,4406.652 7311.48,4374.143 7296.963,4352.972C7278.289,4325.739 7239.037,4283.227 7231.271,4275.921C7221.329,4266.568 7214.253,4268.449 7215.987,4286.019C7217.72,4303.588 7222.297,4335.047 7238.438,4350.161" style="fill:none;stroke:rgb(248,185,162);stroke-width:10.05px;"/>
                    </g>
                    <g transform="matrix(0.992784,0.074732,0,0.852007,55.105355,-152.475818)">
                        <path d="M7312.86,4397.246C7310.739,4376.484 7303.676,4359.702 7292.287,4340.863C7280.898,4322.024 7247.114,4293.344 7231.271,4275.921C7218.815,4262.223 7213.784,4263.001 7215.987,4286.019C7217.668,4303.593 7223.414,4338.9 7239.555,4354.014" style="fill:none;stroke:rgb(248,185,162);stroke-width:10.13px;"/>
                    </g>
                    <g transform="matrix(0.998697,0,0,0.938799,9.354994,70.489517)">
                        <path d="M7317.408,4393.912C7315.35,4382.893 7309.087,4369.508 7297.001,4349.86C7284.915,4330.211 7240.668,4287.654 7230.379,4279.453C7219.705,4270.945 7215.728,4268.366 7215.987,4286.019C7216.235,4302.975 7221.962,4334.909 7238.438,4350.161" style="fill:none;stroke:rgb(248,185,162);stroke-width:10.05px;"/>
                    </g>
                    <g transform="matrix(0.992784,0.074732,0,0.852007,58.354563,-206.200191)">
                        <path d="M7307.708,4381.338C7304.834,4365.772 7296.296,4348.573 7285.982,4334.011C7275.668,4319.448 7237.826,4282.088 7231.271,4275.921C7221.329,4266.568 7214.253,4268.449 7215.987,4286.019C7217.72,4303.588 7223.681,4336.267 7239.823,4351.381" style="fill:none;stroke:rgb(248,185,162);stroke-width:10.13px;"/>
                    </g>
                    <path d="M7245.362,3983.845C7239.919,3977.742 7229.342,3961.201 7230.178,3943.141C7231.013,3925.08 7234.406,3931.304 7245.191,3940.563C7255.976,3949.823 7273.471,3960.598 7284.203,3972.967C7294.935,3985.335 7308.774,4000.795 7310.933,4016.734" style="fill:none;stroke:rgb(248,185,162);stroke-width:9.8px;"/>
                    <path d="M7253.371,3947.07C7243.769,3938.227 7235.579,3925.373 7235.135,3911.744C7234.69,3898.114 7234.073,3901.501 7243.966,3908.23C7253.858,3914.96 7266.039,3921.746 7281.664,3935.45C7294.772,3946.946 7312.411,3961.961 7314.039,3975.875" style="fill:none;stroke:rgb(248,185,162);stroke-width:9.8px;"/>
                    <path d="M7257.204,3916.537C7249.384,3910.091 7242.991,3897.452 7243.274,3889.345C7243.558,3881.239 7246.859,3876.141 7254.012,3885.385C7261.164,3894.63 7269.722,3898.427 7274.839,3902.268C7279.956,3906.108 7300.684,3921.091 7304.344,3928.047" style="fill:none;stroke:rgb(248,185,162);stroke-width:9.8px;"/>
                    <path d="M7262.163,3892.662C7257.524,3887.434 7253.884,3877.118 7252.492,3869.903C7251.1,3862.688 7257.754,3863.395 7262.502,3869.07C7267.251,3874.744 7278.045,3878.442 7285.302,3885.758C7292.559,3893.074 7303.354,3899.519 7306.503,3904.589" style="fill:none;stroke:rgb(248,185,162);stroke-width:9.8px;"/>
                    <path d="M7260.979,3866.744C7256.879,3858.586 7253.367,3848.673 7263.899,3853.461C7274.43,3858.25 7292.272,3873.126 7298.904,3879.055" style="fill:none;stroke:rgb(248,185,162);stroke-width:9.8px;"/>
                    <path d="M7268.02,3854.242C7264.824,3845.973 7261.352,3838.402 7272.518,3843.644C7283.685,3848.886 7288.217,3854.792 7295.767,3860.643" style="fill:none;stroke:rgb(248,185,162);stroke-width:9.8px;"/>
                    <path d="M7274.424,3844.399C7270.753,3835.152 7267.915,3827.827 7279.979,3836.305C7292.044,3844.783 7295.304,3845.869 7299,3850.988" style="fill:none;stroke:rgb(248,185,162);stroke-width:9.8px;"/>
                    <path d="M7283.368,3836.967C7279.984,3828.739 7281.801,3820.464 7292.773,3833.678C7303.745,3846.892 7302.903,3846.929 7302.903,3846.929" style="fill:none;stroke:rgb(248,185,162);stroke-width:9.8px;"/>
                    <g transform="matrix(-1,0,0.056848,1,14394.553164,7.037297)">
                        <path d="M7294.352,4566.902C7303.443,4554.513 7314.51,4514.749 7290.198,4483.219C7265.885,4451.689 7256.631,4434.12 7247.367,4417.239C7237.464,4399.197 7224.642,4370.236 7232.108,4362.546C7237.704,4356.782 7265.217,4394.245 7281.825,4415.483C7287.889,4423.237 7302.764,4441.287 7313.756,4456.847" style="fill:none;stroke:rgb(248,185,162);stroke-width:10.5px;"/>
                    </g>
                    <g transform="matrix(-0.882469,0,0.051633,0.90826,13566.677436,411.131989)">
                        <path d="M7317.693,4388.322C7314.017,4381.434 7309.481,4374.845 7306.967,4369.501C7301.15,4357.136 7239.622,4286.718 7231.271,4275.921C7221.032,4262.683 7212.285,4266.736 7214.277,4287.68C7215.948,4305.255 7232.294,4348.425 7246.922,4367.781" style="fill:none;stroke:rgb(248,185,162);stroke-width:11.77px;"/>
                    </g>
                    <g transform="matrix(-0.914459,0,0.053143,0.934836,13793.253479,224.060044)">
                        <path d="M7319.539,4390.189C7315.872,4382.826 7310.59,4375.341 7306.967,4369.501C7299.377,4357.265 7241.213,4285.274 7231.271,4275.921C7221.329,4266.568 7214.253,4268.449 7215.987,4286.019C7217.72,4303.588 7225.319,4337.999 7239.135,4356.012" style="fill:none;stroke:rgb(248,185,162);stroke-width:11.39px;"/>
                    </g>
                    <g transform="matrix(-0.924847,0,0.050523,0.888738,13877.317017,357.180018)">
                        <path d="M7322.656,4393.639C7320.112,4383.378 7299.877,4359.829 7285.36,4338.658C7266.686,4311.425 7239.037,4283.227 7231.271,4275.921C7221.329,4266.568 7214.253,4268.449 7215.987,4286.019C7217.72,4303.588 7216.84,4332.754 7232.982,4347.869" style="fill:none;stroke:rgb(248,185,162);stroke-width:11.52px;"/>
                    </g>
                    <g transform="matrix(-0.988536,0.074732,0.048435,0.852007,14340.347077,-146.364511)">
                        <path d="M7310.473,4369.461C7305.534,4357.045 7297.113,4346.583 7288.998,4333.16C7277.609,4314.321 7247.114,4293.344 7231.271,4275.921C7218.815,4262.223 7213.784,4263.001 7215.987,4286.019C7217.668,4303.593 7224.107,4336.224 7240.248,4351.338" style="fill:none;stroke:rgb(248,185,162);stroke-width:10.84px;"/>
                    </g>
                    <g transform="matrix(-0.958833,0,0.053369,0.938799,14107.072572,76.600823)">
                        <path d="M7308.374,4369.816C7305.37,4363.93 7301.609,4357.35 7297.001,4349.86C7284.915,4330.211 7240.668,4287.654 7230.379,4279.453C7219.705,4270.945 7215.728,4268.366 7215.987,4286.019C7216.235,4302.975 7218.018,4334.372 7234.494,4349.624" style="fill:none;stroke:rgb(248,185,162);stroke-width:11.04px;"/>
                    </g>
                    <g transform="matrix(-0.988536,0.074732,0.048435,0.852007,14334.043753,-200.088884)">
                        <path d="M7298.416,4352.102C7294.514,4345.954 7290.155,4339.902 7285.982,4334.011C7275.668,4319.448 7237.826,4282.088 7231.271,4275.921C7221.329,4266.568 7214.253,4268.449 7215.987,4286.019C7217.72,4303.588 7220.024,4332.571 7236.166,4347.685" style="fill:none;stroke:rgb(248,185,162);stroke-width:10.84px;"/>
                    </g>
                    <g transform="matrix(-1,0,0.056848,1,14404.120358,6.111307)">
                        <path d="M7245.362,3983.845C7239.919,3977.742 7229.342,3961.201 7230.178,3943.141C7231.013,3925.08 7234.406,3931.304 7245.191,3940.563C7255.976,3949.823 7273.471,3960.598 7284.203,3972.967C7294.935,3985.335 7308.774,4000.795 7310.933,4016.734" style="fill:none;stroke:rgb(248,185,162);stroke-width:10.5px;"/>
                    </g>
                    <g transform="matrix(-1,0,0.056848,1,14404.120358,6.111307)">
                        <path d="M7253.371,3947.07C7243.769,3938.227 7235.579,3925.373 7235.135,3911.744C7234.69,3898.114 7234.073,3901.501 7243.966,3908.23C7253.858,3914.96 7266.039,3921.746 7281.664,3935.45C7288.659,3941.585 7296.945,3948.722 7303.399,3956.159" style="fill:none;stroke:rgb(248,185,162);stroke-width:10.5px;"/>
                    </g>
                    <g transform="matrix(-1,0,0.056848,1,14404.120358,6.111307)">
                        <path d="M7257.204,3916.537C7249.384,3910.091 7242.991,3897.452 7243.274,3889.345C7243.558,3881.239 7246.859,3876.141 7254.012,3885.385C7261.164,3894.63 7269.722,3898.427 7274.839,3902.268C7279.956,3906.108 7300.684,3921.091 7304.344,3928.047" style="fill:none;stroke:rgb(248,185,162);stroke-width:10.5px;"/>
                    </g>
                    <g transform="matrix(-1,0,0.056848,1,14404.120358,6.111307)">
                        <path d="M7262.163,3892.662C7257.524,3887.434 7253.884,3877.118 7252.492,3869.903C7251.1,3862.688 7257.754,3863.395 7262.502,3869.07C7267.251,3874.744 7278.045,3878.442 7285.302,3885.758C7292.559,3893.074 7303.354,3899.519 7306.503,3904.589" style="fill:none;stroke:rgb(248,185,162);stroke-width:10.5px;"/>
                    </g>
                    <g transform="matrix(-1,0,0.056848,1,14404.120358,6.111307)">
                        <path d="M7260.979,3866.744C7256.879,3858.586 7253.367,3848.673 7263.899,3853.461C7274.43,3858.25 7296.467,3880.722 7303.099,3886.651" style="fill:none;stroke:rgb(248,185,162);stroke-width:10.5px;"/>
                    </g>
                    <g transform="matrix(-1,0,0.056848,1,14404.120358,6.111307)">
                        <path d="M7268.02,3854.242C7264.824,3845.973 7261.352,3838.402 7272.518,3843.644C7283.685,3848.886 7302.025,3868.275 7306.031,3873.437" style="fill:none;stroke:rgb(248,185,162);stroke-width:10.5px;"/>
                    </g>
                    <g transform="matrix(-1,0,0.056848,1,14404.120358,6.111307)">
                        <path d="M7274.424,3844.399C7270.753,3835.152 7267.915,3827.827 7279.979,3836.305C7292.044,3844.783 7306.613,3854.851 7310.309,3859.97" style="fill:none;stroke:rgb(248,185,162);stroke-width:10.5px;"/>
                    </g>
                    <g transform="matrix(-1,0,0.056848,1,14404.120358,6.111307)">
                        <path d="M7287.388,3841.367C7279.573,3831.558 7276.18,3812.206 7294.928,3830.444C7288.862,3817.393 7291.607,3809.232 7303.265,3825.51C7297.739,3810.37 7307.6,3804.782 7316.315,3834.263" style="fill:none;stroke:rgb(248,185,162);stroke-width:10.5px;"/>
                    </g>
                    <path d="M7291.801,3830.997C7288.03,3820.191 7291.908,3809.071 7302.173,3832.803C7299.343,3817.835 7305.719,3806.814 7308.539,3825.159" style="fill:none;stroke:rgb(248,185,162);stroke-width:9.8px;"/>
                    <path d="M7312.621,3850.807L7326.764,3837.494" style="fill:none;stroke:rgb(248,185,162);stroke-width:9.8px;"/>
                    <path d="M7312.025,3840.484L7318.925,3831.315" style="fill:none;stroke:rgb(248,185,162);stroke-width:9.8px;"/>
                    <g transform="matrix(-1.115467,0,-0.093523,0.902454,16183.666975,420.961671)">
                        <g transform="matrix(1,0,0,1,-2.883852,0.076179)">
                            <path d="M7355.935,4561.082C7362.8,4560.728 7376.807,4561.255 7381.991,4571.004C7387.175,4580.754 7354.379,4593.623 7330.361,4592.891C7286.372,4591.551 7262.793,4580.678 7268.794,4570.928C7274.795,4561.179 7291.008,4560.652 7298.955,4561.006" style="fill:none;stroke:rgb(248,185,162);stroke-width:9.2px;"/>
                        </g>
                        <g transform="matrix(1.291099,0,0,1.928704,-2134.937794,-4235.444203)">
                            <path d="M7378.948,4579.13C7370.352,4586.637 7347.991,4593.428 7330.361,4592.891C7296.426,4591.857 7274.638,4585.15 7269.206,4577.662" style="fill:none;stroke:rgb(248,185,162);stroke-width:6.33px;"/>
                        </g>
                        <path d="M7291.765,4574.792C7300.856,4562.403 7314.51,4514.749 7290.198,4483.219C7265.885,4451.689 7246.429,4416.803 7237.165,4399.922C7227.262,4381.88 7221.033,4352.611 7228.499,4344.921C7234.095,4339.157 7269.222,4393.281 7285.829,4414.518C7291.893,4422.273 7301.06,4436.124 7308.972,4450.168" style="fill:none;stroke:rgb(248,185,162);stroke-width:9.2px;"/>
                        <path d="M7321.198,4414.856C7319.732,4402.381 7312.784,4381.865 7306.967,4369.501C7301.15,4357.136 7239.622,4286.718 7231.271,4275.921C7221.032,4262.683 7212.285,4266.736 7214.277,4287.68C7215.948,4305.255 7224.478,4332.791 7239.107,4352.147" style="fill:none;stroke:rgb(248,185,162);stroke-width:9.2px;"/>
                        <g transform="matrix(1,0,0,1,-3.026472,-69.52793)">
                            <path d="M7321.471,4411.619C7319.797,4397.874 7314.558,4381.736 7306.967,4369.501C7299.377,4357.265 7241.213,4285.274 7231.271,4275.921C7221.329,4266.568 7214.253,4268.449 7215.987,4286.019C7217.72,4303.588 7222.297,4335.047 7238.438,4350.161" style="fill:none;stroke:rgb(248,185,162);stroke-width:9.2px;"/>
                        </g>
                        <g transform="matrix(0.998697,0,0,0.938799,6.086435,129.956181)">
                            <path d="M7321.243,4416.912C7318.699,4406.652 7311.48,4374.143 7296.963,4352.972C7278.289,4325.739 7239.037,4283.227 7231.271,4275.921C7221.329,4266.568 7214.253,4268.449 7215.987,4286.019C7217.72,4303.588 7222.297,4335.047 7238.438,4350.161" style="fill:none;stroke:rgb(248,185,162);stroke-width:9.39px;"/>
                        </g>
                        <g transform="matrix(0.992784,0.074732,0,0.852007,55.105355,-152.475818)">
                            <path d="M7312.86,4397.246C7310.739,4376.484 7303.676,4359.702 7292.287,4340.863C7280.898,4322.024 7247.114,4293.344 7231.271,4275.921C7218.815,4262.223 7213.784,4263.001 7215.987,4286.019C7217.668,4303.593 7223.414,4338.9 7239.555,4354.014" style="fill:none;stroke:rgb(248,185,162);stroke-width:9.46px;"/>
                        </g>
                        <g transform="matrix(0.998697,0,0,0.938799,9.354994,70.489517)">
                            <path d="M7317.408,4393.912C7315.35,4382.893 7309.087,4369.508 7297.001,4349.86C7284.915,4330.211 7240.668,4287.654 7230.379,4279.453C7219.705,4270.945 7215.728,4268.366 7215.987,4286.019C7216.235,4302.975 7221.962,4334.909 7238.438,4350.161" style="fill:none;stroke:rgb(248,185,162);stroke-width:9.39px;"/>
                        </g>
                        <g transform="matrix(0.992784,0.074732,0,0.852007,58.354563,-206.200191)">
                            <path d="M7307.708,4381.338C7304.834,4365.772 7296.296,4348.573 7285.982,4334.011C7275.668,4319.448 7237.826,4282.088 7231.271,4275.921C7221.329,4266.568 7214.253,4268.449 7215.987,4286.019C7217.72,4303.588 7223.681,4336.267 7239.823,4351.381" style="fill:none;stroke:rgb(248,185,162);stroke-width:9.46px;"/>
                        </g>
                        <path d="M7245.362,3983.845C7239.919,3977.742 7229.342,3961.201 7230.178,3943.141C7231.013,3925.08 7234.406,3931.304 7245.191,3940.563C7255.976,3949.823 7273.471,3960.598 7284.203,3972.967C7294.935,3985.335 7308.774,4000.795 7310.933,4016.734" style="fill:none;stroke:rgb(248,185,162);stroke-width:9.2px;"/>
                        <path d="M7253.371,3947.07C7243.769,3938.227 7235.579,3925.373 7235.135,3911.744C7234.69,3898.114 7234.073,3901.501 7243.966,3908.23C7253.858,3914.96 7266.039,3921.746 7281.664,3935.45C7294.772,3946.946 7312.411,3961.961 7314.039,3975.875" style="fill:none;stroke:rgb(248,185,162);stroke-width:9.2px;"/>
                        <path d="M7257.204,3916.537C7249.384,3910.091 7242.991,3897.452 7243.274,3889.345C7243.558,3881.239 7246.859,3876.141 7254.012,3885.385C7261.164,3894.63 7269.722,3898.427 7274.839,3902.268C7279.956,3906.108 7300.684,3921.091 7304.344,3928.047" style="fill:none;stroke:rgb(248,185,162);stroke-width:9.2px;"/>
                        <path d="M7262.163,3892.662C7257.524,3887.434 7253.884,3877.118 7252.492,3869.903C7251.1,3862.688 7257.754,3863.395 7262.502,3869.07C7267.251,3874.744 7278.045,3878.442 7285.302,3885.758C7292.559,3893.074 7303.354,3899.519 7306.503,3904.589" style="fill:none;stroke:rgb(248,185,162);stroke-width:9.2px;"/>
                        <path d="M7260.979,3866.744C7256.879,3858.586 7253.367,3848.673 7263.899,3853.461C7274.43,3858.25 7292.272,3873.126 7298.904,3879.055" style="fill:none;stroke:rgb(248,185,162);stroke-width:9.2px;"/>
                        <path d="M7268.02,3854.242C7264.824,3845.973 7261.352,3838.402 7272.518,3843.644C7283.685,3848.886 7288.217,3854.792 7295.767,3860.643" style="fill:none;stroke:rgb(248,185,162);stroke-width:9.2px;"/>
                        <path d="M7274.424,3844.399C7270.753,3835.152 7267.915,3827.827 7279.979,3836.305C7292.044,3844.783 7295.304,3845.869 7299,3850.988" style="fill:none;stroke:rgb(248,185,162);stroke-width:9.2px;"/>
                        <path d="M7283.368,3836.967C7279.984,3828.739 7281.801,3820.464 7292.773,3833.678C7303.745,3846.892 7302.903,3846.929 7302.903,3846.929" style="fill:none;stroke:rgb(248,185,162);stroke-width:9.2px;"/>
                        <g transform="matrix(-1,0,0.056848,1,14394.553164,7.037297)">
                            <path d="M7294.352,4566.902C7303.443,4554.513 7314.51,4514.749 7290.198,4483.219C7265.885,4451.689 7256.631,4434.12 7247.367,4417.239C7237.464,4399.197 7224.642,4370.236 7232.108,4362.546C7237.704,4356.782 7265.217,4394.245 7281.825,4415.483C7287.889,4423.237 7302.764,4441.287 7313.756,4456.847" style="fill:none;stroke:rgb(248,185,162);stroke-width:10.46px;"/>
                        </g>
                        <g transform="matrix(-0.882469,0,0.051633,0.90826,13566.677436,411.131989)">
                            <path d="M7317.693,4388.322C7314.017,4381.434 7309.481,4374.845 7306.967,4369.501C7301.15,4357.136 7239.622,4286.718 7231.271,4275.921C7221.032,4262.683 7212.285,4266.736 7214.277,4287.68C7215.948,4305.255 7232.294,4348.425 7246.922,4367.781" style="fill:none;stroke:rgb(248,185,162);stroke-width:11.76px;"/>
                        </g>
                        <g transform="matrix(-0.914459,0,0.053143,0.934836,13793.253479,224.060044)">
                            <path d="M7319.539,4390.189C7315.872,4382.826 7310.59,4375.341 7306.967,4369.501C7299.377,4357.265 7241.213,4285.274 7231.271,4275.921C7221.329,4266.568 7214.253,4268.449 7215.987,4286.019C7217.72,4303.588 7225.319,4337.999 7239.135,4356.012" style="fill:none;stroke:rgb(248,185,162);stroke-width:11.37px;"/>
                        </g>
                        <g transform="matrix(-0.924847,0,0.050523,0.888738,13877.317017,357.180018)">
                            <path d="M7322.656,4393.639C7320.112,4383.378 7299.877,4359.829 7285.36,4338.658C7266.686,4311.425 7239.037,4283.227 7231.271,4275.921C7221.329,4266.568 7214.253,4268.449 7215.987,4286.019C7217.72,4303.588 7216.84,4332.754 7232.982,4347.869" style="fill:none;stroke:rgb(248,185,162);stroke-width:11.43px;"/>
                        </g>
                        <g transform="matrix(-0.988536,0.074732,0.048435,0.852007,14340.347077,-146.364511)">
                            <path d="M7310.473,4369.461C7305.534,4357.045 7297.113,4346.583 7288.998,4333.16C7277.609,4314.321 7247.114,4293.344 7231.271,4275.921C7218.815,4262.223 7213.784,4263.001 7215.987,4286.019C7217.668,4303.593 7224.107,4336.224 7240.248,4351.338" style="fill:none;stroke:rgb(248,185,162);stroke-width:10.72px;"/>
                        </g>
                        <g transform="matrix(-0.958833,0,0.053369,0.938799,14107.072572,76.600823)">
                            <path d="M7308.374,4369.816C7305.37,4363.93 7301.609,4357.35 7297.001,4349.86C7284.915,4330.211 7240.668,4287.654 7230.379,4279.453C7219.705,4270.945 7215.728,4268.366 7215.987,4286.019C7216.235,4302.975 7218.018,4334.372 7234.494,4349.624" style="fill:none;stroke:rgb(248,185,162);stroke-width:10.97px;"/>
                        </g>
                        <g transform="matrix(-0.988536,0.074732,0.048435,0.852007,14334.043753,-200.088884)">
                            <path d="M7298.416,4352.102C7294.514,4345.954 7290.155,4339.902 7285.982,4334.011C7275.668,4319.448 7237.826,4282.088 7231.271,4275.921C7221.329,4266.568 7214.253,4268.449 7215.987,4286.019C7217.72,4303.588 7220.024,4332.571 7236.166,4347.685" style="fill:none;stroke:rgb(248,185,162);stroke-width:10.72px;"/>
                        </g>
                        <g transform="matrix(-1,0,0.056848,1,14404.120358,6.111307)">
                            <path d="M7245.362,3983.845C7239.919,3977.742 7229.342,3961.201 7230.178,3943.141C7231.013,3925.08 7234.406,3931.304 7245.191,3940.563C7255.976,3949.823 7273.471,3960.598 7284.203,3972.967C7294.935,3985.335 7308.774,4000.795 7310.933,4016.734" style="fill:none;stroke:rgb(248,185,162);stroke-width:10.46px;"/>
                        </g>
                        <g transform="matrix(-1,0,0.056848,1,14404.120358,6.111307)">
                            <path d="M7253.371,3947.07C7243.769,3938.227 7235.579,3925.373 7235.135,3911.744C7234.69,3898.114 7234.073,3901.501 7243.966,3908.23C7253.858,3914.96 7266.039,3921.746 7281.664,3935.45C7288.659,3941.585 7296.945,3948.722 7303.399,3956.159" style="fill:none;stroke:rgb(248,185,162);stroke-width:10.46px;"/>
                        </g>
                        <g transform="matrix(-1,0,0.056848,1,14404.120358,6.111307)">
                            <path d="M7257.204,3916.537C7249.384,3910.091 7242.991,3897.452 7243.274,3889.345C7243.558,3881.239 7246.859,3876.141 7254.012,3885.385C7261.164,3894.63 7269.722,3898.427 7274.839,3902.268C7279.956,3906.108 7300.684,3921.091 7304.344,3928.047" style="fill:none;stroke:rgb(248,185,162);stroke-width:10.46px;"/>
                        </g>
                        <g transform="matrix(-1,0,0.056848,1,14404.120358,6.111307)">
                            <path d="M7262.163,3892.662C7257.524,3887.434 7253.884,3877.118 7252.492,3869.903C7251.1,3862.688 7257.754,3863.395 7262.502,3869.07C7267.251,3874.744 7278.045,3878.442 7285.302,3885.758C7292.559,3893.074 7303.354,3899.519 7306.503,3904.589" style="fill:none;stroke:rgb(248,185,162);stroke-width:10.46px;"/>
                        </g>
                        <g transform="matrix(-1,0,0.056848,1,14404.120358,6.111307)">
                            <path d="M7260.979,3866.744C7256.879,3858.586 7253.367,3848.673 7263.899,3853.461C7274.43,3858.25 7296.467,3880.722 7303.099,3886.651" style="fill:none;stroke:rgb(248,185,162);stroke-width:10.46px;"/>
                        </g>
                        <g transform="matrix(-1,0,0.056848,1,14404.120358,6.111307)">
                            <path d="M7268.02,3854.242C7264.824,3845.973 7261.352,3838.402 7272.518,3843.644C7283.685,3848.886 7302.025,3868.275 7306.031,3873.437" style="fill:none;stroke:rgb(248,185,162);stroke-width:10.46px;"/>
                        </g>
                        <g transform="matrix(-1,0,0.056848,1,14404.120358,6.111307)">
                            <path d="M7274.424,3844.399C7270.753,3835.152 7267.915,3827.827 7279.979,3836.305C7292.044,3844.783 7306.613,3854.851 7310.309,3859.97" style="fill:none;stroke:rgb(248,185,162);stroke-width:10.46px;"/>
                        </g>
                        <g transform="matrix(-1,0,0.056848,1,14404.120358,6.111307)">
                            <path d="M7287.388,3841.367C7279.573,3831.558 7276.18,3812.206 7294.928,3830.444C7288.862,3817.393 7291.607,3809.232 7303.265,3825.51C7297.739,3810.37 7307.6,3804.782 7316.315,3834.263" style="fill:none;stroke:rgb(248,185,162);stroke-width:10.46px;"/>
                        </g>
                        <path d="M7291.801,3830.997C7288.03,3820.191 7291.908,3809.071 7302.173,3832.803C7299.343,3817.835 7305.719,3806.814 7308.539,3825.159" style="fill:none;stroke:rgb(248,185,162);stroke-width:9.2px;"/>
                        <path d="M7312.621,3850.807L7326.764,3837.494" style="fill:none;stroke:rgb(248,185,162);stroke-width:9.2px;"/>
                        <path d="M7312.025,3840.484L7318.925,3831.315" style="fill:none;stroke:rgb(248,185,162);stroke-width:9.2px;"/>
                    </g>
                </g>
            </g>
        </g>
    </g>
</svg>
