<?xml version="1.0" encoding="UTF-8" standalone="no"?>
<!DOCTYPE svg PUBLIC "-//W3C//DTD SVG 1.1//EN" "http://www.w3.org/Graphics/SVG/1.1/DTD/svg11.dtd">
<svg width="100%" height="100%" viewBox="0 0 383 302" version="1.1" xmlns="http://www.w3.org/2000/svg" xmlns:xlink="http://www.w3.org/1999/xlink" xml:space="preserve" xmlns:serif="http://www.serif.com/" style="fill-rule:evenodd;clip-rule:evenodd;stroke-linecap:round;stroke-linejoin:round;stroke-miterlimit:1.5;">
    <g transform="matrix(1,0,0,1,-10116.663802,-549.906706)">
        <g transform="matrix(1.5,-0,0,1.5,-9629.715968,-432.032245)">
            <g id="OTTOIA" transform="matrix(0.847121,0,0,0.847121,7439.840656,-2890.395563)">
                <path d="M6783.132,4233.042C6787.775,4232.149 6792.989,4239.628 6788.836,4242.888C6784.683,4246.147 6780.688,4245.201 6780.08,4241.693C6779.473,4238.186 6778.937,4233.849 6783.132,4233.042ZM6783.752,4236.262C6783.063,4236.395 6782.99,4236.979 6782.958,4237.549C6782.893,4238.701 6783.11,4239.971 6783.311,4241.133C6783.441,4241.884 6784.285,4241.674 6785.133,4241.323C6785.678,4241.097 6786.24,4240.757 6786.811,4240.308C6787.506,4239.763 6786.965,4238.881 6786.508,4238.156C6786.107,4237.518 6785.551,4236.949 6784.917,4236.58C6784.546,4236.364 6784.152,4236.185 6783.752,4236.262Z" style="fill:rgb(248,185,162);"/>
                <path d="M6788.841,4256.215C6781.477,4255.839 6776.93,4249.815 6776.293,4242.954C6775.664,4236.176 6776.067,4229.011 6781.209,4224.776C6786.351,4220.541 6788.296,4219.678 6794.305,4219.646C6800.315,4219.615 6805.904,4227.007 6806.018,4236.287C6806.132,4245.567 6807.644,4257.177 6788.841,4256.215ZM6789.008,4252.941C6795.102,4253.252 6798.651,4252.273 6800.603,4250.098C6801.954,4248.594 6802.427,4246.609 6802.652,4244.516C6802.938,4241.842 6802.772,4238.985 6802.739,4236.327C6802.682,4231.698 6801.063,4227.604 6798.636,4225.099C6797.366,4223.788 6795.892,4222.917 6794.323,4222.925C6789.252,4222.952 6787.632,4223.734 6783.293,4227.307C6778.981,4230.858 6779.031,4236.967 6779.558,4242.651C6780.045,4247.901 6783.373,4252.653 6789.008,4252.941Z" style="fill:rgb(248,185,162);"/>
                <path d="M6799.088,4245.396C6800.043,4241.961 6800.355,4236.74 6799.384,4233.195C6798.414,4229.65 6797.046,4225.528 6795.132,4224.684C6793.218,4223.839 6791.975,4223.37 6789.769,4223.505" style="fill:none;stroke:rgb(248,185,162);stroke-width:3.28px;"/>
                <path d="M6807.42,4223.904C6811.232,4228.02 6812.213,4233.51 6812.312,4238.909C6812.377,4242.435 6811.59,4247.633 6809.656,4251.054" style="fill:none;stroke:rgb(248,185,162);stroke-width:3.28px;"/>
                <path d="M6782.717,4227.697C6785.428,4225.924 6792.384,4227.092 6793.684,4231.745C6794.984,4236.397 6795.176,4241.648 6793.685,4243.796" style="fill:none;stroke:rgb(248,185,162);stroke-width:3.28px;"/>
                <path d="M6792.405,4221.341C6800.129,4220.771 6797.827,4221.066 6808.912,4220.641C6819.997,4220.215 6821.877,4220.327 6830.093,4214.346C6838.309,4208.364 6844.728,4194.441 6860.96,4194.056C6877.193,4193.672 6889.497,4205.259 6893.422,4211.344C6897.348,4217.429 6906.04,4231.955 6902.723,4243.917C6899.406,4255.879 6895.847,4260.156 6884.99,4264.09C6874.132,4268.023 6862.151,4269.934 6853.269,4264.692C6844.387,4259.449 6838.951,4253.139 6837.642,4247.62" style="fill:none;stroke:rgb(248,185,162);stroke-width:3.28px;"/>
                <path d="M6788.494,4254.46C6799.407,4255.578 6803.423,4255.768 6812.822,4253.115C6822.221,4250.461 6829.002,4246.468 6842.485,4245.91" style="fill:none;stroke:rgb(248,185,162);stroke-width:3.28px;"/>
                <path d="M6840.436,4214.746C6847.097,4221.108 6849.758,4231.95 6847.959,4238.655" style="fill:none;stroke:rgb(248,185,162);stroke-width:3.28px;"/>
                <path d="M6900.682,4252.389C6895.588,4263.265 6891.149,4278.036 6868.884,4295.753C6846.62,4313.47 6851.016,4311.02 6845.012,4319.85" style="fill:none;stroke:rgb(248,185,162);stroke-width:3.28px;"/>
                <path d="M6816.043,4319.815C6835.649,4321.832 6855.294,4320.486 6879.263,4315.763C6903.231,4311.041 6918.146,4307.034 6942.727,4306.968C6967.309,4306.902 6992.299,4305.771 7010.318,4316.157C7028.338,4326.543 7048.086,4337.981 7053.384,4357.753C7058.681,4377.524 7057.718,4396.353 7047.889,4405.456C7038.06,4414.559 7020.659,4416.603 7011.65,4411.347C7002.64,4406.092 7007.487,4405.396 6993.25,4401.661C6979.013,4397.926 6974.354,4395.8 6947.381,4398.304C6920.408,4400.808 6911.162,4400.914 6890.574,4404.946C6869.987,4408.977 6853.66,4411.507 6826.134,4405.975C6798.609,4400.443 6779.357,4391.118 6771.78,4376.676C6764.203,4362.233 6758.116,4355.781 6759.271,4339.451C6760.425,4323.121 6769.723,4305.971 6786.038,4294.139C6802.352,4282.307 6829.887,4261.906 6838.416,4252.48" style="fill:none;stroke:rgb(248,185,162);stroke-width:3.28px;"/>
                <g>
                    <path d="M7023.57,4391.35L7024.364,4385.07" style="fill:none;stroke:rgb(248,185,162);stroke-width:3.28px;"/>
                    <path d="M7028.779,4393.191L7032.044,4387.626" style="fill:none;stroke:rgb(248,185,162);stroke-width:3.28px;"/>
                    <path d="M7032.67,4395.798C7032.67,4395.798 7035.976,4398.035 7039.041,4395.786" style="fill:none;stroke:rgb(248,185,162);stroke-width:3.28px;"/>
                    <path d="M7035.118,4401.564C7038.178,4403.074 7040.435,4403.719 7042.884,4403.455" style="fill:none;stroke:rgb(248,185,162);stroke-width:3.28px;"/>
                    <path d="M7035.272,4406.058C7035.272,4406.058 7035.871,4410.029 7040.101,4410.993" style="fill:none;stroke:rgb(248,185,162);stroke-width:3.28px;"/>
                    <path d="M7031.703,4410.743C7032.855,4414.131 7036.623,4417.885 7036.623,4417.885" style="fill:none;stroke:rgb(248,185,162);stroke-width:3.28px;"/>
                    <path d="M7025.686,4410.437C7026.366,4414.43 7027.664,4420.571 7027.664,4420.571" style="fill:none;stroke:rgb(248,185,162);stroke-width:3.28px;"/>
                    <path d="M7017.617,4410.23L7016.605,4419.285" style="fill:none;stroke:rgb(248,185,162);stroke-width:3.28px;"/>
                    <path d="M7008.315,4416.51C7011.984,4413.164 7012.496,4408.982 7012.496,4408.982" style="fill:none;stroke:rgb(248,185,162);stroke-width:3.28px;"/>
                    <path d="M7001.702,4409.666C7005.476,4408.579 7008.357,4405.951 7008.357,4405.951" style="fill:none;stroke:rgb(248,185,162);stroke-width:3.28px;"/>
                    <path d="M6997.089,4402.863C7002.4,4402.553 7007.797,4400.792 7007.797,4400.792" style="fill:none;stroke:rgb(248,185,162);stroke-width:3.28px;"/>
                    <path d="M7008.185,4394.582C7008.185,4394.582 7008.296,4397.705 6999.472,4394.761" style="fill:none;stroke:rgb(248,185,162);stroke-width:3.28px;"/>
                    <path d="M7012.33,4391.731C7012.33,4391.731 7007.559,4393.45 7005.793,4388.783" style="fill:none;stroke:rgb(248,185,162);stroke-width:3.28px;"/>
                    <path d="M7016.218,4390.581C7016.218,4390.581 7014.538,4388.692 7013.341,4384.951" style="fill:none;stroke:rgb(248,185,162);stroke-width:3.28px;"/>
                    <path d="M7019.439,4401.812C7019.212,4398.506 7021.966,4397.955 7024.36,4397.795C7026.754,4397.636 7029.267,4398.592 7030.229,4401.854C7031.192,4405.117 7027.365,4406.211 7024.671,4406.272C7021.977,4406.334 7019.666,4405.118 7019.439,4401.812ZM7022.71,4401.395C7022.708,4401.458 7022.707,4401.531 7022.71,4401.587C7022.74,4402.023 7022.803,4402.376 7023.017,4402.608C7023.383,4403.007 7023.988,4403.008 7024.596,4402.994C7025.154,4402.981 7025.782,4402.909 7026.37,4402.747C7026.55,4402.697 7026.796,4402.59 7026.987,4402.501C7026.522,4401.34 7025.524,4401.004 7024.578,4401.067C7024.065,4401.101 7023.527,4401.15 7023.032,4401.28C7022.94,4401.304 7022.808,4401.355 7022.71,4401.395Z" style="fill:rgb(248,185,162);"/>
                </g>
                <g>
                    <path d="M6848.192,4405.779C6845.381,4396.887 6829.086,4372.002 6847.104,4326.018" style="fill:none;stroke:rgb(248,185,162);stroke-width:3.28px;"/>
                    <path d="M6860.167,4322.039C6854.318,4349.113 6851.053,4373.812 6864.551,4404.225" style="fill:none;stroke:rgb(248,185,162);stroke-width:3.28px;"/>
                    <path d="M6872.632,4321.292C6872.473,4343.961 6872.462,4374.227 6880.564,4400.966" style="fill:none;stroke:rgb(248,185,162);stroke-width:3.28px;"/>
                    <path d="M6885.572,4317.759C6885.438,4339.417 6889.454,4375.832 6896.513,4399.781" style="fill:none;stroke:rgb(248,185,162);stroke-width:3.28px;"/>
                    <path d="M6897.387,4314.618C6898.576,4341.859 6902.177,4373.718 6907.986,4398.979" style="fill:none;stroke:rgb(248,185,162);stroke-width:3.28px;"/>
                    <path d="M6908.088,4312.789C6909.011,4334.497 6913.556,4381.004 6917.725,4396.55" style="fill:none;stroke:rgb(248,185,162);stroke-width:3.28px;"/>
                    <path d="M6921.394,4310.74C6920.834,4331.397 6921.82,4352.932 6923.714,4367.767C6925.607,4382.603 6928.105,4395.648 6928.105,4395.648" style="fill:none;stroke:rgb(248,185,162);stroke-width:3.28px;"/>
                    <path d="M6933.836,4310.33C6930.323,4328.584 6931.398,4340.803 6931.95,4354.409C6932.503,4368.014 6935.556,4386.752 6938.497,4395.498" style="fill:none;stroke:rgb(248,185,162);stroke-width:3.28px;"/>
                    <path d="M6947.027,4310.219C6942.816,4319.384 6938.565,4333.426 6939.724,4347.902C6940.884,4362.378 6942.374,4386.365 6946.096,4394.205" style="fill:none;stroke:rgb(248,185,162);stroke-width:3.28px;"/>
                    <path d="M6959.242,4310.047C6953.531,4323.99 6949.214,4336.517 6950.006,4351.037C6950.799,4365.558 6952.099,4381.508 6955.578,4393.881" style="fill:none;stroke:rgb(248,185,162);stroke-width:3.28px;"/>
                    <path d="M6969.195,4311.139C6962.874,4325.975 6958.319,4338.618 6959.084,4354.553C6959.85,4370.488 6961.514,4384.196 6964.889,4393.602" style="fill:none;stroke:rgb(248,185,162);stroke-width:3.28px;"/>
                    <path d="M6980.108,4311.946C6974.623,4320.627 6969.678,4327.721 6967.611,4341.336C6965.545,4354.95 6966.442,4377.415 6970.498,4393.472" style="fill:none;stroke:rgb(248,185,162);stroke-width:3.28px;"/>
                    <path d="M6992.196,4312.622C6984.573,4317.791 6972.407,4332.558 6971.678,4340.487" style="fill:none;stroke:rgb(248,185,162);stroke-width:3.28px;"/>
                    <path d="M7001.904,4315.754C6991.756,4321.347 6977.964,4333.389 6976.011,4341.197C6974.058,4349.004 6971.354,4361.78 6971.612,4367.748C6971.869,4373.716 6973.623,4389.913 6979.085,4395.382" style="fill:none;stroke:rgb(248,185,162);stroke-width:3.28px;"/>
                    <path d="M7011.436,4320.572C6998.31,4326.29 6986.467,4334.076 6982.842,4340.91C6979.216,4347.744 6974.093,4360.352 6976.548,4378.564" style="fill:none;stroke:rgb(248,185,162);stroke-width:3.28px;"/>
                    <path d="M7022.567,4327.027C7012.38,4327.295 6995.937,4334.787 6992.741,4340.327C6989.868,4345.308 6982.608,4355.24 6980.538,4372.105C6979.298,4382.207 6981.516,4388.048 6986.192,4396.03" style="fill:none;stroke:rgb(248,185,162);stroke-width:3.28px;"/>
                    <path d="M7035.358,4335.455C7028.574,4334.001 7017.106,4334.707 7011.958,4337.029C7006.81,4339.351 6999.77,4346.113 6997.118,4349.515C6994.466,4352.917 6987.9,4363.674 6987.585,4372.937C6987.27,4382.2 6989.544,4394.361 6992.615,4398.379" style="fill:none;stroke:rgb(248,185,162);stroke-width:3.28px;"/>
                    <path d="M7044.037,4345.545C7033.011,4342.062 7026.382,4340.956 7015.876,4343.949C7005.371,4346.941 7000.567,4354.78 6997.209,4361.261C6993.851,4367.742 6991.399,4378.87 6991.758,4383.367C6992.538,4393.144 6996.429,4399.437 6996.429,4399.437" style="fill:none;stroke:rgb(248,185,162);stroke-width:3.28px;"/>
                    <path d="M6807.487,4281.537C6816.486,4287.139 6822.543,4292.465 6828.499,4299.834C6834.455,4307.204 6839.911,4313.296 6841.423,4317.577" style="fill:none;stroke:rgb(248,185,162);stroke-width:3.28px;"/>
                    <path d="M6815.159,4276.357C6820.614,4280.814 6832.275,4292.795 6836.524,4298.336C6840.773,4303.877 6846.866,4310.611 6846.866,4310.611" style="fill:none;stroke:rgb(248,185,162);stroke-width:3.28px;"/>
                    <path d="M6822.464,4269.684C6827.37,4274.465 6833.319,4281.166 6839.489,4287.992C6845.658,4294.817 6851.164,4301.067 6853.775,4302.583" style="fill:none;stroke:rgb(248,185,162);stroke-width:3.28px;"/>
                    <path d="M6831.687,4262.512C6834.505,4269.01 6840.81,4279.374 6846.98,4284.944C6853.15,4290.515 6857.941,4294.694 6862.793,4296.315" style="fill:none;stroke:rgb(248,185,162);stroke-width:3.28px;"/>
                    <path d="M6839.107,4260.917C6844.07,4269.628 6854.371,4282.302 6859.424,4285.204C6864.477,4288.106 6867.179,4289.589 6871.409,4289.862" style="fill:none;stroke:rgb(248,185,162);stroke-width:3.28px;"/>
                    <path d="M6853.433,4271.245C6859.376,4276.644 6866.686,4283.377 6878.157,4283.313" style="fill:none;stroke:rgb(248,185,162);stroke-width:3.28px;"/>
                    <path d="M6866.824,4274.931C6875.538,4278.215 6878.407,4278.341 6883.087,4277.78" style="fill:none;stroke:rgb(248,185,162);stroke-width:3.28px;"/>
                    <path d="M7002.16,4391.728C7004.811,4384.21 7006.112,4375.547 7023.686,4377.416C7041.259,4379.285 7047.039,4388.845 7046.569,4393.493" style="fill:none;stroke:rgb(248,185,162);stroke-width:3.28px;"/>
                    <path d="M6999.823,4380.948C7003.383,4372.5 7009.477,4366.605 7022.8,4365.997C7036.122,4365.388 7047.175,4368.586 7051.778,4383.346" style="fill:none;stroke:rgb(248,185,162);stroke-width:3.28px;"/>
                    <path d="M6996.723,4379.437C7004.214,4355.596 7022.364,4355.041 7030.435,4355.095C7042.585,4355.174 7049.185,4360.402 7051.396,4364.783" style="fill:none;stroke:rgb(248,185,162);stroke-width:3.28px;"/>
                    <path d="M7047.553,4353.282C7041.64,4347.721 7022.195,4344.916 7011.853,4352.608C7006.984,4356.229 7001.216,4361.926 6999.331,4366.147" style="fill:none;stroke:rgb(248,185,162);stroke-width:3.28px;"/>
                    <path d="M6770.669,4314.02C6776.265,4310.576 6782.621,4306.365 6792.007,4307.158C6801.392,4307.95 6806.713,4310.745 6810.613,4313.656" style="fill:none;stroke:rgb(248,185,162);stroke-width:3.28px;"/>
                    <path d="M6775.556,4307.162C6782.778,4304.105 6785.893,4302.363 6793.684,4303.432C6801.475,4304.502 6806.301,4306.302 6810.684,4309.096C6815.742,4312.319 6818.905,4317.015 6818.905,4317.015" style="fill:none;stroke:rgb(248,185,162);stroke-width:3.28px;"/>
                    <path d="M6783.572,4299.669C6790.228,4298.145 6804.617,4299.97 6810.389,4304.229C6816.16,4308.487 6821.281,4313.782 6822.549,4317.726" style="fill:none;stroke:rgb(248,185,162);stroke-width:3.28px;"/>
                    <path d="M6791.359,4292.868C6797.567,4294.274 6805.964,4297.488 6810.783,4300.916" style="fill:none;stroke:rgb(248,185,162);stroke-width:3.28px;"/>
                    <path d="M6799.091,4287.398C6809.513,4291.645 6814.781,4295.918 6819.719,4301.85C6824.657,4307.782 6829.471,4314.918 6831.343,4318.045" style="fill:none;stroke:rgb(248,185,162);stroke-width:3.28px;"/>
                    <path d="M6767.275,4358.36C6768.045,4343.437 6769.02,4338.97 6776.726,4331.09C6784.432,4323.21 6790.567,4319.17 6800.239,4318.667" style="fill:none;stroke:rgb(248,185,162);stroke-width:3.28px;"/>
                    <path d="M6802.812,4395.98C6797.806,4384.012 6785.419,4354.559 6811.945,4324.19" style="fill:none;stroke:rgb(248,185,162);stroke-width:3.28px;"/>
                    <path d="M6816.207,4399.852C6810.481,4383.496 6799.696,4347.619 6822.481,4325.263" style="fill:none;stroke:rgb(248,185,162);stroke-width:3.28px;"/>
                    <path d="M6836.977,4324.848C6823.141,4346.598 6822.71,4366.498 6831.89,4401.657" style="fill:none;stroke:rgb(248,185,162);stroke-width:3.28px;"/>
                    <path d="M6762.743,4345.004C6766.392,4333.983 6776.671,4319.987 6783.885,4318.229C6791.099,4316.47 6800.602,4314.75 6809.696,4316.448" style="fill:none;stroke:rgb(248,185,162);stroke-width:3.28px;"/>
                    <path d="M6764.585,4326.259C6770.991,4318.778 6778.656,4313.078 6786.265,4312.199C6793.874,4311.32 6797.944,4311.602 6802.084,4312.528" style="fill:none;stroke:rgb(248,185,162);stroke-width:3.28px;"/>
                    <path d="M6884.215,4271.442C6884.215,4271.442 6885.577,4271.997 6889.353,4270.435" style="fill:none;stroke:rgb(248,185,162);stroke-width:3.28px;"/>
                    <path d="M6782.364,4384.65C6777.777,4371.983 6776.351,4355.526 6782.307,4344.715C6788.262,4333.904 6794.213,4325.64 6803.814,4322.473" style="fill:none;stroke:rgb(248,185,162);stroke-width:3.28px;"/>
                </g>
                <g>
                    <path d="M6831.232,4215.963L6823.228,4214.579" style="fill:none;stroke:rgb(248,185,162);stroke-width:3.28px;"/>
                    <path d="M6835.396,4212.945L6826.406,4211.069" style="fill:none;stroke:rgb(248,185,162);stroke-width:3.28px;"/>
                    <path d="M6842.542,4212.505L6831.553,4209.588" style="fill:none;stroke:rgb(248,185,162);stroke-width:3.28px;"/>
                    <path d="M6847.162,4215.291L6840.215,4211.887" style="fill:none;stroke:rgb(248,185,162);stroke-width:3.28px;"/>
                    <path d="M6849.081,4217.894L6840.711,4216.67" style="fill:none;stroke:rgb(248,185,162);stroke-width:3.28px;"/>
                    <path d="M6851.057,4220.984L6842.86,4220.863" style="fill:none;stroke:rgb(248,185,162);stroke-width:3.28px;"/>
                    <path d="M6851.886,4226.955L6845.749,4227.32" style="fill:none;stroke:rgb(248,185,162);stroke-width:3.28px;"/>
                    <path d="M6853.114,4232.044L6846.277,4234.739" style="fill:none;stroke:rgb(248,185,162);stroke-width:3.28px;"/>
                    <path d="M6851.44,4236.366L6846.363,4239.602" style="fill:none;stroke:rgb(248,185,162);stroke-width:3.28px;"/>
                    <path d="M6850.503,4240.217L6845.306,4243.36" style="fill:none;stroke:rgb(248,185,162);stroke-width:3.28px;"/>
                    <path d="M6848.949,4243.649L6843.178,4247.703" style="fill:none;stroke:rgb(248,185,162);stroke-width:3.28px;"/>
                    <path d="M6841.05,4247.893L6836.872,4250.98" style="fill:none;stroke:rgb(248,185,162);stroke-width:3.28px;"/>
                    <path d="M6835.848,4246.643C6834.019,4248.234 6832.21,4249.869 6829.999,4250.626" style="fill:none;stroke:rgb(248,185,162);stroke-width:3.28px;"/>
                    <path d="M6837.798,4248.571C6836.345,4249.508 6834.625,4251.088 6833.544,4252.226" style="fill:none;stroke:rgb(248,185,162);stroke-width:3.28px;"/>
                    <path d="M6842.306,4252.386L6838.944,4256.027" style="fill:none;stroke:rgb(248,185,162);stroke-width:3.28px;"/>
                    <path d="M6858.147,4211.216C6856.571,4214.504 6856.772,4215.1 6859.472,4213.585" style="fill:none;stroke:rgb(248,185,162);stroke-width:3.28px;"/>
                    <path d="M6864.519,4209.406C6862.719,4212.917 6862.351,4214.341 6865.908,4211.352" style="fill:none;stroke:rgb(248,185,162);stroke-width:3.28px;"/>
                    <path d="M6848.559,4205.296C6848.038,4210.495 6849.245,4211.755 6851.012,4208.104" style="fill:none;stroke:rgb(248,185,162);stroke-width:3.28px;"/>
                    <path d="M6861.211,4199.683C6859.3,4204.282 6859.8,4204.682 6863.167,4202.389" style="fill:none;stroke:rgb(248,185,162);stroke-width:3.28px;"/>
                    <path d="M6878.935,4205.026C6875.936,4209.253 6875.998,4209.464 6879.169,4207.781" style="fill:none;stroke:rgb(248,185,162);stroke-width:3.28px;"/>
                    <path d="M6885.045,4208.812C6881.236,4213.031 6879.928,4213.694 6885.263,4211.649" style="fill:none;stroke:rgb(248,185,162);stroke-width:3.28px;"/>
                    <g transform="matrix(1,0,0,-1,2.217511,8459.031361)">
                        <path d="M6858.147,4211.216C6856.571,4214.504 6856.772,4215.1 6859.472,4213.585" style="fill:none;stroke:rgb(248,185,162);stroke-width:3.28px;"/>
                    </g>
                    <g transform="matrix(1,0,0,-1,4.022212,8471.855262)">
                        <path d="M6864.519,4209.406C6862.719,4212.917 6862.351,4214.341 6865.908,4211.352" style="fill:none;stroke:rgb(248,185,162);stroke-width:3.28px;"/>
                    </g>
                    <g transform="matrix(0.962239,-0.272207,-0.272207,-0.962239,1422.283949,10163.094543)">
                        <path d="M6848.559,4205.296C6848.038,4210.495 6849.245,4211.755 6851.012,4208.104" style="fill:none;stroke:rgb(248,185,162);stroke-width:3.28px;"/>
                    </g>
                    <g transform="matrix(1,0,0,-1,-2.614147,8457.522278)">
                        <path d="M6861.211,4199.683C6859.3,4204.282 6859.8,4204.682 6863.167,4202.389" style="fill:none;stroke:rgb(248,185,162);stroke-width:3.28px;"/>
                    </g>
                    <g transform="matrix(1,0,0,-1,-2.31524,8462.868416)">
                        <path d="M6878.935,4205.026C6875.936,4209.253 6875.998,4209.464 6879.169,4207.781" style="fill:none;stroke:rgb(248,185,162);stroke-width:3.28px;"/>
                    </g>
                    <g transform="matrix(1,0,0,-1,-0.938309,8464.986084)">
                        <path d="M6885.045,4208.812C6881.236,4213.031 6879.928,4213.694 6885.263,4211.649" style="fill:none;stroke:rgb(248,185,162);stroke-width:3.28px;"/>
                    </g>
                    <g transform="matrix(0.837997,0.545675,0.545675,-0.837997,-1194.698893,4040.998904)">
                        <path d="M6858.147,4211.216C6856.571,4214.504 6856.772,4215.1 6859.472,4213.585" style="fill:none;stroke:rgb(248,185,162);stroke-width:3.28px;"/>
                    </g>
                    <g transform="matrix(0.818466,0.574555,0.574555,-0.818466,-1184.442953,3749.715277)">
                        <path d="M6864.519,4209.406C6862.719,4212.917 6862.351,4214.341 6865.908,4211.352" style="fill:none;stroke:rgb(248,185,162);stroke-width:3.28px;"/>
                    </g>
                    <g transform="matrix(0.666907,-0.745141,-0.745141,-0.666907,5442.20842,12155.492739)">
                        <path d="M6848.559,4205.296C6848.038,4210.495 6849.245,4211.755 6851.012,4208.104" style="fill:none;stroke:rgb(248,185,162);stroke-width:3.28px;"/>
                    </g>
                    <g transform="matrix(0.999003,-0.04465,-0.04465,-0.999003,198.250365,8744.614977)">
                        <path d="M6861.211,4199.683C6859.3,4204.282 6859.8,4204.682 6863.167,4202.389" style="fill:none;stroke:rgb(248,185,162);stroke-width:3.28px;"/>
                    </g>
                    <g transform="matrix(0.980574,0.19615,0.19615,-0.980574,-686.716878,7020.415161)">
                        <path d="M6878.935,4205.026C6875.936,4209.253 6875.998,4209.464 6879.169,4207.781" style="fill:none;stroke:rgb(248,185,162);stroke-width:3.28px;"/>
                    </g>
                    <g transform="matrix(0.998814,-0.048684,-0.048684,-0.998814,220.809214,8789.818821)">
                        <path d="M6885.045,4208.812C6881.236,4213.031 6879.928,4213.694 6885.263,4211.649" style="fill:none;stroke:rgb(248,185,162);stroke-width:3.28px;"/>
                    </g>
                    <path d="M6840.113,4209.388L6832.298,4203.758" style="fill:none;stroke:rgb(248,185,162);stroke-width:3.28px;"/>
                    <path d="M6845.917,4204.69L6841.179,4196.606" style="fill:none;stroke:rgb(248,185,162);stroke-width:3.28px;"/>
                    <path d="M6853.288,4198.766L6849.703,4188.556" style="fill:none;stroke:rgb(248,185,162);stroke-width:3.28px;"/>
                    <path d="M6862.894,4196.24L6865.224,4186.427" style="fill:none;stroke:rgb(248,185,162);stroke-width:3.28px;"/>
                    <path d="M6875.301,4200.342L6879.591,4192.123" style="fill:none;stroke:rgb(248,185,162);stroke-width:3.28px;"/>
                    <path d="M6879.616,4201.372L6883.59,4194.811" style="fill:none;stroke:rgb(248,185,162);stroke-width:3.28px;"/>
                    <path d="M6884.118,4204.62C6884.118,4204.62 6884.41,4200.383 6888.817,4199.73" style="fill:none;stroke:rgb(248,185,162);stroke-width:3.28px;"/>
                    <path d="M6870.857,4197.917C6870.857,4197.917 6873.349,4191.874 6871.519,4189.354" style="fill:none;stroke:rgb(248,185,162);stroke-width:3.28px;"/>
                    <path d="M6857.251,4196.489C6857.251,4196.489 6855.88,4188.078 6857.698,4186.76" style="fill:none;stroke:rgb(248,185,162);stroke-width:3.28px;"/>
                    <path d="M6849.364,4199.702C6849.364,4199.702 6847.647,4197.711 6847.338,4194.371" style="fill:none;stroke:rgb(248,185,162);stroke-width:3.28px;"/>
                    <path d="M6841.23,4203.639C6841.23,4203.639 6839.321,4201.023 6836.989,4200.392" style="fill:none;stroke:rgb(248,185,162);stroke-width:3.28px;"/>
                    <path d="M6890.454,4209.318C6893.876,4207.815 6897.455,4208.062 6897.646,4208.031" style="fill:none;stroke:rgb(248,185,162);stroke-width:3.28px;"/>
                    <path d="M6892.577,4213.975L6899.458,4213.407" style="fill:none;stroke:rgb(248,185,162);stroke-width:3.28px;"/>
                    <path d="M6894.65,4218.917C6894.65,4218.917 6900.005,4217.292 6903.138,4219.778" style="fill:none;stroke:rgb(248,185,162);stroke-width:3.28px;"/>
                    <path d="M6898.987,4226.86C6903.679,4226.476 6906.64,4223.835 6906.64,4223.835" style="fill:none;stroke:rgb(248,185,162);stroke-width:3.28px;"/>
                    <path d="M6900.043,4230.759C6900.043,4230.759 6904.77,4230.491 6906.269,4232.368" style="fill:none;stroke:rgb(248,185,162);stroke-width:3.28px;"/>
                    <path d="M6844.706,4255.074C6842.292,4257.545 6841.982,4260.526 6841.982,4260.526" style="fill:none;stroke:rgb(248,185,162);stroke-width:3.28px;"/>
                    <path d="M6854.109,4260.206C6852.149,4263.512 6851.664,4267.985 6851.664,4267.985" style="fill:none;stroke:rgb(248,185,162);stroke-width:3.28px;"/>
                    <path d="M6847.922,4257.958L6845.895,4263.996" style="fill:none;stroke:rgb(248,185,162);stroke-width:3.28px;"/>
                    <path d="M6859.5,4263.632C6859.5,4263.632 6858.106,4268.509 6859.716,4271.188" style="fill:none;stroke:rgb(248,185,162);stroke-width:3.28px;"/>
                    <path d="M6866.953,4263.828L6867.713,4271.813" style="fill:none;stroke:rgb(248,185,162);stroke-width:3.28px;"/>
                    <path d="M6874.883,4263.417C6878.233,4267.206 6879.031,4270.816 6879.031,4270.816" style="fill:none;stroke:rgb(248,185,162);stroke-width:3.28px;"/>
                    <path d="M6884.679,4260.657C6887.315,4264.77 6891.559,4265.449 6891.559,4265.449" style="fill:none;stroke:rgb(248,185,162);stroke-width:3.28px;"/>
                    <path d="M6893.67,4255.731L6898.639,4259.702" style="fill:none;stroke:rgb(248,185,162);stroke-width:3.28px;"/>
                    <path d="M6897.788,4249.022C6903.592,4250.024 6907.971,4248.484 6907.971,4248.484" style="fill:none;stroke:rgb(248,185,162);stroke-width:3.28px;"/>
                    <path d="M6900.247,4240.647C6900.247,4240.647 6904.756,4239.971 6906.773,4241.814" style="fill:none;stroke:rgb(248,185,162);stroke-width:3.28px;"/>
                </g>
            </g>
        </g>
    </g>
</svg>
