<?xml version="1.0" encoding="utf-8"?>
<svg width="100%" height="100%" viewBox="0 0 229 182" version="1.1" xmlns="http://www.w3.org/2000/svg" style="fill-rule:evenodd;clip-rule:evenodd;stroke-linecap:round;stroke-linejoin:round;stroke-miterlimit:1.5;">
  <g transform="matrix(1,0,0,1,-10202.991007,-2342.721393)">
    <g transform="matrix(1.5,-0,0,1.5,-9629.715968,-432.032245)">
      <g id="SUCRE" transform="matrix(0.306357,-0.15106,0.15106,0.306357,10586.465826,2283.733601)">
        <g transform="matrix(1,0,0,1,117.155325,-0.142463)">
          <path d="M7442.935,2421.26L7519.65,2465.551L7519.65,2554.134L7442.935,2598.425L7366.22,2554.134L7366.22,2465.551L7442.935,2421.26ZM7442.935,2433.358L7376.697,2471.6L7376.697,2548.085L7442.935,2586.327L7509.173,2548.085L7509.173,2471.6L7442.935,2433.358Z" style="fill:rgb(248,185,162);"/>
        </g>
        <g transform="matrix(1,0,0,1,262.375906,-0.142463)">
          <path d="M7519.65,2554.134L7442.935,2598.425L7366.22,2554.134L7366.22,2465.551L7442.935,2421.26" style="fill:none;stroke:rgb(248,185,162);stroke-width:10.48px;"/>
        </g>
        <g transform="matrix(1.211658,0,0,1.211658,-2293.136539,-103.874798)">
          <circle cx="8132.742" cy="2223.047" r="19.496" style="fill: rgb(248, 185, 162);"/>
          <path d="M8132.742,2203.552C8143.502,2203.552 8152.238,2212.287 8152.238,2223.047C8152.238,2233.807 8143.502,2242.543 8132.742,2242.543C8121.982,2242.543 8113.246,2233.807 8113.246,2223.047C8113.246,2212.287 8121.982,2203.552 8132.742,2203.552ZM8132.742,2212.199C8126.754,2212.199 8121.893,2217.06 8121.893,2223.047C8121.893,2229.035 8126.754,2233.896 8132.742,2233.896C8138.729,2233.896 8143.59,2229.035 8143.59,2223.047C8143.59,2217.06 8138.729,2212.199 8132.742,2212.199Z" style="fill:rgb(248,185,162);"/>
        </g>
        <g transform="matrix(1.211658,0,0,1.211658,-2148.591504,-267.80862)">
          <circle cx="8132.742" cy="2223.047" r="19.496" style="fill: rgb(248, 185, 162);"/>
          <path d="M8132.742,2203.552C8143.502,2203.552 8152.238,2212.287 8152.238,2223.047C8152.238,2233.807 8143.502,2242.543 8132.742,2242.543C8121.982,2242.543 8113.246,2233.807 8113.246,2223.047C8113.246,2212.287 8121.982,2203.552 8132.742,2203.552ZM8132.742,2212.199C8126.754,2212.199 8121.893,2217.06 8121.893,2223.047C8121.893,2229.035 8126.754,2233.896 8132.742,2233.896C8138.729,2233.896 8143.59,2229.035 8143.59,2223.047C8143.59,2217.06 8138.729,2212.199 8132.742,2212.199Z" style="fill: rgb(248, 185, 162);"/>
        </g>
        <g transform="matrix(1.211658,0,0,1.211658,-2065.567608,-143.617445)">
          <circle cx="8132.742" cy="2223.047" r="19.496" style="fill: rgb(248, 185, 162);"/>
          <path d="M8132.742,2203.552C8143.502,2203.552 8152.238,2212.287 8152.238,2223.047C8152.238,2233.807 8143.502,2242.543 8132.742,2242.543C8121.982,2242.543 8113.246,2233.807 8113.246,2223.047C8113.246,2212.287 8121.982,2203.552 8132.742,2203.552ZM8132.742,2212.199C8126.754,2212.199 8121.893,2217.06 8121.893,2223.047C8121.893,2229.035 8126.754,2233.896 8132.742,2233.896C8138.729,2233.896 8143.59,2229.035 8143.59,2223.047C8143.59,2217.06 8138.729,2212.199 8132.742,2212.199Z" style="fill:rgb(248,185,162);"/>
        </g>
        <g transform="matrix(0.5,0.866025,-0.866025,0.5,5859.858798,-5296.101752)">
          <g transform="matrix(1.211658,0,0,1.211658,-2367.616857,-330.099397)">
            <circle cx="8132.742" cy="2223.047" r="19.496" style="fill: rgb(248, 185, 162);"/>
            <path d="M8132.742,2203.552C8143.502,2203.552 8152.238,2212.287 8152.238,2223.047C8152.238,2233.807 8143.502,2242.543 8132.742,2242.543C8121.982,2242.543 8113.246,2233.807 8113.246,2223.047C8113.246,2212.287 8121.982,2203.552 8132.742,2203.552ZM8132.742,2212.199C8126.754,2212.199 8121.893,2217.06 8121.893,2223.047C8121.893,2229.035 8126.754,2233.896 8132.742,2233.896C8138.729,2233.896 8143.59,2229.035 8143.59,2223.047C8143.59,2217.06 8138.729,2212.199 8132.742,2212.199Z" style="fill: rgb(248, 185, 162);"/>
          </g>
          <g transform="matrix(1,0,0,1,-36.17609,-23.517802)">
            <path d="M7558.296,2405.461L7522.624,2384.866L7522.624,2337.386" style="fill:none;stroke:rgb(248,185,162);stroke-width:10.48px;"/>
          </g>
          <g transform="matrix(0,-0.454372,0.454372,0,6476.107804,6005.367181)">
            <circle cx="8132.742" cy="2223.047" r="19.496" style="fill:white;"/>
            <path d="M8132.742,2203.552C8143.502,2203.552 8152.238,2212.287 8152.238,2223.047C8152.238,2233.807 8143.502,2242.543 8132.742,2242.543C8121.982,2242.543 8113.246,2233.807 8113.246,2223.047C8113.246,2212.287 8121.982,2203.552 8132.742,2203.552ZM8132.742,2226.61C8134.709,2226.61 8136.305,2225.014 8136.305,2223.047C8136.305,2221.081 8134.709,2219.484 8132.742,2219.484C8130.775,2219.484 8129.179,2221.081 8129.179,2223.047C8129.179,2225.014 8130.775,2226.61 8132.742,2226.61Z" style="fill:rgb(248,185,162);"/>
          </g>
        </g>
        <g transform="matrix(1,0,0,1,-50.70207,76.02752)">
          <g transform="matrix(1.211658,0,0,1.211658,-2367.616857,-330.099397)">
            <circle cx="8132.742" cy="2223.047" r="19.496" style="fill: rgb(248, 185, 162);"/>
            <path d="M8132.742,2203.552C8143.502,2203.552 8152.238,2212.287 8152.238,2223.047C8152.238,2233.807 8143.502,2242.543 8132.742,2242.543C8121.982,2242.543 8113.246,2233.807 8113.246,2223.047C8113.246,2212.287 8121.982,2203.552 8132.742,2203.552ZM8132.742,2212.199C8126.754,2212.199 8121.893,2217.06 8121.893,2223.047C8121.893,2229.035 8126.754,2233.896 8132.742,2233.896C8138.729,2233.896 8143.59,2229.035 8143.59,2223.047C8143.59,2217.06 8138.729,2212.199 8132.742,2212.199Z" style="fill:rgb(248,185,162);"/>
          </g>
          <g transform="matrix(1,0,0,1,-36.17609,-23.517802)">
            <path d="M7558.296,2405.461L7522.624,2384.866L7522.624,2337.386" style="fill:none;stroke:rgb(248,185,162);stroke-width:10.48px;"/>
          </g>
          <g transform="matrix(0,-0.454372,0.454372,0,6476.107804,6005.367181)">
            <circle cx="8132.742" cy="2223.047" r="19.496" style="fill:white;"/>
            <path d="M8132.742,2203.552C8143.502,2203.552 8152.238,2212.287 8152.238,2223.047C8152.238,2233.807 8143.502,2242.543 8132.742,2242.543C8121.982,2242.543 8113.246,2233.807 8113.246,2223.047C8113.246,2212.287 8121.982,2203.552 8132.742,2203.552ZM8132.742,2226.61C8134.709,2226.61 8136.305,2225.014 8136.305,2223.047C8136.305,2221.081 8134.709,2219.484 8132.742,2219.484C8130.775,2219.484 8129.179,2221.081 8129.179,2223.047C8129.179,2225.014 8130.775,2226.61 8132.742,2226.61Z" style="fill:rgb(248,185,162);"/>
          </g>
        </g>
        <g transform="matrix(1,0,0,-1,-47.466776,4945.864679)">
          <g transform="matrix(1.211658,0,0,1.211658,-2367.616857,-330.099397)">
            <circle cx="8132.742" cy="2223.047" r="19.496" style="fill: rgb(248, 185, 162);"/>
            <path d="M8132.742,2203.552C8121.982,2203.552 8113.246,2212.287 8113.246,2223.047C8113.246,2233.807 8121.982,2242.543 8132.742,2242.543C8143.502,2242.543 8152.238,2233.807 8152.238,2223.047C8152.238,2212.287 8143.502,2203.552 8132.742,2203.552ZM8132.742,2212.199C8138.729,2212.199 8143.59,2217.06 8143.59,2223.047C8143.59,2229.035 8138.729,2233.896 8132.742,2233.896C8126.754,2233.896 8121.893,2229.035 8121.893,2223.047C8121.893,2217.06 8126.754,2212.199 8132.742,2212.199Z" style="fill: rgb(248, 185, 162);"/>
          </g>
          <g transform="matrix(1,0,0,1,-36.17609,-23.517802)">
            <path d="M7558.296,2405.461L7522.624,2384.866L7522.624,2337.386" style="fill:none;stroke:rgb(248,185,162);stroke-width:10.48px;"/>
          </g>
          <g transform="matrix(0,-0.454372,0.454372,0,6476.107804,6005.367181)">
            <circle cx="8132.742" cy="2223.047" r="19.496" style="fill:white;"/>
            <path d="M8132.742,2203.552C8121.982,2203.552 8113.246,2212.287 8113.246,2223.047C8113.246,2233.807 8121.982,2242.543 8132.742,2242.543C8143.502,2242.543 8152.238,2233.807 8152.238,2223.047C8152.238,2212.287 8143.502,2203.552 8132.742,2203.552ZM8132.742,2226.61C8130.775,2226.61 8129.179,2225.014 8129.179,2223.047C8129.179,2221.081 8130.775,2219.484 8132.742,2219.484C8134.709,2219.484 8136.305,2221.081 8136.305,2223.047C8136.305,2225.014 8134.709,2226.61 8132.742,2226.61Z" style="fill:rgb(248,185,162);"/>
          </g>
        </g>
        <g transform="matrix(0.707107,0.707107,-0.707107,0.707107,3712.856892,-4811.303369)">
          <g transform="matrix(1,0,0,1,1.699714,-16.620711)">
            <path d="M7837.856,2380.888L7837.856,2399.736" style="fill:none;stroke:rgb(248,185,162);stroke-width:10.48px;"/>
          </g>
          <g transform="matrix(0,-0.454372,0.454372,0,6829.46526,6055.110471)">
            <circle cx="8132.742" cy="2223.047" r="19.496" style="fill:white;"/>
            <path d="M8132.742,2203.552C8143.502,2203.552 8152.238,2212.287 8152.238,2223.047C8152.238,2233.807 8143.502,2242.543 8132.742,2242.543C8121.982,2242.543 8113.246,2233.807 8113.246,2223.047C8113.246,2212.287 8121.982,2203.552 8132.742,2203.552ZM8132.742,2226.61C8134.709,2226.61 8136.305,2225.014 8136.305,2223.047C8136.305,2221.081 8134.709,2219.484 8132.742,2219.484C8130.775,2219.484 8129.179,2221.081 8129.179,2223.047C8129.179,2225.014 8130.775,2226.61 8132.742,2226.61Z" style="fill:rgb(248,185,162);"/>
          </g>
        </g>
        <g transform="matrix(0.707107,0.707107,-0.707107,0.707107,3642.415716,-4684.933885)">
          <g transform="matrix(1,0,0,1,1.699714,-16.620711)">
            <path d="M7837.856,2380.888L7837.856,2399.736" style="fill:none;stroke:rgb(248,185,162);stroke-width:10.48px;"/>
          </g>
          <g transform="matrix(0,-0.454372,0.454372,0,6829.46526,6055.110471)">
            <circle cx="8132.742" cy="2223.047" r="19.496" style="fill:white;"/>
            <path d="M8132.742,2203.552C8143.502,2203.552 8152.238,2212.287 8152.238,2223.047C8152.238,2233.807 8143.502,2242.543 8132.742,2242.543C8121.982,2242.543 8113.246,2233.807 8113.246,2223.047C8113.246,2212.287 8121.982,2203.552 8132.742,2203.552ZM8132.742,2226.61C8134.709,2226.61 8136.305,2225.014 8136.305,2223.047C8136.305,2221.081 8134.709,2219.484 8132.742,2219.484C8130.775,2219.484 8129.179,2221.081 8129.179,2223.047C8129.179,2225.014 8130.775,2226.61 8132.742,2226.61Z" style="fill:rgb(248,185,162);"/>
          </g>
        </g>
        <g transform="matrix(0.707107,0.707107,-0.707107,0.707107,3783.849539,-4684.933885)">
          <g transform="matrix(1,0,0,1,1.699714,-16.620711)">
            <path d="M7837.856,2380.888L7837.856,2399.736" style="fill:none;stroke:rgb(248,185,162);stroke-width:10.48px;"/>
          </g>
          <g transform="matrix(0,-0.454372,0.454372,0,6829.46526,6055.110471)">
            <circle cx="8132.742" cy="2223.047" r="19.496" style="fill:white;"/>
            <path d="M8132.742,2203.552C8143.502,2203.552 8152.238,2212.287 8152.238,2223.047C8152.238,2233.807 8143.502,2242.543 8132.742,2242.543C8121.982,2242.543 8113.246,2233.807 8113.246,2223.047C8113.246,2212.287 8121.982,2203.552 8132.742,2203.552ZM8132.742,2226.61C8134.709,2226.61 8136.305,2225.014 8136.305,2223.047C8136.305,2221.081 8134.709,2219.484 8132.742,2219.484C8130.775,2219.484 8129.179,2221.081 8129.179,2223.047C8129.179,2225.014 8130.775,2226.61 8132.742,2226.61Z" style="fill:rgb(248,185,162);"/>
          </g>
        </g>
        <g transform="matrix(-0.707107,-0.707107,0.707107,-0.707107,11551.401826,9837.609309)">
          <g transform="matrix(1,0,0,1,1.699714,-16.620711)">
            <path d="M7837.856,2380.888L7837.856,2399.736" style="fill:none;stroke:rgb(248,185,162);stroke-width:10.48px;"/>
          </g>
          <g transform="matrix(0,-0.454372,0.454372,0,6829.46526,6055.110471)">
            <circle cx="8132.742" cy="2223.047" r="19.496" style="fill:white;"/>
            <path d="M8132.742,2203.552C8143.502,2203.552 8152.238,2212.287 8152.238,2223.047C8152.238,2233.807 8143.502,2242.543 8132.742,2242.543C8121.982,2242.543 8113.246,2233.807 8113.246,2223.047C8113.246,2212.287 8121.982,2203.552 8132.742,2203.552ZM8132.742,2226.61C8134.709,2226.61 8136.305,2225.014 8136.305,2223.047C8136.305,2221.081 8134.709,2219.484 8132.742,2219.484C8130.775,2219.484 8129.179,2221.081 8129.179,2223.047C8129.179,2225.014 8130.775,2226.61 8132.742,2226.61Z" style="fill:rgb(248,185,162);"/>
          </g>
        </g>
        <g transform="matrix(0.707107,-0.707107,-0.707107,-0.707107,3857.870678,9837.609309)">
          <g transform="matrix(1,0,0,1,1.699714,-16.620711)">
            <path d="M7837.856,2380.888L7837.856,2399.736" style="fill:none;stroke:rgb(248,185,162);stroke-width:10.48px;"/>
          </g>
          <g transform="matrix(0,-0.454372,0.454372,0,6829.46526,6055.110471)">
            <circle cx="8132.742" cy="2223.047" r="19.496" style="fill:white;"/>
            <path d="M8132.742,2203.552C8121.982,2203.552 8113.246,2212.287 8113.246,2223.047C8113.246,2233.807 8121.982,2242.543 8132.742,2242.543C8143.502,2242.543 8152.238,2233.807 8152.238,2223.047C8152.238,2212.287 8143.502,2203.552 8132.742,2203.552ZM8132.742,2226.61C8130.775,2226.61 8129.179,2225.014 8129.179,2223.047C8129.179,2221.081 8130.775,2219.484 8132.742,2219.484C8134.709,2219.484 8136.305,2221.081 8136.305,2223.047C8136.305,2225.014 8134.708,2226.61 8132.742,2226.61Z" style="fill:rgb(248,185,162);"/>
          </g>
        </g>
        <g transform="matrix(0.707107,-0.707107,-0.707107,-0.707107,3943.486486,9791.805082)">
          <g transform="matrix(1,0,0,1,1.699714,-16.620711)">
            <path d="M7837.856,2380.888L7837.856,2399.736" style="fill:none;stroke:rgb(248,185,162);stroke-width:10.48px;"/>
          </g>
          <g transform="matrix(0,-0.454372,0.454372,0,6829.46526,6055.110471)">
            <circle cx="8132.742" cy="2223.047" r="19.496" style="fill:white;"/>
            <path d="M8132.742,2203.552C8121.982,2203.552 8113.246,2212.287 8113.246,2223.047C8113.246,2233.807 8121.982,2242.543 8132.742,2242.543C8143.502,2242.543 8152.238,2233.807 8152.238,2223.047C8152.238,2212.287 8143.502,2203.552 8132.742,2203.552ZM8132.742,2226.61C8130.775,2226.61 8129.179,2225.014 8129.179,2223.047C8129.179,2221.081 8130.775,2219.484 8132.742,2219.484C8134.709,2219.484 8136.305,2221.081 8136.305,2223.047C8136.305,2225.014 8134.709,2226.61 8132.742,2226.61Z" style="fill:rgb(248,185,162);"/>
          </g>
        </g>
        <g transform="matrix(0.707107,-0.707107,-0.707107,-0.707107,3857.259464,9665.656186)">
          <g transform="matrix(1,0,0,1,1.699714,-16.620711)">
            <path d="M7837.856,2380.888L7837.856,2399.736" style="fill:none;stroke:rgb(248,185,162);stroke-width:10.48px;"/>
          </g>
          <g transform="matrix(0,-0.454372,0.454372,0,6829.46526,6055.110471)">
            <circle cx="8132.742" cy="2223.047" r="19.496" style="fill:white;"/>
            <path d="M8132.742,2203.552C8121.982,2203.552 8113.246,2212.287 8113.246,2223.047C8113.246,2233.807 8121.982,2242.543 8132.742,2242.543C8143.502,2242.543 8152.238,2233.807 8152.238,2223.047C8152.238,2212.287 8143.502,2203.552 8132.742,2203.552ZM8132.742,2226.61C8130.775,2226.61 8129.179,2225.014 8129.179,2223.047C8129.179,2221.081 8130.775,2219.484 8132.742,2219.484C8134.709,2219.484 8136.305,2221.081 8136.305,2223.047C8136.305,2225.014 8134.709,2226.61 8132.742,2226.61Z" style="fill:rgb(248,185,162);"/>
          </g>
        </g>
        <g transform="matrix(0.707107,0.707107,-0.707107,0.707107,3786.625274,-4776.8962)">
          <g transform="matrix(1,0,0,1,1.699714,-16.620711)">
            <path d="M7837.856,2380.888L7837.856,2399.736" style="fill:none;stroke:rgb(248,185,162);stroke-width:10.48px;"/>
          </g>
          <g transform="matrix(0,-0.454372,0.454372,0,6829.46526,6055.110471)">
            <circle cx="8132.742" cy="2223.047" r="19.496" style="fill:white;"/>
            <path d="M8132.742,2203.552C8143.502,2203.552 8152.238,2212.287 8152.238,2223.047C8152.238,2233.807 8143.502,2242.543 8132.742,2242.543C8121.982,2242.543 8113.246,2233.807 8113.246,2223.047C8113.246,2212.287 8121.982,2203.552 8132.742,2203.552ZM8132.742,2226.61C8134.709,2226.61 8136.305,2225.014 8136.305,2223.047C8136.305,2221.081 8134.709,2219.484 8132.742,2219.484C8130.775,2219.484 8129.179,2221.081 8129.179,2223.047C8129.179,2225.014 8130.775,2226.61 8132.742,2226.61Z" style="fill:rgb(248,185,162);"/>
          </g>
        </g>
        <g transform="matrix(-0.707107,-0.707107,0.707107,-0.707107,11336.677564,9702.264642)">
          <g transform="matrix(1,0,0,1,1.699714,-16.620711)">
            <path d="M7837.856,2380.888L7837.856,2399.736" style="fill:none;stroke:rgb(248,185,162);stroke-width:10.48px;"/>
          </g>
          <g transform="matrix(0,-0.454372,0.454372,0,6829.46526,6055.110471)">
            <circle cx="8132.742" cy="2223.047" r="19.496" style="fill:white;"/>
            <path d="M8132.742,2203.552C8143.502,2203.552 8152.238,2212.287 8152.238,2223.047C8152.238,2233.807 8143.502,2242.543 8132.742,2242.543C8121.982,2242.543 8113.246,2233.807 8113.246,2223.047C8113.246,2212.287 8121.982,2203.552 8132.742,2203.552ZM8132.742,2226.61C8134.709,2226.61 8136.305,2225.014 8136.305,2223.047C8136.305,2221.081 8134.709,2219.484 8132.742,2219.484C8130.775,2219.484 8129.179,2221.081 8129.179,2223.047C8129.179,2225.014 8130.775,2226.61 8132.742,2226.61Z" style="fill:rgb(248,185,162);"/>
          </g>
        </g>
        <g transform="matrix(0.908744,0,0,0.908744,97.797697,444.31394)">
          <circle cx="8132.742" cy="2223.047" r="19.496" style="fill:white;"/>
          <path d="M8132.742,2203.552C8143.502,2203.552 8152.238,2212.287 8152.238,2223.047C8152.238,2233.807 8143.502,2242.543 8132.742,2242.543C8121.982,2242.543 8113.246,2233.807 8113.246,2223.047C8113.246,2212.287 8121.982,2203.552 8132.742,2203.552ZM8132.742,2215.081C8128.345,2215.081 8124.776,2218.651 8124.776,2223.047C8124.776,2227.444 8128.345,2231.013 8132.742,2231.013C8137.139,2231.013 8140.708,2227.444 8140.708,2223.047C8140.708,2218.651 8137.139,2215.081 8132.742,2215.081Z" style="fill:rgb(248,185,162);"/>
        </g>
        <g transform="matrix(0.908744,0,0,0.908744,242.066995,444.31394)">
          <circle cx="8132.742" cy="2223.047" r="19.496" style="fill:white;"/>
          <path d="M8132.742,2203.552C8143.502,2203.552 8152.238,2212.287 8152.238,2223.047C8152.238,2233.807 8143.502,2242.543 8132.742,2242.543C8121.982,2242.543 8113.246,2233.807 8113.246,2223.047C8113.246,2212.287 8121.982,2203.552 8132.742,2203.552ZM8132.742,2215.081C8128.345,2215.081 8124.776,2218.651 8124.776,2223.047C8124.776,2227.444 8128.345,2231.013 8132.742,2231.013C8137.139,2231.013 8140.708,2227.444 8140.708,2223.047C8140.708,2218.651 8137.139,2215.081 8132.742,2215.081Z" style="fill:rgb(248,185,162);"/>
        </g>
        <g transform="matrix(0,-0.908744,0.908744,0,5538.455524,9816.462802)">
          <circle cx="8132.742" cy="2223.047" r="19.496" style="fill:white;"/>
          <path d="M8132.742,2203.552C8143.502,2203.552 8152.238,2212.287 8152.238,2223.047C8152.238,2233.807 8143.502,2242.543 8132.742,2242.543C8121.982,2242.543 8113.246,2233.807 8113.246,2223.047C8113.246,2212.287 8121.982,2203.552 8132.742,2203.552ZM8132.742,2215.081C8128.345,2215.081 8124.776,2218.651 8124.776,2223.047C8124.776,2227.444 8128.345,2231.013 8132.742,2231.013C8137.139,2231.013 8140.708,2227.444 8140.708,2223.047C8140.708,2218.651 8137.139,2215.081 8132.742,2215.081Z" style="fill:rgb(248,185,162);"/>
        </g>
        <g transform="matrix(0.908744,0,0,0.908744,97.797697,534.474783)">
          <circle cx="8132.742" cy="2223.047" r="19.496" style="fill:white;"/>
          <path d="M8132.742,2203.552C8143.502,2203.552 8152.238,2212.287 8152.238,2223.047C8152.238,2233.807 8143.502,2242.543 8132.742,2242.543C8121.982,2242.543 8113.246,2233.807 8113.246,2223.047C8113.246,2212.287 8121.982,2203.552 8132.742,2203.552ZM8132.742,2215.081C8128.345,2215.081 8124.776,2218.651 8124.776,2223.047C8124.776,2227.444 8128.345,2231.013 8132.742,2231.013C8137.139,2231.013 8140.708,2227.444 8140.708,2223.047C8140.708,2218.651 8137.139,2215.081 8132.742,2215.081Z" style="fill:rgb(248,185,162);"/>
        </g>
        <g transform="matrix(0.908744,0,0,0.908744,242.066995,534.474783)">
          <circle cx="8132.742" cy="2223.047" r="19.496" style="fill:white;"/>
          <path d="M8132.742,2203.552C8143.502,2203.552 8152.238,2212.287 8152.238,2223.047C8152.238,2233.807 8143.502,2242.543 8132.742,2242.543C8121.982,2242.543 8113.246,2233.807 8113.246,2223.047C8113.246,2212.287 8121.982,2203.552 8132.742,2203.552ZM8132.742,2215.081C8128.345,2215.081 8124.776,2218.651 8124.776,2223.047C8124.776,2227.444 8128.345,2231.013 8132.742,2231.013C8137.139,2231.013 8140.708,2227.444 8140.708,2223.047C8140.708,2218.651 8137.139,2215.081 8132.742,2215.081Z" style="fill:rgb(248,185,162);"/>
        </g>
        <g transform="matrix(0,-0.908744,0.908744,0,5685.23861,9988.172357)">
          <circle cx="8132.742" cy="2223.047" r="19.496" style="fill:white;"/>
          <path d="M8132.742,2203.552C8143.502,2203.552 8152.238,2212.287 8152.238,2223.047C8152.238,2233.807 8143.502,2242.543 8132.742,2242.543C8121.982,2242.543 8113.246,2233.807 8113.246,2223.047C8113.246,2212.287 8121.982,2203.552 8132.742,2203.552ZM8132.742,2215.081C8128.345,2215.081 8124.776,2218.651 8124.776,2223.047C8124.776,2227.444 8128.345,2231.013 8132.742,2231.013C8137.139,2231.013 8140.708,2227.444 8140.708,2223.047C8140.708,2218.651 8137.139,2215.081 8132.742,2215.081Z" style="fill:rgb(248,185,162);"/>
        </g>
      </g>
    </g>
  </g>
</svg>