<?xml version="1.0" encoding="UTF-8" standalone="no"?>
<!DOCTYPE svg PUBLIC "-//W3C//DTD SVG 1.1//EN" "http://www.w3.org/Graphics/SVG/1.1/DTD/svg11.dtd">
<svg width="100%" height="100%" viewBox="0 0 510 415" version="1.1" xmlns="http://www.w3.org/2000/svg" xmlns:xlink="http://www.w3.org/1999/xlink" xml:space="preserve" xmlns:serif="http://www.serif.com/" style="fill-rule:evenodd;clip-rule:evenodd;stroke-linecap:round;stroke-linejoin:round;stroke-miterlimit:1.5;">
    <g transform="matrix(1,0,0,1,-10063.411884,-56.76755)">
        <g transform="matrix(1.5,-0,0,1.5,-9629.715968,-432.032245)">
            <g id="CONODONT" transform="matrix(1.06668,-0.377851,0.377851,1.06668,4152.411754,-1851.200516)">
                <path d="M6847.725,4520.106C6882.917,4525.819 6917.584,4539.537 6926.407,4569.274C6929.024,4580.867 6923.929,4589.872 6893.568,4602.958C6863.206,4616.044 6837.708,4633.58 6855.581,4655.006C6873.454,4676.431 6915.362,4689.198 6934.504,4691.556C6954.315,4693.996 6991.579,4697.333 7027.459,4709.87C7035.03,4712.516 7039.837,4715.251 7043.672,4717.138C7053.951,4722.196 7046.369,4724.536 7015.015,4731.5" style="fill:none;stroke:rgb(248,185,162);stroke-width:2.45px;"/>
                <path d="M6860.571,4491.653C6851.06,4492.557 6845.399,4485.875 6847.147,4480.179C6848.361,4476.222 6849.546,4472.385 6857.819,4472.586C6866.426,4472.796 6868.088,4476.703 6869.911,4481.46C6871.733,4486.218 6873.089,4487.84 6889.646,4496.931C6906.203,4506.022 6949.46,4524.541 6951.795,4556.396C6954.13,4588.251 6928.643,4598.344 6903.509,4609.114C6878.376,4619.884 6860.516,4621.901 6862.943,4642.55C6865.369,4663.2 6912.373,4681.779 6943.142,4686.755C6958.696,4689.27 6986.588,4691.444 7014.682,4699.792C7042.163,4707.959 7073.119,4721.188 7045.803,4729.181C7018.487,4737.174 7005.944,4736.374 6988.824,4736.684C6971.704,4736.994 6935.159,4726.682 6910.251,4736.689C6929.534,4725.394 6933.726,4724.868 6956.599,4720.229C6979.472,4715.59 7009.646,4715.773 7021.067,4708.411" style="fill:none;stroke:rgb(248,185,162);stroke-width:2.45px;"/>
                <g transform="matrix(0.950611,0.190711,-0.18693,0.931766,1168.693314,-1004.33577)">
                    <path d="M6866.073,4474.483C6871.099,4474.483 6875.18,4478.096 6875.18,4482.545C6875.18,4486.995 6871.099,4490.608 6866.073,4490.608C6861.046,4490.608 6856.965,4486.995 6856.965,4482.545C6856.965,4478.096 6861.046,4474.483 6866.073,4474.483ZM6866.073,4477.066C6862.534,4477.066 6859.497,4479.412 6859.497,4482.545C6859.497,4485.678 6862.534,4488.025 6866.073,4488.025C6869.612,4488.025 6872.649,4485.678 6872.649,4482.545C6872.649,4479.412 6869.612,4477.066 6866.073,4477.066Z" style="fill:rgb(248,185,162);"/>
                </g>
                <g transform="matrix(0.408454,0.081944,-0.080319,0.400357,4413.296554,2124.535766)">
                    <ellipse cx="6866.073" cy="4482.545" rx="9.107" ry="8.062"/>
                    <path d="M6866.073,4474.483C6871.099,4474.483 6875.18,4478.096 6875.18,4482.545C6875.18,4486.995 6871.099,4490.608 6866.073,4490.608C6861.046,4490.608 6856.965,4486.995 6856.965,4482.545C6856.965,4478.096 6861.046,4474.483 6866.073,4474.483ZM6866.073,4480.494C6864.492,4480.494 6862.858,4481.146 6862.858,4482.545C6862.858,4483.945 6864.492,4484.596 6866.073,4484.596C6867.654,4484.596 6869.288,4483.945 6869.288,4482.545C6869.288,4481.146 6867.654,4480.494 6866.073,4480.494Z" style="fill:rgb(248,185,162);"/>
                </g>
                <path d="M6881.785,4617.769C6895.719,4631.801 6912.379,4640.966 6936.531,4646.814C6967.692,4654.359 7000.353,4660.852 7030.59,4672.975C7060.827,4685.098 7075.631,4703.027 7054.636,4725.087" style="fill:none;stroke:rgb(248,185,162);stroke-width:2.45px;"/>
                <path d="M6869.642,4667.255C6850.563,4652.451 6839.628,4640.8 6836.019,4619.86C6832.41,4598.919 6840.161,4589.222 6857.262,4582.691C6877.253,4575.056 6914.203,4567.342 6916.371,4551.365" style="fill:none;stroke:rgb(248,185,162);stroke-width:2.45px;"/>
                <path d="M6831.991,4493.518C6833.235,4486.212 6840.784,4483.547 6847.904,4489.343C6855.025,4495.138 6858.042,4497.504 6860.736,4502.828C6863.43,4508.153 6862.758,4514.95 6857.74,4518.339C6852.723,4521.728 6846.443,4520.959 6841.477,4516.926C6837.521,4513.714 6835.508,4507.595 6834.698,4503.846" style="fill:none;stroke:rgb(248,185,162);stroke-width:2.45px;"/>
                <path d="M6836.446,4501.069L6832.502,4505.758" style="fill:none;stroke:rgb(248,185,162);stroke-width:2.45px;"/>
                <path d="M6836.097,4500.909C6834.413,4500.606 6830.945,4500.646 6830.945,4500.646L6834.364,4498.914L6830.472,4497.345L6834.654,4496.379L6830.962,4494.193C6830.962,4494.193 6834.644,4494.041 6834.9,4494.448C6835.157,4494.854 6833.506,4492.461 6836.616,4490.782C6839.726,4489.103 6841.798,4487.768 6846.181,4491.595C6850.563,4495.423 6856.758,4500.55 6857.916,4503.831C6859.073,4507.112 6863.078,4520.329 6840.826,4516.18" style="fill:none;stroke:rgb(248,185,162);stroke-width:2.45px;"/>
                <g transform="matrix(1,0,0,1,-5.796692,-5.592628)">
                    <path d="M6850.317,4496.088L6848.284,4498.017L6851.522,4497.556L6849.606,4500.353L6853.182,4499.109L6851.528,4502.736L6854.193,4500.887L6853.141,4506.425" style="fill:none;stroke:rgb(248,185,162);stroke-width:2.45px;"/>
                </g>
                <path d="M6849.375,4516.574C6849.375,4516.574 6846.699,4515.622 6846.677,4512.928" style="fill:none;stroke:rgb(248,185,162);stroke-width:2.45px;"/>
                <g transform="matrix(1,0,0,1,-0.487827,0.731841)">
                    <path d="M6840.737,4513.458C6842.436,4511.63 6842.592,4509.872 6842.592,4509.872" style="fill:none;stroke:rgb(248,185,162);stroke-width:2.45px;"/>
                </g>
                <g transform="matrix(1.026414,0.037296,0.037296,1.052661,-349.884075,-492.502351)">
                    <path d="M6852.608,4515.329L6849.941,4511.563" style="fill:none;stroke:rgb(248,185,162);stroke-width:2.28px;"/>
                </g>
                <path d="M6855.021,4514.774C6855.021,4514.774 6852.928,4513.032 6852.668,4511.32" style="fill:none;stroke:rgb(248,185,162);stroke-width:2.45px;"/>
                <path d="M6857.414,4512.772C6857.414,4512.772 6856.738,4512.614 6854.977,4510.744" style="fill:none;stroke:rgb(248,185,162);stroke-width:2.45px;"/>
                <path d="M6858.793,4509.498C6858.793,4509.498 6856.409,4509.162 6855.031,4507.781" style="fill:none;stroke:rgb(248,185,162);stroke-width:2.45px;"/>
                <path d="M6832.058,4492.565C6827.504,4487.973 6826.572,4484.87 6829.784,4481.474C6832.995,4478.079 6839.005,4477.688 6844.769,4482.292" style="fill:none;stroke:rgb(248,185,162);stroke-width:2.45px;"/>
                <g transform="matrix(0.943668,0,0,0.984764,384.944019,68.4145)">
                    <path d="M6833.057,4490.332C6836.006,4485.731 6839.336,4483.831 6846.963,4482.243" style="fill:none;stroke:rgb(248,185,162);stroke-width:2.55px;"/>
                </g>
                <path d="M6913.639,4564.016L6918.121,4570.182L6917.879,4582.731" style="fill:none;stroke:rgb(248,185,162);stroke-width:2.45px;"/>
                <path d="M6907.063,4568.563L6912.083,4573.045L6911.325,4587.506" style="fill:none;stroke:rgb(248,185,162);stroke-width:2.45px;"/>
                <path d="M6899.562,4573.019L6905.693,4576.821L6904.098,4593.249" style="fill:none;stroke:rgb(248,185,162);stroke-width:2.45px;"/>
                <path d="M6893.87,4574.726L6899.687,4580.269L6898.047,4594.368" style="fill:none;stroke:rgb(248,185,162);stroke-width:2.45px;"/>
                <path d="M6885.618,4578.108L6891.628,4583.75L6886.836,4600.24" style="fill:none;stroke:rgb(248,185,162);stroke-width:2.45px;"/>
                <path d="M6875.154,4581.97L6881.925,4587.481L6876.878,4603.116" style="fill:none;stroke:rgb(248,185,162);stroke-width:2.45px;"/>
                <path d="M6860.524,4588.726L6868.289,4594.254L6864.015,4612.562" style="fill:none;stroke:rgb(248,185,162);stroke-width:2.45px;"/>
                <path d="M6850.194,4594.079L6857.19,4597.914L6852.938,4616.757" style="fill:none;stroke:rgb(248,185,162);stroke-width:2.45px;"/>
                <path d="M6840.088,4603.263L6848.131,4604.057C6848.131,4604.057 6845.259,4623.244 6845.856,4628.75" style="fill:none;stroke:rgb(248,185,162);stroke-width:2.45px;"/>
                <path d="M6870.142,4650.059L6864.489,4632.713L6865.871,4629.2L6875.655,4625.116" style="fill:none;stroke:rgb(248,185,162);stroke-width:2.45px;"/>
                <path d="M6883.378,4629.444L6873.327,4634.139L6879.695,4656.439" style="fill:none;stroke:rgb(248,185,162);stroke-width:2.45px;"/>
                <path d="M6898.61,4668.622L6890.784,4645.767L6899.838,4639.478" style="fill:none;stroke:rgb(248,185,162);stroke-width:2.45px;"/>
                <path d="M6935.661,4680.829L6927.074,4660.759L6934.305,4652.709" style="fill:none;stroke:rgb(248,185,162);stroke-width:2.45px;"/>
                <path d="M6946.895,4682.767L6938.145,4664.879L6944.516,4657.089" style="fill:none;stroke:rgb(248,185,162);stroke-width:2.45px;"/>
                <path d="M6909.937,4673.028L6902.545,4652.104L6911.327,4644.14" style="fill:none;stroke:rgb(248,185,162);stroke-width:2.45px;"/>
                <path d="M6922.752,4677.388L6914.331,4656.599L6921.778,4648.936" style="fill:none;stroke:rgb(248,185,162);stroke-width:2.45px;"/>
                <path d="M6887.643,4663.311L6880.476,4639.219L6889.32,4633.251" style="fill:none;stroke:rgb(248,185,162);stroke-width:2.45px;"/>
                <path d="M6865.996,4499.094C6869.694,4504.413 6871.238,4510.188 6866.296,4515.465" style="fill:none;stroke:rgb(248,185,162);stroke-width:2.45px;"/>
                <g transform="matrix(0.903091,0.12105,-0.126528,0.943964,1239.710291,-577.16769)">
                    <path d="M6865.996,4499.094C6869.694,4504.413 6871.238,4510.188 6866.296,4515.465" style="fill:none;stroke:rgb(248,185,162);stroke-width:2.63px;"/>
                </g>
                <g transform="matrix(0.677377,0.184398,-0.218543,0.802808,3208.696356,-373.830406)">
                    <path d="M6865.996,4499.094C6869.694,4504.413 6871.238,4510.188 6866.296,4515.465" style="fill:none;stroke:rgb(248,185,162);stroke-width:3.19px;"/>
                </g>
                <path d="M6961.386,4684.92L6952.225,4667.43L6956.943,4661.173" style="fill:none;stroke:rgb(248,185,162);stroke-width:2.45px;"/>
                <path d="M6972.539,4687.089L6964.158,4670.941L6970.277,4664.046" style="fill:none;stroke:rgb(248,185,162);stroke-width:2.45px;"/>
                <path d="M6987.514,4688.231L6978.824,4673.347L6983.373,4667.173" style="fill:none;stroke:rgb(248,185,162);stroke-width:2.45px;"/>
                <path d="M7003.8,4692.205L6993.147,4677.921L6997.95,4671.285" style="fill:none;stroke:rgb(248,185,162);stroke-width:2.45px;"/>
                <path d="M7026.616,4699.805L7017.625,4684.518L7022.769,4678.433" style="fill:none;stroke:rgb(248,185,162);stroke-width:2.45px;"/>
                <path d="M7035.095,4702.327L7029.314,4689.067L7036.111,4681.992" style="fill:none;stroke:rgb(248,185,162);stroke-width:2.45px;"/>
                <path d="M7016.556,4696.37L7005.53,4681.351L7010.589,4674.925" style="fill:none;stroke:rgb(248,185,162);stroke-width:2.45px;"/>
                <path d="M7042.411,4704.78L7038.462,4692.53L7044.686,4686.054" style="fill:none;stroke:rgb(248,185,162);stroke-width:2.45px;"/>
                <path d="M7048.992,4708.866L7045.765,4695.928L7051.331,4690.217" style="fill:none;stroke:rgb(248,185,162);stroke-width:2.45px;"/>
                <path d="M7054.977,4711.946L7053.356,4700.748L7056.254,4694.31" style="fill:none;stroke:rgb(248,185,162);stroke-width:2.45px;"/>
                <path d="M6975.415,4717.03L6968.051,4709.222C6968.051,4709.222 6956.86,4710.136 6949.755,4713.324C6942.65,4716.511 6938.387,4721.482 6932.234,4721.992C6926.081,4722.501 6924.001,4720.621 6919.58,4723.272C6915.16,4725.923 6907.825,4730.663 6902.149,4735.124C6896.472,4739.584 6889.655,4743.466 6904.437,4741.125C6919.22,4738.785 6923.288,4738.124 6930.836,4738.45C6938.383,4738.775 6946.485,4741.988 6953.755,4741.108C6961.025,4740.228 6962.338,4734.69 6962.338,4734.69" style="fill:none;stroke:rgb(248,185,162);stroke-width:2.45px;"/>
                <path d="M6844.595,4511.643C6844.124,4514.138 6843.495,4516.815 6843.495,4516.815" style="fill:none;stroke:rgb(248,185,162);stroke-width:2.45px;"/>
                <path d="M6948.622,4552.024L6943.538,4552.871L6941.006,4576.431" style="fill:none;stroke:rgb(248,185,162);stroke-width:2.45px;"/>
                <path d="M6944.67,4545.228L6938.843,4546.301L6938.155,4569.109" style="fill:none;stroke:rgb(248,185,162);stroke-width:2.45px;"/>
                <path d="M6940.464,4537.395L6933.271,4541.723L6934.335,4562.985" style="fill:none;stroke:rgb(248,185,162);stroke-width:2.45px;"/>
                <path d="M6928.983,4557.611L6926.545,4534.529L6932.795,4529.398" style="fill:none;stroke:rgb(248,185,162);stroke-width:2.45px;"/>
                <path d="M6922.576,4549.936L6919.869,4530.08L6925.075,4522.97" style="fill:none;stroke:rgb(248,185,162);stroke-width:2.45px;"/>
                <path d="M6836.28,4501.067C6834.585,4499.004 6834.469,4497.138 6834.972,4494.626" style="fill:none;stroke:rgb(248,185,162);stroke-width:2.45px;"/>
            </g>
        </g>
    </g>
</svg>
